Sansita-Bold.ufo
<glyph name="exclam" format="1">
  <advance width="252"/>
  <unicode hex="0021"/>
  <outline>
    <contour>
      <point x="87" y="681"/>
      <point x="51" y="670"/>
      <point x="31" y="649" type="curve"/>
      <point x="61" y="273" type="line" smooth="yes"/>
      <point x="66" y="214"/>
      <point x="73" y="180"/>
      <point x="133" y="180" type="curve" smooth="yes"/>
      <point x="152" y="180"/>
      <point x="168" y="183"/>
      <point x="180" y="192" type="curve"/>
      <point x="203" y="448" type="line" smooth="yes"/>
      <point x="207" y="490"/>
      <point x="212" y="542"/>
      <point x="212" y="578" type="curve" smooth="yes"/>
      <point x="212" y="642"/>
      <point x="183" y="681"/>
      <point x="118" y="681" type="curve" smooth="yes"/>
    </contour>
    <component base="period"/>
  </outline>
</glyph>
<glyph name="numbersign" format="1">
  <advance width="620"/>
  <unicode hex="0023"/>
  <outline>
    <contour>
      <point x="385" y="660"/>
      <point x="365" y="632"/>
      <point x="365" y="592" type="curve" smooth="yes"/>
      <point x="365" y="495" type="line"/>
      <point x="264" y="495" type="line"/>
      <point x="264" y="648" type="line"/>
      <point x="251" y="654"/>
      <point x="233" y="660"/>
      <point x="216" y="660" type="curve" smooth="yes"/>
      <point x="165" y="660"/>
      <point x="145" y="632"/>
      <point x="145" y="592" type="curve" smooth="yes"/>
      <point x="145" y="495" type="line"/>
      <point x="98" y="495" type="line" smooth="yes"/>
      <point x="61" y="495"/>
      <point x="36" y="474"/>
      <point x="36" y="420" type="curve" smooth="yes"/>
      <point x="36" y="404"/>
      <point x="41" y="388"/>
      <point x="47" y="376" type="curve"/>
      <point x="145" y="376" type="line"/>
      <point x="145" y="263" type="line"/>
      <point x="98" y="263" type="line" smooth="yes"/>
      <point x="61" y="263"/>
      <point x="36" y="239"/>
      <point x="36" y="188" type="curve" smooth="yes"/>
      <point x="36" y="172"/>
      <point x="41" y="156"/>
      <point x="47" y="144" type="curve"/>
      <point x="145" y="144" type="line"/>
      <point x="145" y="12" type="line"/>
      <point x="158" y="6"/>
      <point x="176" y="0"/>
      <point x="193" y="0" type="curve" smooth="yes"/>
      <point x="244" y="0"/>
      <point x="264" y="28"/>
      <point x="264" y="68" type="curve" smooth="yes"/>
      <point x="264" y="144" type="line"/>
      <point x="365" y="144" type="line"/>
      <point x="365" y="12" type="line"/>
      <point x="378" y="6"/>
      <point x="396" y="0"/>
      <point x="413" y="0" type="curve" smooth="yes"/>
      <point x="464" y="0"/>
      <point x="484" y="28"/>
      <point x="484" y="68" type="curve" smooth="yes"/>
      <point x="484" y="144" type="line"/>
      <point x="521" y="144" type="line" smooth="yes"/>
      <point x="558" y="144"/>
      <point x="583" y="168"/>
      <point x="583" y="219" type="curve" smooth="yes"/>
      <point x="583" y="235"/>
      <point x="578" y="251"/>
      <point x="572" y="263" type="curve"/>
      <point x="484" y="263" type="line"/>
      <point x="484" y="376" type="line"/>
      <point x="521" y="376" type="line" smooth="yes"/>
      <point x="558" y="376"/>
      <point x="583" y="397"/>
      <point x="583" y="451" type="curve" smooth="yes"/>
      <point x="583" y="467"/>
      <point x="578" y="483"/>
      <point x="572" y="495" type="curve"/>
      <point x="484" y="495" type="line"/>
      <point x="484" y="648" type="line"/>
      <point x="471" y="654"/>
      <point x="453" y="660"/>
      <point x="436" y="660" type="curve" smooth="yes"/>
    </contour>
    <contour>
      <point x="365" y="263" type="line"/>
      <point x="264" y="263" type="line"/>
      <point x="264" y="376" type="line"/>
      <point x="365" y="376" type="line"/>
    </contour>
  </outline>
</glyph>
<glyph name="dollar" format="1">
  <advance width="620"/>
  <unicode hex="0024"/>
  <outline>
    <contour>
      <point x="197" y="660"/>
      <point x="65" y="592"/>
      <point x="65" y="458" type="curve" smooth="yes"/>
      <point x="65" y="241"/>
      <point x="382" y="277"/>
      <point x="382" y="128" type="curve" smooth="yes"/>
      <point x="382" y="79"/>
      <point x="350" y="52"/>
      <point x="301" y="52" type="curve" smooth="yes"/>
      <point x="237" y="52"/>
      <point x="220" y="100"/>
      <point x="220" y="164" type="curve" smooth="yes"/>
      <point x="220" y="184"/>
      <point x="222" y="199"/>
      <point x="226" y="219" type="curve"/>
      <point x="210" y="224"/>
      <point x="189" y="226"/>
      <point x="174" y="226" type="curve" smooth="yes"/>
      <point x="106" y="226"/>
      <point x="50" y="185"/>
      <point x="50" y="113" type="curve" smooth="yes"/>
      <point x="50" y="6"/>
      <point x="180" y="-22"/>
      <point x="287" y="-22" type="curve" smooth="yes"/>
      <point x="441" y="-22"/>
      <point x="569" y="37"/>
      <point x="569" y="191" type="curve" smooth="yes"/>
      <point x="569" y="407"/>
      <point x="252" y="361"/>
      <point x="252" y="521" type="curve" smooth="yes"/>
      <point x="252" y="561"/>
      <point x="277" y="586"/>
      <point x="317" y="586" type="curve" smooth="yes"/>
      <point x="366" y="586"/>
      <point x="384" y="552"/>
      <point x="384" y="504" type="curve" smooth="yes"/>
      <point x="384" y="482"/>
      <point x="382" y="461"/>
      <point x="378" y="439" type="curve"/>
      <point x="394" y="434"/>
      <point x="415" y="432"/>
      <point x="430" y="432" type="curve" smooth="yes"/>
      <point x="498" y="432"/>
      <point x="554" y="463"/>
      <point x="554" y="535" type="curve" smooth="yes"/>
      <point x="554" y="632"/>
      <point x="428" y="660"/>
      <point x="331" y="660" type="curve" smooth="yes"/>
    </contour>
    <contour>
      <point x="252" y="-107" type="line"/>
      <point x="264" y="-112"/>
      <point x="280" y="-118"/>
      <point x="296" y="-118" type="curve" smooth="yes"/>
      <point x="334" y="-118"/>
      <point x="352" y="-92"/>
      <point x="352" y="-56" type="curve" smooth="yes"/>
      <point x="352" y="20" type="line"/>
      <point x="252" y="29" type="line"/>
    </contour>
    <contour>
      <point x="287" y="756"/>
      <point x="269" y="730"/>
      <point x="269" y="694" type="curve" smooth="yes"/>
      <point x="269" y="616" type="line"/>
      <point x="369" y="633" type="line"/>
      <point x="369" y="745" type="line"/>
      <point x="357" y="750"/>
      <point x="341" y="756"/>
      <point x="325" y="756" type="curve" smooth="yes"/>
    </contour>
  </outline>
</glyph>
<glyph name="ampersand" format="1">
  <advance width="716"/>
  <unicode hex="0026"/>
  <outline>
    <contour>
      <point x="215" y="679"/>
      <point x="101" y="635"/>
      <point x="101" y="523" type="curve" smooth="yes"/>
      <point x="101" y="384"/>
      <point x="278" y="160"/>
      <point x="411" y="65" type="curve" smooth="yes"/>
      <point x="470" y="28"/>
      <point x="537" y="-20"/>
      <point x="625" y="-20" type="curve" smooth="yes"/>
      <point x="684" y="-20"/>
      <point x="727" y="0"/>
      <point x="727" y="51" type="curve" smooth="yes"/>
      <point x="727" y="72"/>
      <point x="720" y="95"/>
      <point x="708" y="116" type="curve"/>
      <point x="701" y="110"/>
      <point x="675" y="103"/>
      <point x="648" y="103" type="curve" smooth="yes"/>
      <point x="603" y="103"/>
      <point x="555" y="117"/>
      <point x="499" y="153" type="curve" smooth="yes"/>
      <point x="370" y="237"/>
      <point x="272" y="409"/>
      <point x="272" y="541" type="curve" smooth="yes"/>
      <point x="272" y="586"/>
      <point x="284" y="611"/>
      <point x="315" y="611" type="curve" smooth="yes"/>
      <point x="364" y="611"/>
      <point x="378" y="565"/>
      <point x="378" y="516" type="curve" smooth="yes"/>
      <point x="378" y="497"/>
      <point x="376" y="483"/>
      <point x="372" y="465" type="curve"/>
      <point x="387" y="460"/>
      <point x="407" y="458"/>
      <point x="421" y="458" type="curve" smooth="yes"/>
      <point x="480" y="458"/>
      <point x="537" y="490"/>
      <point x="537" y="554" type="curve" smooth="yes"/>
      <point x="537" y="649"/>
      <point x="423" y="680"/>
      <point x="328" y="680" type="curve" smooth="yes"/>
    </contour>
    <contour>
      <point x="482" y="391"/>
      <point x="455" y="384"/>
      <point x="439" y="372" type="curve"/>
      <point x="469" y="344"/>
      <point x="479" y="298"/>
      <point x="479" y="250" type="curve" smooth="yes"/>
      <point x="479" y="134"/>
      <point x="459" y="63"/>
      <point x="344" y="63" type="curve" smooth="yes"/>
      <point x="240" y="63"/>
      <point x="189" y="134"/>
      <point x="189" y="238" type="curve" smooth="yes"/>
      <point x="189" y="256"/>
      <point x="193" y="287"/>
      <point x="200" y="298" type="curve"/>
      <point x="170" y="358" type="line"/>
      <point x="80" y="339"/>
      <point x="20" y="281"/>
      <point x="20" y="192" type="curve" smooth="yes"/>
      <point x="20" y="46"/>
      <point x="156" y="-20"/>
      <point x="306" y="-20" type="curve" smooth="yes"/>
      <point x="489" y="-20"/>
      <point x="634" y="85"/>
      <point x="634" y="267" type="curve" smooth="yes"/>
      <point x="634" y="347"/>
      <point x="587" y="391"/>
      <point x="507" y="391" type="curve" smooth="yes"/>
    </contour>
  </outline>
</glyph>
<glyph name="quotesingle" format="1">
  <advance width="201"/>
  <unicode hex="0027"/>
  <outline>
    <contour>
      <point x="118" y="461" type="line"/>
      <point x="151" y="499"/>
      <point x="176" y="576"/>
      <point x="176" y="626" type="curve" smooth="yes"/>
      <point x="176" y="698"/>
      <point x="141" y="730"/>
      <point x="69" y="730" type="curve" smooth="yes"/>
      <point x="52" y="730"/>
      <point x="30" y="727"/>
      <point x="13" y="724" type="curve"/>
      <point x="33" y="645"/>
      <point x="37" y="531"/>
      <point x="22" y="461" type="curve"/>
    </contour>
  </outline>
</glyph>
<glyph name="parenleft" format="1">
  <advance width="328"/>
  <unicode hex="0028"/>
  <outline>
    <contour>
      <point x="175" y="800"/>
      <point x="52" y="592"/>
      <point x="52" y="300" type="curve" smooth="yes"/>
      <point x="52" y="8"/>
      <point x="175" y="-200"/>
      <point x="324" y="-200" type="curve" smooth="yes"/>
      <point x="348" y="-200"/>
      <point x="365" y="-194"/>
      <point x="378" y="-180" type="curve"/>
      <point x="248" y="-88"/>
      <point x="201" y="107"/>
      <point x="201" y="300" type="curve" smooth="yes"/>
      <point x="201" y="493"/>
      <point x="248" y="688"/>
      <point x="378" y="780" type="curve"/>
      <point x="365" y="794"/>
      <point x="348" y="800"/>
      <point x="324" y="800" type="curve" smooth="yes"/>
    </contour>
  </outline>
</glyph>
<glyph name="parenright" format="1">
  <advance width="328"/>
  <unicode hex="0029"/>
  <outline>
    <contour>
      <point x="-20" y="800"/>
      <point x="-37" y="794"/>
      <point x="-50" y="780" type="curve"/>
      <point x="80" y="688"/>
      <point x="127" y="493"/>
      <point x="127" y="300" type="curve" smooth="yes"/>
      <point x="127" y="107"/>
      <point x="80" y="-88"/>
      <point x="-50" y="-180" type="curve"/>
      <point x="-37" y="-194"/>
      <point x="-20" y="-200"/>
      <point x="4" y="-200" type="curve" smooth="yes"/>
      <point x="153" y="-200"/>
      <point x="276" y="8"/>
      <point x="276" y="300" type="curve" smooth="yes"/>
      <point x="276" y="592"/>
      <point x="153" y="800"/>
      <point x="4" y="800" type="curve" smooth="yes"/>
    </contour>
  </outline>
</glyph>
<glyph name="asterisk" format="1">
  <advance width="455"/>
  <unicode hex="002A"/>
  <outline>
    <contour>
      <point x="269" y="566" type="line"/>
      <point x="273" y="582"/>
      <point x="275" y="599"/>
      <point x="275" y="614" type="curve" smooth="yes"/>
      <point x="275" y="654"/>
      <point x="265" y="697"/>
      <point x="207" y="697" type="curve" smooth="yes"/>
      <point x="189" y="697"/>
      <point x="170" y="692"/>
      <point x="154" y="683" type="curve"/>
      <point x="169" y="567" type="line"/>
      <point x="154" y="577"/>
      <point x="137" y="584"/>
      <point x="122" y="589" type="curve" smooth="yes"/>
      <point x="84" y="602"/>
      <point x="40" y="605"/>
      <point x="22" y="550" type="curve" smooth="yes"/>
      <point x="17" y="533"/>
      <point x="15" y="514"/>
      <point x="19" y="496" type="curve"/>
      <point x="124" y="477" type="line"/>
      <point x="112" y="466"/>
      <point x="101" y="454"/>
      <point x="93" y="442" type="curve" smooth="yes"/>
      <point x="69" y="410"/>
      <point x="52" y="369"/>
      <point x="99" y="335" type="curve"/>
      <point x="113" y="324"/>
      <point x="132" y="317"/>
      <point x="150" y="315" type="curve"/>
      <point x="214" y="433" type="line"/>
      <point x="222" y="410"/>
      <point x="232" y="390"/>
      <point x="244" y="373" type="curve" smooth="yes"/>
      <point x="268" y="340"/>
      <point x="301" y="311"/>
      <point x="348" y="345" type="curve" smooth="yes"/>
      <point x="363" y="356"/>
      <point x="375" y="371"/>
      <point x="383" y="388" type="curve"/>
      <point x="305" y="470" type="line"/>
      <point x="319" y="471"/>
      <point x="332" y="474"/>
      <point x="344" y="478" type="curve" smooth="yes"/>
      <point x="382" y="491"/>
      <point x="420" y="513"/>
      <point x="402" y="569" type="curve" smooth="yes"/>
      <point x="396" y="586"/>
      <point x="386" y="602"/>
      <point x="372" y="615" type="curve"/>
    </contour>
  </outline>
</glyph>
<glyph name="plus" format="1">
  <advance width="620"/>
  <unicode hex="002B"/>
  <outline>
    <contour>
      <point x="275" y="464"/>
      <point x="255" y="436"/>
      <point x="255" y="396" type="curve" smooth="yes"/>
      <point x="255" y="17" type="line"/>
      <point x="268" y="11"/>
      <point x="286" y="7"/>
      <point x="303" y="7" type="curve" smooth="yes"/>
      <point x="344" y="7"/>
      <point x="365" y="35"/>
      <point x="365" y="75" type="curve" smooth="yes"/>
      <point x="365" y="454" type="line"/>
      <point x="352" y="460"/>
      <point x="333" y="464"/>
      <point x="316" y="464" type="curve" smooth="yes"/>
    </contour>
    <contour>
      <point x="160" y="290" type="line" smooth="yes"/>
      <point x="123" y="290"/>
      <point x="98" y="272"/>
      <point x="98" y="235" type="curve" smooth="yes"/>
      <point x="98" y="219"/>
      <point x="103" y="203"/>
      <point x="109" y="191" type="curve"/>
      <point x="460" y="191" type="line" smooth="yes"/>
      <point x="497" y="191"/>
      <point x="522" y="209"/>
      <point x="522" y="246" type="curve" smooth="yes"/>
      <point x="522" y="262"/>
      <point x="517" y="278"/>
      <point x="511" y="290" type="curve"/>
    </contour>
  </outline>
</glyph>
<glyph name="comma" format="1">
  <advance width="249"/>
  <unicode hex="002C"/>
  <outline>
    <contour>
      <point x="89" y="139"/>
      <point x="54" y="131"/>
      <point x="40" y="120" type="curve"/>
      <point x="59" y="85"/>
      <point x="67" y="49"/>
      <point x="67" y="10" type="curve" smooth="yes"/>
      <point x="67" y="-42"/>
      <point x="50" y="-86"/>
      <point x="20" y="-129" type="curve"/>
      <point x="34" y="-133"/>
      <point x="50" y="-135"/>
      <point x="65" y="-135" type="curve" smooth="yes"/>
      <point x="153" y="-135"/>
      <point x="229" y="-60"/>
      <point x="229" y="28" type="curve" smooth="yes"/>
      <point x="229" y="102"/>
      <point x="189" y="139"/>
      <point x="115" y="139" type="curve" smooth="yes"/>
    </contour>
  </outline>
</glyph>
<glyph name="period" format="1">
  <advance width="252"/>
  <unicode hex="002E"/>
  <outline>
    <contour>
      <point x="68" y="140"/>
      <point x="19" y="111"/>
      <point x="19" y="58" type="curve" smooth="yes"/>
      <point x="19" y="7"/>
      <point x="64" y="-20"/>
      <point x="126" y="-20" type="curve" smooth="yes"/>
      <point x="188" y="-20"/>
      <point x="235" y="7"/>
      <point x="235" y="60" type="curve" smooth="yes"/>
      <point x="235" y="111"/>
      <point x="192" y="140"/>
      <point x="130" y="140" type="curve" smooth="yes"/>
    </contour>
  </outline>
</glyph>
<glyph name="slash" format="1">
  <advance width="340"/>
  <unicode hex="002F"/>
  <outline>
    <contour>
      <point x="212" y="801"/>
      <point x="199" y="800"/>
      <point x="187" y="798" type="curve"/>
      <point x="31" y="-90" type="line" smooth="yes"/>
      <point x="28" y="-105"/>
      <point x="26" y="-119"/>
      <point x="26" y="-135" type="curve" smooth="yes"/>
      <point x="26" y="-183"/>
      <point x="64" y="-200"/>
      <point x="113" y="-200" type="curve" smooth="yes"/>
      <point x="128" y="-200"/>
      <point x="141" y="-199"/>
      <point x="153" y="-197" type="curve"/>
      <point x="309" y="691" type="line" smooth="yes"/>
      <point x="312" y="706"/>
      <point x="314" y="720"/>
      <point x="314" y="735" type="curve" smooth="yes"/>
      <point x="314" y="784"/>
      <point x="276" y="801"/>
      <point x="227" y="801" type="curve" smooth="yes"/>
    </contour>
  </outline>
</glyph>
<glyph name="zero" format="1">
  <advance width="620"/>
  <unicode hex="0030"/>
  <outline>
    <contour>
      <point x="115" y="680"/>
      <point x="20" y="541"/>
      <point x="20" y="326" type="curve" smooth="yes"/>
      <point x="20" y="118"/>
      <point x="122" y="-22"/>
      <point x="310" y="-22" type="curve" smooth="yes"/>
      <point x="502" y="-22"/>
      <point x="600" y="127"/>
      <point x="600" y="339" type="curve" smooth="yes"/>
      <point x="600" y="554"/>
      <point x="505" y="680"/>
      <point x="310" y="680" type="curve" smooth="yes"/>
    </contour>
    <contour>
      <point x="249" y="52"/>
      <point x="234" y="179"/>
      <point x="234" y="333" type="curve" smooth="yes"/>
      <point x="234" y="487"/>
      <point x="249" y="606"/>
      <point x="310" y="606" type="curve" smooth="yes"/>
      <point x="371" y="606"/>
      <point x="386" y="487"/>
      <point x="386" y="333" type="curve" smooth="yes"/>
      <point x="386" y="179"/>
      <point x="371" y="52"/>
      <point x="310" y="52" type="curve" smooth="yes"/>
    </contour>
  </outline>
</glyph>
<glyph name="one" format="1">
  <advance width="620"/>
  <unicode hex="0031"/>
  <outline>
    <contour>
      <point x="456" y="655" type="line"/>
      <point x="404" y="680" type="line"/>
      <point x="290" y="620"/>
      <point x="159" y="575"/>
      <point x="33" y="539" type="curve"/>
      <point x="33" y="472"/>
      <point x="57" y="439"/>
      <point x="117" y="439" type="curve" smooth="yes"/>
      <point x="182" y="439"/>
      <point x="251" y="483"/>
      <point x="270" y="510" type="curve"/>
      <point x="244" y="527" type="line"/>
      <point x="244" y="90" type="line"/>
      <point x="84" y="90" type="line"/>
      <point x="84" y="0" type="line"/>
      <point x="596" y="0" type="line"/>
      <point x="596" y="90" type="line"/>
      <point x="456" y="90" type="line"/>
    </contour>
  </outline>
</glyph>
<glyph name="two" format="1">
  <advance width="620"/>
  <unicode hex="0032"/>
  <outline>
    <contour>
      <point x="161" y="680"/>
      <point x="38" y="640"/>
      <point x="38" y="532" type="curve" smooth="yes"/>
      <point x="38" y="501"/>
      <point x="51" y="476"/>
      <point x="77" y="460" type="curve"/>
      <point x="107" y="511"/>
      <point x="144" y="544"/>
      <point x="203" y="544" type="curve" smooth="yes"/>
      <point x="292" y="544"/>
      <point x="346" y="508"/>
      <point x="346" y="429" type="curve" smooth="yes"/>
      <point x="346" y="329"/>
      <point x="233" y="227"/>
      <point x="119" y="142" type="curve" smooth="yes"/>
      <point x="93" y="117"/>
      <point x="66" y="94"/>
      <point x="41" y="73" type="curve"/>
      <point x="48" y="0" type="line"/>
      <point x="575" y="0" type="line"/>
      <point x="575" y="144" type="line"/>
      <point x="258" y="134" type="line"/>
      <point x="291" y="154"/>
      <point x="330" y="177"/>
      <point x="366" y="201" type="curve" smooth="yes"/>
      <point x="465" y="267"/>
      <point x="558" y="359"/>
      <point x="558" y="480" type="curve" smooth="yes"/>
      <point x="558" y="616"/>
      <point x="435" y="680"/>
      <point x="269" y="680" type="curve" smooth="yes"/>
    </contour>
  </outline>
</glyph>
<glyph name="three" format="1">
  <advance width="620"/>
  <unicode hex="0033"/>
  <outline>
    <contour>
      <point x="189" y="680"/>
      <point x="66" y="640"/>
      <point x="66" y="532" type="curve" smooth="yes"/>
      <point x="70" y="501"/>
      <point x="82" y="476"/>
      <point x="105" y="460" type="curve"/>
      <point x="138" y="511"/>
      <point x="173" y="544"/>
      <point x="231" y="544" type="curve" smooth="yes"/>
      <point x="301" y="544"/>
      <point x="364" y="519"/>
      <point x="364" y="464" type="curve" smooth="yes"/>
      <point x="364" y="387"/>
      <point x="280" y="374"/>
      <point x="203" y="374" type="curve"/>
      <point x="203" y="298" type="line"/>
      <point x="218" y="299"/>
      <point x="237" y="300"/>
      <point x="253" y="300" type="curve" smooth="yes"/>
      <point x="317" y="300"/>
      <point x="358" y="274"/>
      <point x="358" y="210" type="curve" smooth="yes"/>
      <point x="358" y="148"/>
      <point x="303" y="114"/>
      <point x="223" y="114" type="curve" smooth="yes"/>
      <point x="164" y="114"/>
      <point x="114" y="137"/>
      <point x="84" y="188" type="curve"/>
      <point x="66" y="173"/>
      <point x="58" y="150"/>
      <point x="58" y="126" type="curve" smooth="yes"/>
      <point x="58" y="18"/>
      <point x="171" y="-22"/>
      <point x="269" y="-22" type="curve" smooth="yes"/>
      <point x="453" y="-22"/>
      <point x="570" y="55"/>
      <point x="570" y="196" type="curve" smooth="yes"/>
      <point x="570" y="297"/>
      <point x="515" y="347"/>
      <point x="415" y="363" type="curve"/>
      <point x="487" y="388"/>
      <point x="536" y="444"/>
      <point x="536" y="520" type="curve" smooth="yes"/>
      <point x="536" y="637"/>
      <point x="432" y="680"/>
      <point x="297" y="680" type="curve" smooth="yes"/>
    </contour>
  </outline>
</glyph>
<glyph name="four" format="1">
  <advance width="620"/>
  <unicode hex="0034"/>
  <outline>
    <contour>
      <point x="307" y="660" type="line"/>
      <point x="33" y="256" type="line" smooth="yes"/>
      <point x="17" y="233"/>
      <point x="5" y="206"/>
      <point x="5" y="178" type="curve" smooth="yes"/>
      <point x="5" y="151"/>
      <point x="13" y="133"/>
      <point x="28" y="121" type="curve"/>
      <point x="299" y="121" type="line"/>
      <point x="299" y="0" type="line"/>
      <point x="521" y="0" type="line"/>
      <point x="521" y="121" type="line"/>
      <point x="617" y="121" type="line"/>
      <point x="626" y="250" type="line"/>
      <point x="520" y="250" type="line"/>
      <point x="520" y="660" type="line"/>
    </contour>
    <contour>
      <point x="305" y="250" type="line"/>
      <point x="133" y="250" type="line"/>
      <point x="305" y="513" type="line"/>
    </contour>
  </outline>
</glyph>
<glyph name="five" format="1">
  <advance width="620"/>
  <unicode hex="0035"/>
  <outline>
    <contour>
      <point x="105" y="660" type="line"/>
      <point x="69" y="308" type="line"/>
      <point x="99" y="310"/>
      <point x="158" y="312"/>
      <point x="192" y="312" type="curve" smooth="yes"/>
      <point x="289" y="312"/>
      <point x="364" y="298"/>
      <point x="364" y="210" type="curve" smooth="yes"/>
      <point x="364" y="148"/>
      <point x="300" y="114"/>
      <point x="231" y="114" type="curve" smooth="yes"/>
      <point x="145" y="114"/>
      <point x="92" y="137"/>
      <point x="69" y="188" type="curve"/>
      <point x="51" y="173"/>
      <point x="43" y="150"/>
      <point x="43" y="126" type="curve" smooth="yes"/>
      <point x="43" y="18"/>
      <point x="166" y="-22"/>
      <point x="274" y="-22" type="curve" smooth="yes"/>
      <point x="449" y="-22"/>
      <point x="576" y="65"/>
      <point x="576" y="215" type="curve" smooth="yes"/>
      <point x="576" y="365"/>
      <point x="474" y="422"/>
      <point x="303" y="422" type="curve" smooth="yes"/>
      <point x="267" y="422"/>
      <point x="215" y="420"/>
      <point x="178" y="416" type="curve"/>
      <point x="189" y="516" type="line"/>
      <point x="521" y="516" type="line"/>
      <point x="511" y="660" type="line"/>
    </contour>
  </outline>
</glyph>
<glyph name="six" format="1">
  <advance width="620"/>
  <unicode hex="0036"/>
  <outline>
    <contour>
      <point x="129" y="680"/>
      <point x="25" y="512"/>
      <point x="25" y="302" type="curve" smooth="yes"/>
      <point x="25" y="114"/>
      <point x="141" y="-22"/>
      <point x="329" y="-22" type="curve" smooth="yes"/>
      <point x="488" y="-22"/>
      <point x="603" y="69"/>
      <point x="603" y="228" type="curve" smooth="yes"/>
      <point x="603" y="318"/>
      <point x="564" y="438"/>
      <point x="409" y="438" type="curve" smooth="yes"/>
      <point x="351" y="438"/>
      <point x="298" y="424"/>
      <point x="254" y="385" type="curve"/>
      <point x="254" y="498"/>
      <point x="283" y="551"/>
      <point x="396" y="551" type="curve" smooth="yes"/>
      <point x="440" y="551"/>
      <point x="501" y="538"/>
      <point x="537" y="512" type="curve"/>
      <point x="554" y="527"/>
      <point x="562" y="548"/>
      <point x="562" y="573" type="curve" smooth="yes"/>
      <point x="562" y="652"/>
      <point x="439" y="680"/>
      <point x="360" y="680" type="curve" smooth="yes"/>
    </contour>
    <contour>
      <point x="395" y="354"/>
      <point x="405" y="271"/>
      <point x="405" y="205" type="curve" smooth="yes"/>
      <point x="405" y="139"/>
      <point x="395" y="52"/>
      <point x="329" y="52" type="curve" smooth="yes"/>
      <point x="263" y="52"/>
      <point x="253" y="139"/>
      <point x="253" y="205" type="curve" smooth="yes"/>
      <point x="253" y="271"/>
      <point x="263" y="354"/>
      <point x="329" y="354" type="curve" smooth="yes"/>
    </contour>
  </outline>
</glyph>
<glyph name="seven" format="1">
  <advance width="620"/>
  <unicode hex="0037"/>
  <outline>
    <contour>
      <point x="39" y="660" type="line"/>
      <point x="39" y="506" type="line"/>
      <point x="386" y="526" type="line"/>
      <point x="101" y="1" type="line"/>
      <point x="328" y="-23" type="line"/>
      <point x="593" y="587" type="line"/>
      <point x="586" y="660" type="line"/>
    </contour>
  </outline>
</glyph>
<glyph name="eight" format="1">
  <advance width="620"/>
  <unicode hex="0038"/>
  <outline>
    <contour>
      <point x="544" y="636"/>
      <point x="429" y="680"/>
      <point x="313" y="680" type="curve" smooth="yes"/>
      <point x="180" y="680"/>
      <point x="56" y="637"/>
      <point x="56" y="504" type="curve" smooth="yes"/>
      <point x="56" y="428"/>
      <point x="108" y="370"/>
      <point x="172" y="329" type="curve"/>
      <point x="103" y="294"/>
      <point x="33" y="243"/>
      <point x="33" y="169" type="curve" smooth="yes"/>
      <point x="33" y="30"/>
      <point x="167" y="-22"/>
      <point x="306" y="-22" type="curve" smooth="yes"/>
      <point x="449" y="-22"/>
      <point x="587" y="31"/>
      <point x="587" y="174" type="curve" smooth="yes"/>
      <point x="587" y="271"/>
      <point x="509" y="323"/>
      <point x="422" y="368" type="curve"/>
      <point x="484" y="397"/>
      <point x="544" y="455"/>
      <point x="544" y="523" type="curve" smooth="yes"/>
    </contour>
    <contour>
      <point x="380" y="85"/>
      <point x="357" y="52"/>
      <point x="306" y="52" type="curve" smooth="yes"/>
      <point x="246" y="52"/>
      <point x="217" y="102"/>
      <point x="217" y="162" type="curve" smooth="yes"/>
      <point x="217" y="197"/>
      <point x="228" y="244"/>
      <point x="247" y="277" type="curve"/>
      <point x="317" y="233"/>
      <point x="380" y="192"/>
      <point x="380" y="136" type="curve" smooth="yes"/>
    </contour>
    <contour>
      <point x="246" y="578"/>
      <point x="268" y="606"/>
      <point x="313" y="606" type="curve" smooth="yes"/>
      <point x="360" y="606"/>
      <point x="381" y="570"/>
      <point x="381" y="523" type="curve" smooth="yes"/>
      <point x="381" y="490"/>
      <point x="370" y="442"/>
      <point x="349" y="413" type="curve"/>
      <point x="292" y="449"/>
      <point x="246" y="486"/>
      <point x="246" y="533" type="curve" smooth="yes"/>
    </contour>
  </outline>
</glyph>
<glyph name="nine" format="1">
  <advance width="620"/>
  <unicode hex="0039"/>
  <outline>
    <contour>
      <point x="132" y="680"/>
      <point x="17" y="589"/>
      <point x="17" y="430" type="curve" smooth="yes"/>
      <point x="17" y="340"/>
      <point x="56" y="220"/>
      <point x="211" y="220" type="curve" smooth="yes"/>
      <point x="269" y="220"/>
      <point x="322" y="234"/>
      <point x="366" y="273" type="curve"/>
      <point x="366" y="160"/>
      <point x="337" y="107"/>
      <point x="224" y="107" type="curve" smooth="yes"/>
      <point x="180" y="107"/>
      <point x="119" y="120"/>
      <point x="83" y="146" type="curve"/>
      <point x="66" y="131"/>
      <point x="58" y="110"/>
      <point x="58" y="85" type="curve" smooth="yes"/>
      <point x="58" y="6"/>
      <point x="181" y="-22"/>
      <point x="260" y="-22" type="curve" smooth="yes"/>
      <point x="491" y="-22"/>
      <point x="595" y="146"/>
      <point x="595" y="356" type="curve" smooth="yes"/>
      <point x="595" y="544"/>
      <point x="479" y="680"/>
      <point x="291" y="680" type="curve" smooth="yes"/>
    </contour>
    <contour>
      <point x="357" y="606"/>
      <point x="367" y="519"/>
      <point x="367" y="453" type="curve" smooth="yes"/>
      <point x="367" y="387"/>
      <point x="357" y="304"/>
      <point x="291" y="304" type="curve" smooth="yes"/>
      <point x="225" y="304"/>
      <point x="215" y="387"/>
      <point x="215" y="453" type="curve" smooth="yes"/>
      <point x="215" y="519"/>
      <point x="225" y="606"/>
      <point x="291" y="606" type="curve" smooth="yes"/>
    </contour>
  </outline>
</glyph>
<glyph name="less" format="1">
  <advance width="620"/>
  <unicode hex="003C"/>
  <outline>
    <contour>
      <point x="100" y="238" type="line"/>
      <point x="426" y="6" type="line"/>
      <point x="467" y="6"/>
      <point x="497" y="35"/>
      <point x="497" y="82" type="curve" smooth="yes"/>
      <point x="497" y="105"/>
      <point x="485" y="125"/>
      <point x="467" y="139" type="curve" smooth="yes"/>
      <point x="282" y="270" type="line"/>
    </contour>
    <contour>
      <point x="292" y="240" type="line"/>
      <point x="513" y="417" type="line"/>
      <point x="501" y="461"/>
      <point x="477" y="482"/>
      <point x="441" y="482" type="curve" smooth="yes"/>
      <point x="408" y="482"/>
      <point x="384" y="458"/>
      <point x="358" y="438" type="curve" smooth="yes"/>
      <point x="100" y="238" type="line"/>
    </contour>
  </outline>
</glyph>
<glyph name="equal" format="1">
  <advance width="620"/>
  <unicode hex="003D"/>
  <outline>
    <contour>
      <point x="460" y="264" type="line" smooth="yes"/>
      <point x="497" y="264"/>
      <point x="522" y="282"/>
      <point x="522" y="319" type="curve" smooth="yes"/>
      <point x="522" y="335"/>
      <point x="517" y="351"/>
      <point x="511" y="363" type="curve"/>
      <point x="160" y="363" type="line" smooth="yes"/>
      <point x="123" y="363"/>
      <point x="98" y="345"/>
      <point x="98" y="308" type="curve" smooth="yes"/>
      <point x="98" y="292"/>
      <point x="103" y="276"/>
      <point x="109" y="264" type="curve"/>
    </contour>
    <contour>
      <point x="460" y="88" type="line" smooth="yes"/>
      <point x="497" y="88"/>
      <point x="522" y="106"/>
      <point x="522" y="143" type="curve" smooth="yes"/>
      <point x="522" y="159"/>
      <point x="517" y="175"/>
      <point x="511" y="187" type="curve"/>
      <point x="160" y="187" type="line" smooth="yes"/>
      <point x="123" y="187"/>
      <point x="98" y="169"/>
      <point x="98" y="132" type="curve" smooth="yes"/>
      <point x="98" y="116"/>
      <point x="103" y="100"/>
      <point x="109" y="88" type="curve"/>
    </contour>
  </outline>
</glyph>
<glyph name="greater" format="1">
  <advance width="620"/>
  <unicode hex="003E"/>
  <outline>
    <contour>
      <point x="332" y="252" type="line"/>
      <point x="107" y="71" type="line"/>
      <point x="119" y="27"/>
      <point x="143" y="6"/>
      <point x="179" y="6" type="curve" smooth="yes"/>
      <point x="212" y="6"/>
      <point x="237" y="30"/>
      <point x="263" y="50" type="curve" smooth="yes"/>
      <point x="520" y="250" type="line"/>
    </contour>
    <contour>
      <point x="520" y="250" type="line"/>
      <point x="194" y="482" type="line"/>
      <point x="153" y="482"/>
      <point x="123" y="457"/>
      <point x="123" y="416" type="curve" smooth="yes"/>
      <point x="123" y="393"/>
      <point x="134" y="372"/>
      <point x="153" y="359" type="curve" smooth="yes"/>
      <point x="342" y="232" type="line"/>
    </contour>
  </outline>
</glyph>
<glyph name="question" format="1">
  <advance width="506"/>
  <unicode hex="003F"/>
  <outline>
    <contour>
      <point x="123" y="680"/>
      <point x="2" y="653"/>
      <point x="2" y="555" type="curve" smooth="yes"/>
      <point x="2" y="483"/>
      <point x="58" y="452"/>
      <point x="126" y="452" type="curve" smooth="yes"/>
      <point x="141" y="452"/>
      <point x="162" y="454"/>
      <point x="178" y="459" type="curve"/>
      <point x="174" y="481"/>
      <point x="172" y="502"/>
      <point x="172" y="524" type="curve" smooth="yes"/>
      <point x="172" y="572"/>
      <point x="184" y="620"/>
      <point x="233" y="620" type="curve" smooth="yes"/>
      <point x="278" y="620"/>
      <point x="292" y="585"/>
      <point x="292" y="540" type="curve" smooth="yes"/>
      <point x="292" y="427"/>
      <point x="146" y="367"/>
      <point x="146" y="274" type="curve" smooth="yes"/>
      <point x="146" y="231"/>
      <point x="171" y="200"/>
      <point x="214" y="200" type="curve" smooth="yes"/>
      <point x="228" y="200"/>
      <point x="249" y="203"/>
      <point x="257" y="209" type="curve"/>
      <point x="257" y="322"/>
      <point x="486" y="364"/>
      <point x="486" y="520" type="curve" smooth="yes"/>
      <point x="486" y="650"/>
      <point x="366" y="680"/>
      <point x="236" y="680" type="curve" smooth="yes"/>
    </contour>
    <component base="period" xOffset="85"/>
  </outline>
</glyph>
<glyph name="at" format="1">
  <advance width="798"/>
  <unicode hex="0040"/>
  <outline>
    <contour>
      <point x="170" y="601"/>
      <point x="28" y="455"/>
      <point x="28" y="248" type="curve" smooth="yes"/>
      <point x="28" y="28"/>
      <point x="173" y="-98"/>
      <point x="393" y="-98" type="curve" smooth="yes"/>
      <point x="483" y="-98"/>
      <point x="593" y="-71"/>
      <point x="593" y="-14" type="curve" smooth="yes"/>
      <point x="593" y="0"/>
      <point x="587" y="13"/>
      <point x="576" y="20" type="curve"/>
      <point x="529" y="-18"/>
      <point x="462" y="-26"/>
      <point x="402" y="-26" type="curve" smooth="yes"/>
      <point x="221" y="-26"/>
      <point x="132" y="67"/>
      <point x="132" y="248" type="curve" smooth="yes"/>
      <point x="132" y="427"/>
      <point x="220" y="534"/>
      <point x="399" y="534" type="curve" smooth="yes"/>
      <point x="585" y="534"/>
      <point x="667" y="447"/>
      <point x="667" y="261" type="curve" smooth="yes"/>
      <point x="667" y="174"/>
      <point x="662" y="108"/>
      <point x="611" y="108" type="curve" smooth="yes"/>
      <point x="581" y="108"/>
      <point x="578" y="137"/>
      <point x="578" y="167" type="curve" smooth="yes"/>
      <point x="578" y="322" type="line" smooth="yes"/>
      <point x="578" y="430"/>
      <point x="510" y="455"/>
      <point x="403" y="455" type="curve" smooth="yes"/>
      <point x="334" y="455"/>
      <point x="232" y="439"/>
      <point x="232" y="367" type="curve" smooth="yes"/>
      <point x="232" y="324"/>
      <point x="271" y="308"/>
      <point x="314" y="308" type="curve" smooth="yes"/>
      <point x="323" y="308"/>
      <point x="346" y="309"/>
      <point x="353" y="314" type="curve"/>
      <point x="352" y="325"/>
      <point x="351" y="339"/>
      <point x="351" y="351" type="curve" smooth="yes"/>
      <point x="351" y="390"/>
      <point x="361" y="411"/>
      <point x="395" y="411" type="curve" smooth="yes"/>
      <point x="428" y="411"/>
      <point x="433" y="385"/>
      <point x="433" y="351" type="curve" smooth="yes"/>
      <point x="433" y="287" type="line"/>
      <point x="327" y="287"/>
      <point x="209" y="274"/>
      <point x="209" y="173" type="curve" smooth="yes"/>
      <point x="209" y="99"/>
      <point x="279" y="67"/>
      <point x="353" y="67" type="curve" smooth="yes"/>
      <point x="413" y="67"/>
      <point x="452" y="92"/>
      <point x="465" y="128" type="curve"/>
      <point x="486" y="75"/>
      <point x="533" y="61"/>
      <point x="591" y="61" type="curve" smooth="yes"/>
      <point x="728" y="61"/>
      <point x="770" y="149"/>
      <point x="770" y="286" type="curve" smooth="yes"/>
      <point x="770" y="497"/>
      <point x="610" y="601"/>
      <point x="399" y="601" type="curve" smooth="yes"/>
    </contour>
    <contour>
      <point x="433" y="189" type="line" smooth="yes"/>
      <point x="433" y="158"/>
      <point x="423" y="124"/>
      <point x="392" y="124" type="curve" smooth="yes"/>
      <point x="363" y="124"/>
      <point x="352" y="148"/>
      <point x="352" y="177" type="curve" smooth="yes"/>
      <point x="352" y="227"/>
      <point x="383" y="245"/>
      <point x="433" y="245" type="curve"/>
    </contour>
  </outline>
</glyph>
<glyph name="A" format="1">
  <advance width="588"/>
  <unicode hex="0041"/>
  <outline>
    <contour>
      <point x="173" y="660" type="line"/>
      <point x="-7" y="0" type="line"/>
      <point x="123" y="0" type="line"/>
      <point x="159" y="158" type="line"/>
      <point x="333" y="158" type="line"/>
      <point x="370" y="0" type="line"/>
      <point x="587" y="0" type="line"/>
      <point x="420" y="660" type="line"/>
    </contour>
    <contour>
      <point x="245" y="539" type="line"/>
      <point x="314" y="242" type="line"/>
      <point x="178" y="242" type="line"/>
    </contour>
    <contour>
      <point x="600" y="10" type="move" name="ogonek"/>
    </contour>
    <contour>
      <point x="294" y="660" type="move" name="top"/>
    </contour>
    <contour>
      <point x="296" y="720" type="move" name="topcase"/>
    </contour>
  </outline>
</glyph>
<glyph name="B" format="1">
  <advance width="622"/>
  <unicode hex="0042"/>
  <outline>
    <contour>
      <point x="555" y="640"/>
      <point x="436" y="665"/>
      <point x="304" y="665" type="curve" smooth="yes"/>
      <point x="224" y="665"/>
      <point x="130" y="660"/>
      <point x="50" y="653" type="curve"/>
      <point x="50" y="4" type="line"/>
      <point x="138" y="-5"/>
      <point x="217" y="-10"/>
      <point x="300" y="-10" type="curve" smooth="yes"/>
      <point x="451" y="-10"/>
      <point x="608" y="42"/>
      <point x="608" y="193" type="curve" smooth="yes"/>
      <point x="608" y="296"/>
      <point x="546" y="355"/>
      <point x="444" y="373" type="curve"/>
      <point x="508" y="392"/>
      <point x="555" y="442"/>
      <point x="555" y="508" type="curve" smooth="yes"/>
    </contour>
    <contour>
      <point x="262" y="316" type="line"/>
      <point x="271" y="317"/>
      <point x="281" y="318"/>
      <point x="290" y="318" type="curve" smooth="yes"/>
      <point x="371" y="318"/>
      <point x="400" y="271"/>
      <point x="400" y="190" type="curve" smooth="yes"/>
      <point x="400" y="119"/>
      <point x="375" y="64"/>
      <point x="304" y="64" type="curve" smooth="yes"/>
      <point x="291" y="64"/>
      <point x="275" y="66"/>
      <point x="262" y="70" type="curve"/>
    </contour>
    <contour>
      <point x="262" y="585" type="line"/>
      <point x="276" y="589"/>
      <point x="290" y="591"/>
      <point x="304" y="591" type="curve" smooth="yes"/>
      <point x="361" y="591"/>
      <point x="382" y="555"/>
      <point x="382" y="498" type="curve" smooth="yes"/>
      <point x="382" y="432"/>
      <point x="356" y="385"/>
      <point x="290" y="385" type="curve" smooth="yes"/>
      <point x="281" y="385"/>
      <point x="271" y="386"/>
      <point x="262" y="388" type="curve"/>
    </contour>
  </outline>
</glyph>
<glyph name="C" format="1">
  <advance width="587"/>
  <unicode hex="0043"/>
  <outline>
    <contour>
      <point x="391" y="606"/>
      <point x="401" y="551"/>
      <point x="401" y="494" type="curve" smooth="yes"/>
      <point x="401" y="474"/>
      <point x="399" y="459"/>
      <point x="395" y="439" type="curve"/>
      <point x="411" y="434"/>
      <point x="432" y="432"/>
      <point x="447" y="432" type="curve" smooth="yes"/>
      <point x="515" y="432"/>
      <point x="571" y="473"/>
      <point x="571" y="545" type="curve" smooth="yes"/>
      <point x="571" y="652"/>
      <point x="455" y="680"/>
      <point x="348" y="680" type="curve" smooth="yes"/>
      <point x="126" y="680"/>
      <point x="20" y="548"/>
      <point x="20" y="326" type="curve" smooth="yes"/>
      <point x="20" y="132"/>
      <point x="114" y="-22"/>
      <point x="342" y="-22" type="curve" smooth="yes"/>
      <point x="450" y="-22"/>
      <point x="573" y="28"/>
      <point x="573" y="136" type="curve" smooth="yes"/>
      <point x="573" y="167"/>
      <point x="560" y="192"/>
      <point x="534" y="208" type="curve"/>
      <point x="503" y="154"/>
      <point x="460" y="124"/>
      <point x="398" y="124" type="curve" smooth="yes"/>
      <point x="281" y="124"/>
      <point x="248" y="227"/>
      <point x="248" y="364" type="curve" smooth="yes"/>
      <point x="248" y="447"/>
      <point x="251" y="606"/>
      <point x="334" y="606" type="curve" smooth="yes"/>
    </contour>
    <contour>
      <point x="332" y="660" type="move" name="top"/>
    </contour>
    <contour>
      <point x="342" y="0" type="move" name="bottom"/>
    </contour>
    <contour>
      <point x="334" y="700" type="move" name="topcase"/>
    </contour>
  </outline>
</glyph>
<glyph name="D" format="1">
  <advance width="662"/>
  <unicode hex="0044"/>
  <outline>
    <contour>
      <point x="50" y="4" type="line"/>
      <point x="138" y="-5"/>
      <point x="217" y="-10"/>
      <point x="300" y="-10" type="curve" smooth="yes"/>
      <point x="526" y="-10"/>
      <point x="642" y="113"/>
      <point x="642" y="339" type="curve" smooth="yes"/>
      <point x="642" y="561"/>
      <point x="536" y="665"/>
      <point x="314" y="665" type="curve" smooth="yes"/>
      <point x="234" y="665"/>
      <point x="130" y="660"/>
      <point x="50" y="653" type="curve"/>
    </contour>
    <contour>
      <point x="296" y="64"/>
      <point x="280" y="66"/>
      <point x="262" y="71" type="curve"/>
      <point x="262" y="583" type="line"/>
      <point x="283" y="589"/>
      <point x="293" y="591"/>
      <point x="314" y="591" type="curve" smooth="yes"/>
      <point x="402" y="591"/>
      <point x="414" y="454"/>
      <point x="414" y="333" type="curve" smooth="yes"/>
      <point x="414" y="212"/>
      <point x="402" y="64"/>
      <point x="314" y="64" type="curve" smooth="yes"/>
    </contour>
    <contour>
      <point x="306" y="0" type="move" name="bottom"/>
    </contour>
    <contour>
      <point x="314" y="700" type="move" name="topcase"/>
    </contour>
    <contour>
      <point x="315" y="665" type="move" name="top"/>
    </contour>
    <contour>
      <point x="331" y="330" type="move" name="center"/>
    </contour>
  </outline>
</glyph>
<glyph name="E" format="1">
  <advance width="456"/>
  <unicode hex="0045"/>
  <outline>
    <contour>
      <point x="50" y="660" type="line"/>
      <point x="50" y="0" type="line"/>
      <point x="447" y="0" type="line"/>
      <point x="455" y="84" type="line"/>
      <point x="262" y="84" type="line"/>
      <point x="262" y="297" type="line"/>
      <point x="410" y="297" type="line"/>
      <point x="410" y="381" type="line"/>
      <point x="262" y="381" type="line"/>
      <point x="262" y="576" type="line"/>
      <point x="440" y="576" type="line"/>
      <point x="440" y="660" type="line"/>
    </contour>
    <contour>
      <point x="245" y="700" type="move" name="topcase"/>
    </contour>
    <contour>
      <point x="454" y="10" type="move" name="ogonek"/>
    </contour>
    <contour>
      <point x="246" y="660" type="move" name="top"/>
    </contour>
    <contour>
      <point x="228" y="0" type="move" name="bottom"/>
    </contour>
  </outline>
</glyph>
<glyph name="F" format="1">
  <advance width="441"/>
  <unicode hex="0046"/>
  <outline>
    <contour>
      <point x="50" y="660" type="line"/>
      <point x="50" y="0" type="line"/>
      <point x="262" y="0" type="line"/>
      <point x="262" y="283" type="line"/>
      <point x="410" y="283" type="line"/>
      <point x="410" y="367" type="line"/>
      <point x="262" y="367" type="line"/>
      <point x="262" y="576" type="line"/>
      <point x="440" y="576" type="line"/>
      <point x="440" y="660" type="line"/>
    </contour>
  </outline>
</glyph>
<glyph name="G" format="1">
  <advance width="609"/>
  <unicode hex="0047"/>
  <outline>
    <contour>
      <point x="403" y="606"/>
      <point x="421" y="553"/>
      <point x="421" y="494" type="curve" smooth="yes"/>
      <point x="421" y="474"/>
      <point x="419" y="459"/>
      <point x="415" y="439" type="curve"/>
      <point x="431" y="434"/>
      <point x="452" y="432"/>
      <point x="467" y="432" type="curve" smooth="yes"/>
      <point x="535" y="432"/>
      <point x="591" y="473"/>
      <point x="591" y="545" type="curve" smooth="yes"/>
      <point x="591" y="657"/>
      <point x="470" y="680"/>
      <point x="358" y="680" type="curve" smooth="yes"/>
      <point x="131" y="680"/>
      <point x="20" y="553"/>
      <point x="20" y="326" type="curve" smooth="yes"/>
      <point x="20" y="132"/>
      <point x="114" y="-22"/>
      <point x="342" y="-22" type="curve" smooth="yes"/>
      <point x="422" y="-22"/>
      <point x="502" y="-11"/>
      <point x="577" y="19" type="curve"/>
      <point x="577" y="21" type="line"/>
      <point x="577" y="317" type="line"/>
      <point x="422" y="303" type="line"/>
      <point x="429" y="111" type="line"/>
      <point x="414" y="106"/>
      <point x="394" y="103"/>
      <point x="377" y="103" type="curve" smooth="yes"/>
      <point x="260" y="103"/>
      <point x="248" y="237"/>
      <point x="248" y="364" type="curve" smooth="yes"/>
      <point x="248" y="452"/>
      <point x="256" y="606"/>
      <point x="344" y="606" type="curve" smooth="yes"/>
    </contour>
    <contour>
      <point x="340" y="660" type="move" name="top"/>
    </contour>
    <contour>
      <point x="377" y="0" type="move" name="bottom"/>
    </contour>
    <contour>
      <point x="345" y="700" type="move" name="topcase"/>
    </contour>
  </outline>
</glyph>
<glyph name="H" format="1">
  <advance width="672"/>
  <unicode hex="0048"/>
  <outline>
    <contour>
      <point x="410" y="660" type="line"/>
      <point x="410" y="376" type="line"/>
      <point x="262" y="376" type="line"/>
      <point x="262" y="660" type="line"/>
      <point x="50" y="660" type="line"/>
      <point x="50" y="0" type="line"/>
      <point x="262" y="0" type="line"/>
      <point x="262" y="292" type="line"/>
      <point x="410" y="292" type="line"/>
      <point x="410" y="0" type="line"/>
      <point x="622" y="0" type="line"/>
      <point x="622" y="660" type="line"/>
    </contour>
    <contour>
      <point x="336" y="330" type="move" name="center"/>
    </contour>
    <contour>
      <point x="329" y="0" type="move" name="bottom"/>
    </contour>
    <contour>
      <point x="336" y="660" type="move" name="top"/>
    </contour>
  </outline>
</glyph>
<glyph name="I" format="1">
  <advance width="312"/>
  <unicode hex="0049"/>
  <outline>
    <contour>
      <point x="50" y="660" type="line"/>
      <point x="50" y="0" type="line"/>
      <point x="262" y="0" type="line"/>
      <point x="262" y="660" type="line"/>
    </contour>
    <contour>
      <point x="156" y="700" type="move" name="topcase"/>
    </contour>
    <contour>
      <point x="268" y="10" type="move" name="ogonek"/>
    </contour>
    <contour>
      <point x="156" y="660" type="move" name="top"/>
    </contour>
    <contour>
      <point x="154" y="0" type="move" name="bottom"/>
    </contour>
  </outline>
</glyph>
<glyph name="J" format="1">
  <advance width="312"/>
  <unicode hex="004A"/>
  <outline>
    <contour>
      <point x="262" y="660" type="line"/>
      <point x="50" y="660" type="line"/>
      <point x="50" y="52" type="line" smooth="yes"/>
      <point x="50" y="-36"/>
      <point x="48" y="-125"/>
      <point x="-40" y="-135" type="curve"/>
      <point x="-20" y="-178"/>
      <point x="37" y="-190"/>
      <point x="84" y="-190" type="curve" smooth="yes"/>
      <point x="228" y="-190"/>
      <point x="262" y="-65"/>
      <point x="262" y="79" type="curve" smooth="yes"/>
    </contour>
    <contour>
      <point x="156" y="660" type="move" name="top"/>
    </contour>
    <contour>
      <point x="156" y="700" type="move" name="topcase"/>
    </contour>
  </outline>
</glyph>
<glyph name="K" format="1">
  <advance width="641"/>
  <unicode hex="004B"/>
  <outline>
    <contour>
      <point x="262" y="660" type="line"/>
      <point x="50" y="660" type="line"/>
      <point x="50" y="0" type="line"/>
      <point x="262" y="0" type="line"/>
    </contour>
    <contour>
      <point x="282" y="334" type="line"/>
      <point x="438" y="0" type="line"/>
      <point x="655" y="0" type="line"/>
      <point x="483" y="353" type="line"/>
      <point x="641" y="660" type="line"/>
      <point x="431" y="660" type="line"/>
    </contour>
    <contour>
      <point x="321" y="660" type="move" name="top"/>
    </contour>
    <contour>
      <point x="348" y="0" type="move" name="bottom"/>
    </contour>
  </outline>
</glyph>
<glyph name="L" format="1">
  <advance width="448"/>
  <unicode hex="004C"/>
  <outline>
    <contour>
      <point x="50" y="0" type="line"/>
      <point x="433" y="0" type="line"/>
      <point x="443" y="90" type="line"/>
      <point x="262" y="90" type="line"/>
      <point x="262" y="660" type="line"/>
      <point x="50" y="660" type="line"/>
    </contour>
    <contour>
      <point x="156" y="700" type="move" name="topcase"/>
    </contour>
    <contour>
      <point x="157" y="660" type="move" name="top"/>
    </contour>
    <contour>
      <point x="380" y="660" type="move" name="topright"/>
    </contour>
    <contour>
      <point x="247" y="0" type="move" name="bottom"/>
    </contour>
  </outline>
</glyph>
<glyph name="M" format="1">
  <advance width="864"/>
  <unicode hex="004D"/>
  <outline>
    <contour>
      <point x="542" y="660" type="line"/>
      <point x="433" y="290" type="line"/>
      <point x="324" y="660" type="line"/>
      <point x="50" y="660" type="line"/>
      <point x="50" y="0" type="line"/>
      <point x="163" y="0" type="line"/>
      <point x="163" y="512" type="line"/>
      <point x="325" y="0" type="line"/>
      <point x="440" y="0" type="line"/>
      <point x="602" y="512" type="line"/>
      <point x="602" y="0" type="line"/>
      <point x="814" y="0" type="line"/>
      <point x="814" y="660" type="line"/>
    </contour>
  </outline>
</glyph>
<glyph name="N" format="1">
  <advance width="666"/>
  <unicode hex="004E"/>
  <outline>
    <contour>
      <point x="616" y="0" type="line"/>
      <point x="616" y="660" type="line"/>
      <point x="503" y="660" type="line"/>
      <point x="503" y="172" type="line"/>
      <point x="297" y="660" type="line"/>
      <point x="50" y="660" type="line"/>
      <point x="50" y="0" type="line"/>
      <point x="163" y="0" type="line"/>
      <point x="163" y="488" type="line"/>
      <point x="369" y="0" type="line"/>
    </contour>
    <contour>
      <point x="333" y="660" type="move" name="top"/>
    </contour>
    <contour>
      <point x="333" y="0" type="move" name="bottom"/>
    </contour>
    <contour>
      <point x="333" y="700" type="move" name="topcase"/>
    </contour>
  </outline>
</glyph>
<glyph name="O" format="1">
  <advance width="668"/>
  <unicode hex="004F"/>
  <outline>
    <contour>
      <point x="119" y="680"/>
      <point x="20" y="541"/>
      <point x="20" y="326" type="curve" smooth="yes"/>
      <point x="20" y="121"/>
      <point x="129" y="-22"/>
      <point x="334" y="-22" type="curve" smooth="yes"/>
      <point x="546" y="-22"/>
      <point x="648" y="127"/>
      <point x="648" y="339" type="curve" smooth="yes"/>
      <point x="648" y="554"/>
      <point x="549" y="680"/>
      <point x="334" y="680" type="curve" smooth="yes"/>
    </contour>
    <contour>
      <point x="253" y="52"/>
      <point x="248" y="219"/>
      <point x="248" y="333" type="curve" smooth="yes"/>
      <point x="248" y="447"/>
      <point x="253" y="606"/>
      <point x="334" y="606" type="curve" smooth="yes"/>
      <point x="415" y="606"/>
      <point x="420" y="447"/>
      <point x="420" y="333" type="curve" smooth="yes"/>
      <point x="420" y="219"/>
      <point x="415" y="52"/>
      <point x="334" y="52" type="curve" smooth="yes"/>
    </contour>
    <contour>
      <point x="334" y="700" type="move" name="topcase"/>
    </contour>
    <contour>
      <point x="461" y="0" type="move" name="ogonek"/>
    </contour>
    <contour>
      <point x="334" y="660" type="move" name="top"/>
    </contour>
    <contour>
      <point x="334" y="0" type="move" name="bottom"/>
    </contour>
  </outline>
</glyph>
<glyph name="P" format="1">
  <advance width="615"/>
  <unicode hex="0050"/>
  <outline>
    <contour>
      <point x="601" y="626"/>
      <point x="465" y="665"/>
      <point x="304" y="665" type="curve" smooth="yes"/>
      <point x="219" y="665"/>
      <point x="140" y="660"/>
      <point x="50" y="651" type="curve"/>
      <point x="50" y="0" type="line"/>
      <point x="262" y="0" type="line"/>
      <point x="262" y="585" type="line"/>
      <point x="275" y="589"/>
      <point x="291" y="591"/>
      <point x="304" y="591" type="curve" smooth="yes"/>
      <point x="375" y="591"/>
      <point x="393" y="533"/>
      <point x="393" y="462" type="curve" smooth="yes"/>
      <point x="393" y="381"/>
      <point x="371" y="337"/>
      <point x="290" y="337" type="curve"/>
      <point x="290" y="280"/>
      <point x="342" y="263"/>
      <point x="399" y="263" type="curve" smooth="yes"/>
      <point x="520" y="263"/>
      <point x="601" y="344"/>
      <point x="601" y="465" type="curve" smooth="yes"/>
    </contour>
  </outline>
</glyph>
<glyph name="Q" format="1">
  <advance width="668"/>
  <unicode hex="0051"/>
  <outline>
    <contour>
      <point x="119" y="680"/>
      <point x="20" y="541"/>
      <point x="20" y="326" type="curve" smooth="yes"/>
      <point x="20" y="168"/>
      <point x="85" y="47"/>
      <point x="208" y="0" type="curve"/>
      <point x="153" y="-1"/>
      <point x="107" y="-10"/>
      <point x="107" y="-65" type="curve" smooth="yes"/>
      <point x="107" y="-83"/>
      <point x="115" y="-102"/>
      <point x="128" y="-116" type="curve"/>
      <point x="151" y="-105"/>
      <point x="183" y="-104"/>
      <point x="208" y="-104" type="curve" smooth="yes"/>
      <point x="322" y="-104"/>
      <point x="433" y="-188"/>
      <point x="546" y="-188" type="curve" smooth="yes"/>
      <point x="601" y="-188"/>
      <point x="642" y="-165"/>
      <point x="642" y="-100" type="curve" smooth="yes"/>
      <point x="642" y="-68"/>
      <point x="630" y="-44"/>
      <point x="615" y="-18" type="curve"/>
      <point x="586" y="-46"/>
      <point x="554" y="-50"/>
      <point x="519" y="-50" type="curve" smooth="yes"/>
      <point x="464" y="-50"/>
      <point x="392" y="-36"/>
      <point x="335" y="-22" type="curve"/>
      <point x="510" y="-20"/>
      <point x="648" y="128"/>
      <point x="648" y="339" type="curve" smooth="yes"/>
      <point x="648" y="554"/>
      <point x="549" y="680"/>
      <point x="334" y="680" type="curve" smooth="yes"/>
    </contour>
    <contour>
      <point x="415" y="606"/>
      <point x="420" y="447"/>
      <point x="420" y="333" type="curve" smooth="yes"/>
      <point x="420" y="219"/>
      <point x="415" y="52"/>
      <point x="334" y="52" type="curve" smooth="yes"/>
      <point x="253" y="52"/>
      <point x="248" y="219"/>
      <point x="248" y="333" type="curve" smooth="yes"/>
      <point x="248" y="447"/>
      <point x="253" y="606"/>
      <point x="334" y="606" type="curve" smooth="yes"/>
    </contour>
  </outline>
</glyph>
<glyph name="R" format="1">
  <advance width="620"/>
  <unicode hex="0052"/>
  <outline>
    <contour>
      <point x="591" y="628"/>
      <point x="467" y="665"/>
      <point x="304" y="665" type="curve" smooth="yes"/>
      <point x="219" y="665"/>
      <point x="140" y="660"/>
      <point x="50" y="651" type="curve"/>
      <point x="50" y="0" type="line"/>
      <point x="262" y="0" type="line"/>
      <point x="262" y="585" type="line"/>
      <point x="275" y="589"/>
      <point x="291" y="591"/>
      <point x="304" y="591" type="curve" smooth="yes"/>
      <point x="370" y="591"/>
      <point x="383" y="529"/>
      <point x="383" y="462" type="curve" smooth="yes"/>
      <point x="383" y="386"/>
      <point x="366" y="337"/>
      <point x="290" y="337" type="curve"/>
      <point x="290" y="323"/>
      <point x="294" y="311"/>
      <point x="299" y="298" type="curve" smooth="yes"/>
      <point x="417" y="0" type="line"/>
      <point x="634" y="0" type="line"/>
      <point x="475" y="279" type="line"/>
      <point x="547" y="308"/>
      <point x="591" y="375"/>
      <point x="591" y="465" type="curve" smooth="yes"/>
    </contour>
    <contour>
      <point x="306" y="660" type="move" name="top"/>
    </contour>
    <contour>
      <point x="337" y="0" type="move" name="bottom"/>
    </contour>
    <contour>
      <point x="304" y="700" type="move" name="topcase"/>
    </contour>
  </outline>
</glyph>
<glyph name="S" format="1">
  <advance width="553"/>
  <unicode hex="0053"/>
  <outline>
    <contour>
      <point x="161" y="680"/>
      <point x="29" y="612"/>
      <point x="29" y="478" type="curve" smooth="yes"/>
      <point x="29" y="257"/>
      <point x="346" y="292"/>
      <point x="346" y="128" type="curve" smooth="yes"/>
      <point x="346" y="79"/>
      <point x="314" y="52"/>
      <point x="265" y="52" type="curve" smooth="yes"/>
      <point x="201" y="52"/>
      <point x="184" y="100"/>
      <point x="184" y="164" type="curve" smooth="yes"/>
      <point x="184" y="184"/>
      <point x="186" y="199"/>
      <point x="190" y="219" type="curve"/>
      <point x="174" y="224"/>
      <point x="153" y="226"/>
      <point x="138" y="226" type="curve" smooth="yes"/>
      <point x="70" y="226"/>
      <point x="14" y="185"/>
      <point x="14" y="113" type="curve" smooth="yes"/>
      <point x="14" y="6"/>
      <point x="144" y="-22"/>
      <point x="251" y="-22" type="curve" smooth="yes"/>
      <point x="405" y="-22"/>
      <point x="533" y="37"/>
      <point x="533" y="191" type="curve" smooth="yes"/>
      <point x="533" y="412"/>
      <point x="216" y="377"/>
      <point x="216" y="541" type="curve" smooth="yes"/>
      <point x="216" y="581"/>
      <point x="241" y="606"/>
      <point x="281" y="606" type="curve" smooth="yes"/>
      <point x="330" y="606"/>
      <point x="348" y="572"/>
      <point x="348" y="524" type="curve" smooth="yes"/>
      <point x="348" y="502"/>
      <point x="346" y="481"/>
      <point x="342" y="459" type="curve"/>
      <point x="358" y="454"/>
      <point x="379" y="452"/>
      <point x="394" y="452" type="curve" smooth="yes"/>
      <point x="462" y="452"/>
      <point x="518" y="483"/>
      <point x="518" y="555" type="curve" smooth="yes"/>
      <point x="518" y="652"/>
      <point x="392" y="680"/>
      <point x="295" y="680" type="curve" smooth="yes"/>
    </contour>
    <contour>
      <point x="280" y="660" type="move" name="top"/>
    </contour>
    <contour>
      <point x="251" y="0" type="move" name="bottom"/>
    </contour>
    <contour>
      <point x="281" y="700" type="move" name="topcase"/>
    </contour>
  </outline>
</glyph>
<glyph name="T" format="1">
  <advance width="504"/>
  <unicode hex="0054"/>
  <outline>
    <contour>
      <point x="7" y="660" type="line"/>
      <point x="7" y="576" type="line"/>
      <point x="146" y="576" type="line"/>
      <point x="146" y="0" type="line"/>
      <point x="358" y="0" type="line"/>
      <point x="358" y="576" type="line"/>
      <point x="491" y="576" type="line"/>
      <point x="499" y="660" type="line"/>
    </contour>
    <contour>
      <point x="252" y="0" type="move" name="bottom"/>
    </contour>
    <contour>
      <point x="252" y="700" type="move" name="topcase"/>
    </contour>
    <contour>
      <point x="252" y="660" type="move" name="top"/>
    </contour>
    <contour>
      <point x="252" y="330" type="move" name="center"/>
    </contour>
  </outline>
</glyph>
<glyph name="U" format="1">
  <advance width="609"/>
  <unicode hex="0055"/>
  <outline>
    <contour>
      <point x="567" y="660" type="line"/>
      <point x="417" y="660" type="line"/>
      <point x="417" y="263" type="line" smooth="yes"/>
      <point x="417" y="129"/>
      <point x="406" y="62"/>
      <point x="335" y="62" type="curve" smooth="yes"/>
      <point x="264" y="62"/>
      <point x="254" y="128"/>
      <point x="254" y="252" type="curve" smooth="yes"/>
      <point x="254" y="660" type="line"/>
      <point x="42" y="660" type="line"/>
      <point x="42" y="241" type="line" smooth="yes"/>
      <point x="42" y="56"/>
      <point x="129" y="-22"/>
      <point x="314" y="-22" type="curve" smooth="yes"/>
      <point x="506" y="-22"/>
      <point x="567" y="82"/>
      <point x="567" y="274" type="curve" smooth="yes"/>
    </contour>
    <contour>
      <point x="335" y="700" type="move" name="topcase"/>
    </contour>
    <contour>
      <point x="460" y="10" type="move" name="ogonek"/>
    </contour>
    <contour>
      <point x="334" y="660" type="move" name="top"/>
    </contour>
    <contour>
      <point x="333" y="0" type="move" name="bottom"/>
    </contour>
  </outline>
</glyph>
<glyph name="V" format="1">
  <advance width="582"/>
  <unicode hex="0056"/>
  <outline>
    <contour>
      <point x="439" y="660" type="line"/>
      <point x="331" y="121" type="line"/>
      <point x="220" y="660" type="line"/>
      <point x="3" y="660" type="line"/>
      <point x="160" y="0" type="line"/>
      <point x="413" y="0" type="line"/>
      <point x="596" y="660" type="line"/>
    </contour>
  </outline>
</glyph>
<glyph name="W" format="1">
  <advance width="961"/>
  <unicode hex="0057"/>
  <outline>
    <contour>
      <point x="818" y="660" type="line"/>
      <point x="710" y="121" type="line"/>
      <point x="599" y="660" type="line"/>
      <point x="439" y="660" type="line"/>
      <point x="331" y="121" type="line"/>
      <point x="220" y="660" type="line"/>
      <point x="3" y="660" type="line"/>
      <point x="160" y="0" type="line"/>
      <point x="413" y="0" type="line"/>
      <point x="474" y="332" type="line"/>
      <point x="539" y="0" type="line"/>
      <point x="792" y="0" type="line"/>
      <point x="975" y="660" type="line"/>
    </contour>
    <contour>
      <point x="518" y="660" type="move" name="top"/>
    </contour>
    <contour>
      <point x="519" y="700" type="move" name="topcase"/>
    </contour>
  </outline>
</glyph>
<glyph name="X" format="1">
  <advance width="529"/>
  <unicode hex="0058"/>
  <outline>
    <contour>
      <point x="386" y="660" type="line"/>
      <point x="312" y="449" type="line"/>
      <point x="217" y="660" type="line"/>
      <point x="0" y="660" type="line"/>
      <point x="157" y="340" type="line"/>
      <point x="-14" y="0" type="line"/>
      <point x="143" y="0" type="line"/>
      <point x="222" y="224" type="line"/>
      <point x="325" y="0" type="line"/>
      <point x="542" y="0" type="line"/>
      <point x="377" y="335" type="line"/>
      <point x="543" y="660" type="line"/>
    </contour>
  </outline>
</glyph>
<glyph name="Y" format="1">
  <advance width="552"/>
  <unicode hex="0059"/>
  <outline>
    <contour>
      <point x="544" y="660" type="line"/>
      <point x="387" y="660" type="line"/>
      <point x="311" y="399" type="line"/>
      <point x="218" y="660" type="line"/>
      <point x="1" y="660" type="line"/>
      <point x="163" y="290" type="line"/>
      <point x="163" y="0" type="line"/>
      <point x="375" y="0" type="line"/>
      <point x="375" y="299" type="line"/>
    </contour>
    <contour>
      <point x="291" y="660" type="move" name="top"/>
    </contour>
    <contour>
      <point x="292" y="700" type="move" name="topcase"/>
    </contour>
  </outline>
</glyph>
<glyph name="Z" format="1">
  <advance width="478"/>
  <unicode hex="005A"/>
  <outline>
    <contour>
      <point x="27" y="660" type="line"/>
      <point x="27" y="570" type="line"/>
      <point x="242" y="570" type="line"/>
      <point x="7" y="76" type="line"/>
      <point x="14" y="0" type="line"/>
      <point x="471" y="0" type="line"/>
      <point x="481" y="90" type="line"/>
      <point x="234" y="90" type="line"/>
      <point x="469" y="584" type="line"/>
      <point x="462" y="660" type="line"/>
    </contour>
    <contour>
      <point x="239" y="660" type="move" name="top"/>
    </contour>
    <contour>
      <point x="235" y="0" type="move" name="bottom"/>
    </contour>
    <contour>
      <point x="239" y="700" type="move" name="topcase"/>
    </contour>
  </outline>
</glyph>
<glyph name="bracketleft" format="1">
  <advance width="339"/>
  <unicode hex="005B"/>
  <outline>
    <contour>
      <point x="74" y="791" type="line"/>
      <point x="74" y="-190" type="line"/>
      <point x="337" y="-190" type="line"/>
      <point x="341" y="-182"/>
      <point x="344" y="-171"/>
      <point x="344" y="-160" type="curve" smooth="yes"/>
      <point x="344" y="-135"/>
      <point x="328" y="-123"/>
      <point x="302" y="-123" type="curve" smooth="yes"/>
      <point x="226" y="-123" type="line"/>
      <point x="226" y="724" type="line"/>
      <point x="302" y="724" type="line" smooth="yes"/>
      <point x="328" y="724"/>
      <point x="344" y="736"/>
      <point x="344" y="761" type="curve" smooth="yes"/>
      <point x="344" y="772"/>
      <point x="341" y="783"/>
      <point x="337" y="791" type="curve"/>
    </contour>
  </outline>
</glyph>
<glyph name="backslash" format="1">
  <advance width="340"/>
  <unicode hex="005C"/>
  <outline>
    <contour>
      <point x="64" y="801"/>
      <point x="26" y="784"/>
      <point x="26" y="735" type="curve" smooth="yes"/>
      <point x="26" y="720"/>
      <point x="28" y="706"/>
      <point x="31" y="691" type="curve" smooth="yes"/>
      <point x="187" y="-197" type="line"/>
      <point x="199" y="-199"/>
      <point x="212" y="-200"/>
      <point x="227" y="-200" type="curve" smooth="yes"/>
      <point x="276" y="-200"/>
      <point x="314" y="-183"/>
      <point x="314" y="-135" type="curve" smooth="yes"/>
      <point x="314" y="-119"/>
      <point x="312" y="-105"/>
      <point x="309" y="-90" type="curve" smooth="yes"/>
      <point x="153" y="798" type="line"/>
      <point x="141" y="800"/>
      <point x="128" y="801"/>
      <point x="113" y="801" type="curve" smooth="yes"/>
    </contour>
  </outline>
</glyph>
<glyph name="bracketright" format="1">
  <advance width="339"/>
  <unicode hex="005D"/>
  <outline>
    <contour>
      <point x="265" y="791" type="line"/>
      <point x="2" y="791" type="line"/>
      <point x="-2" y="783"/>
      <point x="-5" y="772"/>
      <point x="-5" y="761" type="curve" smooth="yes"/>
      <point x="-5" y="736"/>
      <point x="11" y="724"/>
      <point x="37" y="724" type="curve" smooth="yes"/>
      <point x="113" y="724" type="line"/>
      <point x="113" y="-123" type="line"/>
      <point x="37" y="-123" type="line" smooth="yes"/>
      <point x="11" y="-123"/>
      <point x="-5" y="-135"/>
      <point x="-5" y="-160" type="curve" smooth="yes"/>
      <point x="-5" y="-171"/>
      <point x="-2" y="-182"/>
      <point x="2" y="-190" type="curve"/>
      <point x="265" y="-190" type="line"/>
    </contour>
  </outline>
</glyph>
<glyph name="asciicircum" format="1">
  <advance width="530"/>
  <unicode hex="005E"/>
  <outline>
    <contour>
      <point x="207" y="660" type="line"/>
      <point x="171" y="517"/>
      <point x="104" y="383"/>
      <point x="7" y="328" type="curve"/>
      <point x="17" y="296"/>
      <point x="37" y="277"/>
      <point x="71" y="277" type="curve" smooth="yes"/>
      <point x="127" y="277"/>
      <point x="180" y="348"/>
      <point x="246" y="531" type="curve"/>
      <point x="297" y="348"/>
      <point x="354" y="277"/>
      <point x="439" y="277" type="curve" smooth="yes"/>
      <point x="478" y="277"/>
      <point x="510" y="291"/>
      <point x="523" y="328" type="curve"/>
      <point x="437" y="393"/>
      <point x="380" y="496"/>
      <point x="344" y="660" type="curve"/>
    </contour>
  </outline>
</glyph>
<glyph name="underscore" format="1">
  <advance width="507"/>
  <unicode hex="005F"/>
  <outline>
    <contour>
      <point x="424" y="-141" type="line" smooth="yes"/>
      <point x="471" y="-141"/>
      <point x="500" y="-119"/>
      <point x="500" y="-72" type="curve" smooth="yes"/>
      <point x="500" y="-65"/>
      <point x="499" y="-49"/>
      <point x="495" y="-39" type="curve"/>
      <point x="82" y="-39" type="line" smooth="yes"/>
      <point x="36" y="-39"/>
      <point x="7" y="-61"/>
      <point x="7" y="-108" type="curve" smooth="yes"/>
      <point x="7" y="-116"/>
      <point x="8" y="-131"/>
      <point x="11" y="-141" type="curve"/>
    </contour>
  </outline>
</glyph>
<glyph name="grave" format="1">
  <advance width="293"/>
  <unicode hex="0060"/>
  <outline>
    <contour>
      <point x="283" y="621" type="line"/>
      <point x="64" y="771" type="line"/>
      <point x="36" y="758"/>
      <point x="10" y="727"/>
      <point x="10" y="697" type="curve" smooth="yes"/>
      <point x="10" y="645"/>
      <point x="69" y="629"/>
      <point x="121" y="614" type="curve" smooth="yes"/>
      <point x="261" y="574" type="line"/>
    </contour>
    <contour>
      <point x="180" y="510" type="move" name="_top"/>
    </contour>
  </outline>
</glyph>
<glyph name="a" format="1">
  <advance width="579"/>
  <unicode hex="0061"/>
  <outline>
    <contour>
      <point x="370" y="4"/>
      <point x="412" y="-15"/>
      <point x="471" y="-15" type="curve" smooth="yes"/>
      <point x="499" y="-15"/>
      <point x="542" y="-7"/>
      <point x="563" y="12" type="curve"/>
      <point x="539" y="43"/>
      <point x="532" y="77"/>
      <point x="532" y="116" type="curve" smooth="yes"/>
      <point x="532" y="342" type="line" smooth="yes"/>
      <point x="532" y="489"/>
      <point x="435" y="530"/>
      <point x="288" y="530" type="curve" smooth="yes"/>
      <point x="190" y="530"/>
      <point x="49" y="504"/>
      <point x="49" y="406" type="curve" smooth="yes"/>
      <point x="49" y="348"/>
      <point x="103" y="324"/>
      <point x="161" y="324" type="curve" smooth="yes"/>
      <point x="174" y="324"/>
      <point x="203" y="326"/>
      <point x="214" y="333" type="curve"/>
      <point x="212" y="349"/>
      <point x="210" y="367"/>
      <point x="210" y="383" type="curve" smooth="yes"/>
      <point x="210" y="435"/>
      <point x="229" y="473"/>
      <point x="281" y="473" type="curve" smooth="yes"/>
      <point x="331" y="473"/>
      <point x="338" y="428"/>
      <point x="338" y="378" type="curve" smooth="yes"/>
      <point x="338" y="291" type="line"/>
      <point x="194" y="291"/>
      <point x="16" y="273"/>
      <point x="16" y="129" type="curve" smooth="yes"/>
      <point x="16" y="24"/>
      <point x="113" y="-22"/>
      <point x="218" y="-22" type="curve" smooth="yes"/>
      <point x="273" y="-22"/>
      <point x="328" y="-5"/>
      <point x="351" y="45" type="curve"/>
    </contour>
    <contour>
      <point x="228" y="49"/>
      <point x="210" y="88"/>
      <point x="210" y="133" type="curve" smooth="yes"/>
      <point x="210" y="213"/>
      <point x="258" y="241"/>
      <point x="338" y="241" type="curve"/>
      <point x="338" y="153" type="line" smooth="yes"/>
      <point x="338" y="103"/>
      <point x="323" y="49"/>
      <point x="273" y="49" type="curve" smooth="yes"/>
    </contour>
    <contour>
      <point x="563" y="12" type="move" name="ogonek"/>
    </contour>
    <contour>
      <point x="309" y="0" type="move" name="bottom"/>
    </contour>
    <contour>
      <point x="281" y="510" type="move" name="top"/>
    </contour>
  </outline>
</glyph>
<glyph name="b" format="1">
  <advance width="599"/>
  <unicode hex="0062"/>
  <outline>
    <contour>
      <point x="54" y="700" type="line"/>
      <point x="54" y="32" type="line"/>
      <point x="120" y="-1"/>
      <point x="220" y="-22"/>
      <point x="293" y="-22" type="curve" smooth="yes"/>
      <point x="474" y="-22"/>
      <point x="571" y="81"/>
      <point x="571" y="262" type="curve" smooth="yes"/>
      <point x="571" y="409"/>
      <point x="525" y="530"/>
      <point x="378" y="530" type="curve" smooth="yes"/>
      <point x="323" y="530"/>
      <point x="272" y="514"/>
      <point x="239" y="469" type="curve"/>
      <point x="247" y="502"/>
      <point x="248" y="566"/>
      <point x="248" y="600" type="curve" smooth="yes"/>
      <point x="248" y="720" type="line"/>
    </contour>
    <contour>
      <point x="248" y="318" type="line" smooth="yes"/>
      <point x="248" y="377"/>
      <point x="248" y="454"/>
      <point x="307" y="454" type="curve" smooth="yes"/>
      <point x="370" y="454"/>
      <point x="373" y="347"/>
      <point x="373" y="257" type="curve" smooth="yes"/>
      <point x="373" y="162"/>
      <point x="370" y="38"/>
      <point x="300" y="38" type="curve" smooth="yes"/>
      <point x="282" y="38"/>
      <point x="263" y="44"/>
      <point x="248" y="56" type="curve"/>
    </contour>
  </outline>
</glyph>
<glyph name="c" format="1">
  <advance width="504"/>
  <unicode hex="0063"/>
  <outline>
    <contour>
      <point x="333" y="470"/>
      <point x="338" y="423"/>
      <point x="338" y="381" type="curve" smooth="yes"/>
      <point x="338" y="365"/>
      <point x="336" y="347"/>
      <point x="334" y="331" type="curve"/>
      <point x="345" y="324"/>
      <point x="374" y="322"/>
      <point x="387" y="322" type="curve" smooth="yes"/>
      <point x="445" y="322"/>
      <point x="499" y="346"/>
      <point x="499" y="404" type="curve" smooth="yes"/>
      <point x="499" y="502"/>
      <point x="403" y="530"/>
      <point x="305" y="530" type="curve" smooth="yes"/>
      <point x="129" y="530"/>
      <point x="28" y="435"/>
      <point x="28" y="259" type="curve" smooth="yes"/>
      <point x="28" y="85"/>
      <point x="123" y="-22"/>
      <point x="297" y="-22" type="curve" smooth="yes"/>
      <point x="394" y="-22"/>
      <point x="486" y="24"/>
      <point x="486" y="121" type="curve" smooth="yes"/>
      <point x="486" y="146"/>
      <point x="473" y="170"/>
      <point x="448" y="176" type="curve"/>
      <point x="427" y="127"/>
      <point x="389" y="98"/>
      <point x="336" y="98" type="curve" smooth="yes"/>
      <point x="245" y="98"/>
      <point x="226" y="173"/>
      <point x="226" y="264" type="curve" smooth="yes"/>
      <point x="226" y="344"/>
      <point x="232" y="470"/>
      <point x="291" y="470" type="curve" smooth="yes"/>
    </contour>
    <contour>
      <point x="291" y="510" type="move" name="top"/>
    </contour>
    <contour>
      <point x="297" y="0" type="move" name="bottom"/>
    </contour>
  </outline>
</glyph>
<glyph name="d" format="1">
  <advance width="599"/>
  <unicode hex="0064"/>
  <outline>
    <contour>
      <point x="545" y="720" type="line"/>
      <point x="351" y="700" type="line"/>
      <point x="351" y="527" type="line"/>
      <point x="336" y="529"/>
      <point x="313" y="530"/>
      <point x="299" y="530" type="curve" smooth="yes"/>
      <point x="121" y="530"/>
      <point x="28" y="435"/>
      <point x="28" y="257" type="curve" smooth="yes"/>
      <point x="28" y="109"/>
      <point x="76" y="-22"/>
      <point x="224" y="-22" type="curve" smooth="yes"/>
      <point x="282" y="-22"/>
      <point x="332" y="-4"/>
      <point x="364" y="45" type="curve"/>
      <point x="383" y="4"/>
      <point x="425" y="-15"/>
      <point x="484" y="-15" type="curve" smooth="yes"/>
      <point x="512" y="-15"/>
      <point x="555" y="-7"/>
      <point x="576" y="12" type="curve"/>
      <point x="552" y="43"/>
      <point x="545" y="77"/>
      <point x="545" y="116" type="curve" smooth="yes"/>
    </contour>
    <contour>
      <point x="351" y="158" type="line" smooth="yes"/>
      <point x="351" y="111"/>
      <point x="339" y="54"/>
      <point x="292" y="54" type="curve" smooth="yes"/>
      <point x="229" y="54"/>
      <point x="226" y="172"/>
      <point x="226" y="262" type="curve" smooth="yes"/>
      <point x="226" y="354"/>
      <point x="232" y="470"/>
      <point x="299" y="470" type="curve" smooth="yes"/>
      <point x="317" y="470"/>
      <point x="336" y="464"/>
      <point x="351" y="452" type="curve"/>
    </contour>
    <contour>
      <point x="300" y="255" type="move" name="center"/>
    </contour>
    <contour>
      <point x="316" y="0" type="move" name="bottom"/>
    </contour>
  </outline>
</glyph>
<glyph name="e" format="1">
  <advance width="537"/>
  <unicode hex="0065"/>
  <outline>
    <contour>
      <point x="133" y="530"/>
      <point x="28" y="439"/>
      <point x="28" y="259" type="curve" smooth="yes"/>
      <point x="28" y="85"/>
      <point x="123" y="-22"/>
      <point x="297" y="-22" type="curve" smooth="yes"/>
      <point x="392" y="-22"/>
      <point x="500" y="20"/>
      <point x="500" y="115" type="curve" smooth="yes"/>
      <point x="500" y="137"/>
      <point x="492" y="160"/>
      <point x="472" y="170" type="curve"/>
      <point x="446" y="121"/>
      <point x="391" y="98"/>
      <point x="336" y="98" type="curve" smooth="yes"/>
      <point x="256" y="98"/>
      <point x="232" y="155"/>
      <point x="227" y="231" type="curve"/>
      <point x="239" y="229"/>
      <point x="266" y="228"/>
      <point x="278" y="228" type="curve" smooth="yes"/>
      <point x="409" y="228"/>
      <point x="522" y="254"/>
      <point x="522" y="385" type="curve" smooth="yes"/>
      <point x="522" y="490"/>
      <point x="418" y="530"/>
      <point x="313" y="530" type="curve" smooth="yes"/>
    </contour>
    <contour>
      <point x="340" y="470"/>
      <point x="352" y="426"/>
      <point x="352" y="385" type="curve" smooth="yes"/>
      <point x="352" y="301"/>
      <point x="308" y="275"/>
      <point x="223" y="276" type="curve" smooth="yes"/>
      <point x="209" y="276"/>
      <point x="195" y="277"/>
      <point x="179" y="278" type="curve"/>
      <point x="226" y="247" type="line"/>
      <point x="226" y="292"/>
      <point x="222" y="470"/>
      <point x="299" y="470" type="curve" smooth="yes"/>
    </contour>
    <contour>
      <point x="431" y="10" type="move" name="ogonek"/>
    </contour>
    <contour>
      <point x="297" y="0" type="move" name="bottom"/>
    </contour>
    <contour>
      <point x="299" y="510" type="move" name="top"/>
    </contour>
  </outline>
</glyph>
<glyph name="f" format="1">
  <advance width="357"/>
  <unicode hex="0066"/>
  <outline>
    <contour>
      <point x="262" y="465" type="line"/>
      <point x="351" y="465" type="line"/>
      <point x="351" y="510" type="line"/>
      <point x="262" y="510" type="line"/>
      <point x="262" y="568" type="line" smooth="yes"/>
      <point x="262" y="616"/>
      <point x="264" y="673"/>
      <point x="312" y="673" type="curve" smooth="yes"/>
      <point x="342" y="673"/>
      <point x="352" y="646"/>
      <point x="352" y="616" type="curve" smooth="yes"/>
      <point x="352" y="605"/>
      <point x="350" y="577"/>
      <point x="348" y="566" type="curve"/>
      <point x="359" y="559"/>
      <point x="388" y="557"/>
      <point x="401" y="557" type="curve" smooth="yes"/>
      <point x="454" y="557"/>
      <point x="513" y="576"/>
      <point x="513" y="629" type="curve" smooth="yes"/>
      <point x="513" y="707"/>
      <point x="397" y="720"/>
      <point x="319" y="720" type="curve" smooth="yes"/>
      <point x="192" y="720"/>
      <point x="79" y="686"/>
      <point x="71" y="559" type="curve" smooth="yes"/>
      <point x="68" y="510" type="line"/>
      <point x="1" y="510" type="line"/>
      <point x="1" y="465" type="line"/>
      <point x="68" y="465" type="line"/>
      <point x="68" y="-15" type="line"/>
      <point x="262" y="0" type="line"/>
    </contour>
  </outline>
</glyph>
<glyph name="g" format="1">
  <advance width="595"/>
  <unicode hex="0067"/>
  <outline>
    <contour>
      <point x="232" y="-143"/>
      <point x="219" y="-101"/>
      <point x="219" y="-53" type="curve" smooth="yes"/>
      <point x="219" y="-37"/>
      <point x="221" y="-19"/>
      <point x="223" y="-3" type="curve"/>
      <point x="212" y="4"/>
      <point x="183" y="6"/>
      <point x="170" y="6" type="curve" smooth="yes"/>
      <point x="112" y="6"/>
      <point x="58" y="-18"/>
      <point x="58" y="-76" type="curve" smooth="yes"/>
      <point x="58" y="-166"/>
      <point x="183" y="-200"/>
      <point x="273" y="-200" type="curve" smooth="yes"/>
      <point x="480" y="-200"/>
      <point x="541" y="-106"/>
      <point x="541" y="101" type="curve" smooth="yes"/>
      <point x="541" y="530" type="line"/>
      <point x="406" y="510" type="line"/>
      <point x="368" y="524"/>
      <point x="325" y="530"/>
      <point x="285" y="530" type="curve" smooth="yes"/>
      <point x="123" y="530"/>
      <point x="28" y="450"/>
      <point x="28" y="288" type="curve" smooth="yes"/>
      <point x="28" y="154"/>
      <point x="83" y="59"/>
      <point x="217" y="59" type="curve" smooth="yes"/>
      <point x="272" y="59"/>
      <point x="323" y="73"/>
      <point x="356" y="111" type="curve"/>
      <point x="356" y="77" type="line" smooth="yes"/>
      <point x="356" y="-48"/>
      <point x="355" y="-143"/>
      <point x="280" y="-143" type="curve" smooth="yes"/>
    </contour>
    <contour>
      <point x="347" y="243" type="line" smooth="yes"/>
      <point x="347" y="194"/>
      <point x="337" y="135"/>
      <point x="288" y="135" type="curve" smooth="yes"/>
      <point x="229" y="135"/>
      <point x="226" y="231"/>
      <point x="226" y="294" type="curve" smooth="yes"/>
      <point x="226" y="367"/>
      <point x="226" y="470"/>
      <point x="295" y="470" type="curve" smooth="yes"/>
      <point x="313" y="470"/>
      <point x="332" y="466"/>
      <point x="347" y="456" type="curve"/>
    </contour>
    <contour>
      <point x="295" y="510" type="move" name="top"/>
    </contour>
  </outline>
</glyph>
<glyph name="h" format="1">
  <advance width="599"/>
  <unicode hex="0068"/>
  <outline>
    <contour>
      <point x="54" y="700" type="line"/>
      <point x="54" y="0" type="line"/>
      <point x="248" y="0" type="line"/>
      <point x="248" y="319" type="line" smooth="yes"/>
      <point x="248" y="378"/>
      <point x="248" y="454"/>
      <point x="307" y="454" type="curve" smooth="yes"/>
      <point x="358" y="454"/>
      <point x="358" y="391"/>
      <point x="358" y="340" type="curve" smooth="yes"/>
      <point x="358" y="109" type="line" smooth="yes"/>
      <point x="358" y="25"/>
      <point x="407" y="-15"/>
      <point x="491" y="-15" type="curve" smooth="yes"/>
      <point x="519" y="-15"/>
      <point x="562" y="-7"/>
      <point x="583" y="12" type="curve"/>
      <point x="559" y="43"/>
      <point x="552" y="77"/>
      <point x="552" y="116" type="curve" smooth="yes"/>
      <point x="552" y="342" type="line" smooth="yes"/>
      <point x="552" y="465"/>
      <point x="503" y="530"/>
      <point x="380" y="530" type="curve" smooth="yes"/>
      <point x="325" y="530"/>
      <point x="272" y="514"/>
      <point x="239" y="469" type="curve"/>
      <point x="247" y="502"/>
      <point x="248" y="566"/>
      <point x="248" y="600" type="curve" smooth="yes"/>
      <point x="248" y="720" type="line"/>
    </contour>
    <contour>
      <point x="300" y="255" type="move" name="center"/>
    </contour>
    <contour>
      <point x="301" y="0" type="move" name="bottom"/>
    </contour>
    <contour>
      <point x="161" y="660" type="move" name="top"/>
    </contour>
  </outline>
</glyph>
<glyph name="i" format="1">
  <advance width="295"/>
  <unicode hex="0069"/>
  <outline>
    <contour>
      <point x="47" y="510" type="line"/>
      <point x="47" y="109" type="line" smooth="yes"/>
      <point x="47" y="25"/>
      <point x="96" y="-15"/>
      <point x="180" y="-15" type="curve" smooth="yes"/>
      <point x="208" y="-15"/>
      <point x="251" y="-7"/>
      <point x="272" y="12" type="curve"/>
      <point x="248" y="43"/>
      <point x="241" y="77"/>
      <point x="241" y="116" type="curve" smooth="yes"/>
      <point x="241" y="510" type="line"/>
    </contour>
    <component base="dotaccent" xOffset="39"/>
    <contour>
      <point x="165" y="0" type="move" name="bottom"/>
    </contour>
  </outline>
</glyph>
<glyph name="j" format="1">
  <advance width="302"/>
  <unicode hex="006A"/>
  <outline>
    <contour>
      <point x="248" y="510" type="line"/>
      <point x="54" y="510" type="line"/>
      <point x="54" y="21" type="line" smooth="yes"/>
      <point x="54" y="-59"/>
      <point x="52" y="-140"/>
      <point x="-28" y="-150" type="curve"/>
      <point x="-10" y="-189"/>
      <point x="43" y="-200"/>
      <point x="86" y="-200" type="curve" smooth="yes"/>
      <point x="217" y="-200"/>
      <point x="248" y="-85"/>
      <point x="248" y="46" type="curve" smooth="yes"/>
    </contour>
    <component base="dotaccent" xOffset="46"/>
  </outline>
</glyph>
<glyph name="l" format="1">
  <advance width="295"/>
  <unicode hex="006C"/>
  <outline>
    <contour>
      <point x="47" y="109" type="line" smooth="yes"/>
      <point x="47" y="25"/>
      <point x="96" y="-15"/>
      <point x="180" y="-15" type="curve" smooth="yes"/>
      <point x="208" y="-15"/>
      <point x="251" y="-7"/>
      <point x="272" y="12" type="curve"/>
      <point x="248" y="43"/>
      <point x="241" y="77"/>
      <point x="241" y="116" type="curve" smooth="yes"/>
      <point x="241" y="720" type="line"/>
      <point x="47" y="700" type="line"/>
    </contour>
    <contour>
      <point x="144" y="660" type="move" name="top"/>
    </contour>
    <contour>
      <point x="166" y="0" type="move" name="bottom"/>
    </contour>
    <contour>
      <point x="339" y="660" type="move" name="topright"/>
    </contour>
  </outline>
</glyph>
<glyph name="m" format="1">
  <advance width="888"/>
  <unicode hex="006D"/>
  <outline>
    <contour>
      <point x="241" y="0" type="line"/>
      <point x="241" y="319" type="line" smooth="yes"/>
      <point x="241" y="378"/>
      <point x="241" y="454"/>
      <point x="300" y="454" type="curve" smooth="yes"/>
      <point x="351" y="454"/>
      <point x="351" y="391"/>
      <point x="351" y="340" type="curve" smooth="yes"/>
      <point x="351" y="0" type="line"/>
      <point x="545" y="0" type="line"/>
      <point x="545" y="319" type="line" smooth="yes"/>
      <point x="545" y="374"/>
      <point x="545" y="454"/>
      <point x="600" y="454" type="curve" smooth="yes"/>
      <point x="647" y="454"/>
      <point x="647" y="391"/>
      <point x="647" y="340" type="curve" smooth="yes"/>
      <point x="647" y="109" type="line" smooth="yes"/>
      <point x="647" y="25"/>
      <point x="696" y="-15"/>
      <point x="780" y="-15" type="curve" smooth="yes"/>
      <point x="808" y="-15"/>
      <point x="851" y="-7"/>
      <point x="872" y="12" type="curve"/>
      <point x="848" y="43"/>
      <point x="841" y="77"/>
      <point x="841" y="116" type="curve" smooth="yes"/>
      <point x="841" y="342" type="line" smooth="yes"/>
      <point x="841" y="462"/>
      <point x="795" y="530"/>
      <point x="675" y="530" type="curve" smooth="yes"/>
      <point x="611" y="530"/>
      <point x="555" y="509"/>
      <point x="525" y="451" type="curve"/>
      <point x="500" y="502"/>
      <point x="452" y="530"/>
      <point x="375" y="530" type="curve" smooth="yes"/>
      <point x="298" y="530"/>
      <point x="240" y="504"/>
      <point x="212" y="432" type="curve"/>
      <point x="204" y="522" type="line"/>
      <point x="47" y="510" type="line"/>
      <point x="47" y="0" type="line"/>
    </contour>
  </outline>
</glyph>
<glyph name="n" format="1">
  <advance width="592"/>
  <unicode hex="006E"/>
  <outline>
    <contour>
      <point x="241" y="0" type="line"/>
      <point x="241" y="319" type="line" smooth="yes"/>
      <point x="241" y="378"/>
      <point x="241" y="454"/>
      <point x="300" y="454" type="curve" smooth="yes"/>
      <point x="351" y="454"/>
      <point x="351" y="391"/>
      <point x="351" y="340" type="curve" smooth="yes"/>
      <point x="351" y="109" type="line" smooth="yes"/>
      <point x="351" y="25"/>
      <point x="400" y="-15"/>
      <point x="484" y="-15" type="curve" smooth="yes"/>
      <point x="512" y="-15"/>
      <point x="555" y="-7"/>
      <point x="576" y="12" type="curve"/>
      <point x="552" y="43"/>
      <point x="545" y="77"/>
      <point x="545" y="116" type="curve" smooth="yes"/>
      <point x="545" y="342" type="line" smooth="yes"/>
      <point x="545" y="464"/>
      <point x="497" y="530"/>
      <point x="375" y="530" type="curve" smooth="yes"/>
      <point x="298" y="530"/>
      <point x="240" y="504"/>
      <point x="212" y="432" type="curve"/>
      <point x="204" y="522" type="line"/>
      <point x="47" y="510" type="line"/>
      <point x="47" y="0" type="line"/>
    </contour>
    <contour>
      <point x="314" y="510" type="move" name="top"/>
    </contour>
    <contour>
      <point x="314" y="0" type="move" name="bottom"/>
    </contour>
  </outline>
</glyph>
<glyph name="o" format="1">
  <advance width="582"/>
  <unicode hex="006F"/>
  <outline>
    <contour>
      <point x="119" y="530"/>
      <point x="28" y="424"/>
      <point x="28" y="252" type="curve" smooth="yes"/>
      <point x="28" y="88"/>
      <point x="127" y="-22"/>
      <point x="291" y="-22" type="curve" smooth="yes"/>
      <point x="460" y="-22"/>
      <point x="554" y="93"/>
      <point x="554" y="262" type="curve" smooth="yes"/>
      <point x="554" y="434"/>
      <point x="463" y="530"/>
      <point x="291" y="530" type="curve" smooth="yes"/>
    </contour>
    <contour>
      <point x="228" y="38"/>
      <point x="226" y="167"/>
      <point x="226" y="257" type="curve" smooth="yes"/>
      <point x="226" y="347"/>
      <point x="228" y="470"/>
      <point x="291" y="470" type="curve" smooth="yes"/>
      <point x="354" y="470"/>
      <point x="356" y="347"/>
      <point x="356" y="257" type="curve" smooth="yes"/>
      <point x="356" y="167"/>
      <point x="354" y="38"/>
      <point x="291" y="38" type="curve" smooth="yes"/>
    </contour>
    <contour>
      <point x="404" y="0" type="move" name="ogonek"/>
    </contour>
    <contour>
      <point x="291" y="0" type="move" name="bottom"/>
    </contour>
    <contour>
      <point x="291" y="510" type="move" name="top"/>
    </contour>
  </outline>
</glyph>
<glyph name="p" format="1">
  <advance width="599"/>
  <unicode hex="0070"/>
  <outline>
    <contour>
      <point x="305" y="530"/>
      <point x="247" y="504"/>
      <point x="219" y="432" type="curve"/>
      <point x="211" y="522" type="line"/>
      <point x="54" y="510" type="line"/>
      <point x="54" y="-193" type="line"/>
      <point x="248" y="-180" type="line"/>
      <point x="248" y="-19" type="line"/>
      <point x="263" y="-21"/>
      <point x="279" y="-22"/>
      <point x="293" y="-22" type="curve" smooth="yes"/>
      <point x="474" y="-22"/>
      <point x="571" y="81"/>
      <point x="571" y="262" type="curve" smooth="yes"/>
      <point x="571" y="407"/>
      <point x="527" y="530"/>
      <point x="382" y="530" type="curve" smooth="yes"/>
    </contour>
    <contour>
      <point x="370" y="454"/>
      <point x="373" y="347"/>
      <point x="373" y="257" type="curve" smooth="yes"/>
      <point x="373" y="162"/>
      <point x="370" y="38"/>
      <point x="300" y="38" type="curve" smooth="yes"/>
      <point x="282" y="38"/>
      <point x="263" y="44"/>
      <point x="248" y="56" type="curve"/>
      <point x="248" y="319" type="line" smooth="yes"/>
      <point x="248" y="378"/>
      <point x="248" y="454"/>
      <point x="307" y="454" type="curve" smooth="yes"/>
    </contour>
  </outline>
</glyph>
<glyph name="q" format="1">
  <advance width="592"/>
  <unicode hex="0071"/>
  <outline>
    <contour>
      <point x="545" y="-180" type="line"/>
      <point x="545" y="530" type="line"/>
      <point x="410" y="510" type="line"/>
      <point x="372" y="524"/>
      <point x="329" y="530"/>
      <point x="289" y="530" type="curve" smooth="yes"/>
      <point x="116" y="530"/>
      <point x="28" y="419"/>
      <point x="28" y="246" type="curve" smooth="yes"/>
      <point x="28" y="99"/>
      <point x="74" y="-22"/>
      <point x="221" y="-22" type="curve" smooth="yes"/>
      <point x="276" y="-22"/>
      <point x="327" y="-6"/>
      <point x="360" y="39" type="curve"/>
      <point x="352" y="6"/>
      <point x="351" y="-58"/>
      <point x="351" y="-92" type="curve" smooth="yes"/>
      <point x="351" y="-200" type="line"/>
    </contour>
    <contour>
      <point x="351" y="190" type="line" smooth="yes"/>
      <point x="351" y="131"/>
      <point x="351" y="54"/>
      <point x="292" y="54" type="curve" smooth="yes"/>
      <point x="229" y="54"/>
      <point x="226" y="161"/>
      <point x="226" y="251" type="curve" smooth="yes"/>
      <point x="226" y="346"/>
      <point x="229" y="470"/>
      <point x="299" y="470" type="curve" smooth="yes"/>
      <point x="317" y="470"/>
      <point x="336" y="464"/>
      <point x="351" y="452" type="curve"/>
    </contour>
  </outline>
</glyph>
<glyph name="r" format="1">
  <advance width="486"/>
  <unicode hex="0072"/>
  <outline>
    <contour>
      <point x="326" y="444"/>
      <point x="332" y="395"/>
      <point x="332" y="354" type="curve" smooth="yes"/>
      <point x="332" y="337"/>
      <point x="330" y="312"/>
      <point x="326" y="295" type="curve"/>
      <point x="337" y="288"/>
      <point x="368" y="285"/>
      <point x="381" y="285" type="curve" smooth="yes"/>
      <point x="452" y="285"/>
      <point x="493" y="326"/>
      <point x="493" y="397" type="curve" smooth="yes"/>
      <point x="493" y="481"/>
      <point x="439" y="530"/>
      <point x="355" y="530" type="curve" smooth="yes"/>
      <point x="288" y="530"/>
      <point x="235" y="495"/>
      <point x="212" y="432" type="curve"/>
      <point x="204" y="522" type="line"/>
      <point x="47" y="510" type="line"/>
      <point x="47" y="0" type="line"/>
      <point x="241" y="0" type="line"/>
      <point x="241" y="319" type="line" smooth="yes"/>
      <point x="241" y="378"/>
      <point x="241" y="444"/>
      <point x="285" y="444" type="curve" smooth="yes"/>
    </contour>
    <contour>
      <point x="148" y="510" type="move" name="top"/>
    </contour>
    <contour>
      <point x="144" y="0" type="move" name="bottom"/>
    </contour>
  </outline>
</glyph>
<glyph name="s" format="1">
  <advance width="482"/>
  <unicode hex="0073"/>
  <outline>
    <contour>
      <point x="287" y="473"/>
      <point x="300" y="444"/>
      <point x="300" y="411" type="curve" smooth="yes"/>
      <point x="300" y="400"/>
      <point x="298" y="372"/>
      <point x="296" y="361" type="curve"/>
      <point x="307" y="354"/>
      <point x="336" y="352"/>
      <point x="349" y="352" type="curve" smooth="yes"/>
      <point x="402" y="352"/>
      <point x="461" y="379"/>
      <point x="461" y="432" type="curve" smooth="yes"/>
      <point x="461" y="510"/>
      <point x="339" y="530"/>
      <point x="261" y="530" type="curve" smooth="yes"/>
      <point x="144" y="530"/>
      <point x="32" y="489"/>
      <point x="32" y="372" type="curve" smooth="yes"/>
      <point x="32" y="219"/>
      <point x="288" y="219"/>
      <point x="288" y="98" type="curve" smooth="yes"/>
      <point x="288" y="62"/>
      <point x="268" y="35"/>
      <point x="232" y="35" type="curve" smooth="yes"/>
      <point x="190" y="35"/>
      <point x="179" y="69"/>
      <point x="179" y="111" type="curve" smooth="yes"/>
      <point x="179" y="127"/>
      <point x="181" y="145"/>
      <point x="183" y="161" type="curve"/>
      <point x="172" y="168"/>
      <point x="143" y="170"/>
      <point x="130" y="170" type="curve" smooth="yes"/>
      <point x="72" y="170"/>
      <point x="18" y="146"/>
      <point x="18" y="88" type="curve" smooth="yes"/>
      <point x="18" y="0"/>
      <point x="137" y="-22"/>
      <point x="225" y="-22" type="curve" smooth="yes"/>
      <point x="352" y="-22"/>
      <point x="461" y="22"/>
      <point x="461" y="149" type="curve" smooth="yes"/>
      <point x="461" y="302"/>
      <point x="205" y="302"/>
      <point x="205" y="423" type="curve" smooth="yes"/>
      <point x="205" y="453"/>
      <point x="224" y="473"/>
      <point x="254" y="473" type="curve" smooth="yes"/>
    </contour>
    <contour>
      <point x="254" y="510" type="move" name="top"/>
    </contour>
    <contour>
      <point x="253" y="0" type="move" name="bottom"/>
    </contour>
  </outline>
</glyph>
<glyph name="t" format="1">
  <advance width="337"/>
  <unicode hex="0074"/>
  <outline>
    <contour>
      <point x="68" y="109" type="line" smooth="yes"/>
      <point x="68" y="28"/>
      <point x="114" y="-15"/>
      <point x="195" y="-15" type="curve" smooth="yes"/>
      <point x="242" y="-15"/>
      <point x="292" y="1"/>
      <point x="314" y="43" type="curve"/>
      <point x="275" y="52"/>
      <point x="262" y="76"/>
      <point x="262" y="116" type="curve" smooth="yes"/>
      <point x="262" y="465" type="line"/>
      <point x="353" y="465" type="line"/>
      <point x="353" y="510" type="line"/>
      <point x="262" y="510" type="line"/>
      <point x="262" y="619" type="line"/>
      <point x="207" y="619" type="line"/>
      <point x="157" y="570"/>
      <point x="70" y="519"/>
      <point x="5" y="496" type="curve"/>
      <point x="5" y="465" type="line"/>
      <point x="68" y="465" type="line"/>
    </contour>
    <contour>
      <point x="169" y="255" type="move" name="center"/>
    </contour>
    <contour>
      <point x="195" y="0" type="move" name="bottom"/>
    </contour>
    <contour>
      <point x="347" y="660" type="move" name="topright"/>
    </contour>
  </outline>
</glyph>
<glyph name="u" format="1">
  <advance width="603"/>
  <unicode hex="0075"/>
  <outline>
    <contour>
      <point x="355" y="510" type="line"/>
      <point x="355" y="162" type="line" smooth="yes"/>
      <point x="355" y="112"/>
      <point x="346" y="54"/>
      <point x="296" y="54" type="curve" smooth="yes"/>
      <point x="245" y="54"/>
      <point x="245" y="137"/>
      <point x="245" y="241" type="curve" smooth="yes"/>
      <point x="245" y="510" type="line"/>
      <point x="47" y="510" type="line"/>
      <point x="47" y="236" type="line" smooth="yes"/>
      <point x="47" y="81"/>
      <point x="73" y="-22"/>
      <point x="228" y="-22" type="curve" smooth="yes"/>
      <point x="286" y="-22"/>
      <point x="336" y="-4"/>
      <point x="368" y="45" type="curve"/>
      <point x="387" y="4"/>
      <point x="429" y="-15"/>
      <point x="488" y="-15" type="curve" smooth="yes"/>
      <point x="516" y="-15"/>
      <point x="559" y="-7"/>
      <point x="580" y="12" type="curve"/>
      <point x="556" y="43"/>
      <point x="549" y="77"/>
      <point x="549" y="116" type="curve" smooth="yes"/>
      <point x="549" y="510" type="line"/>
    </contour>
    <contour>
      <point x="578" y="10" type="move" name="ogonek"/>
    </contour>
    <contour>
      <point x="296" y="0" type="move" name="bottom"/>
    </contour>
    <contour>
      <point x="296" y="510" type="move" name="top"/>
    </contour>
  </outline>
</glyph>
<glyph name="v" format="1">
  <advance width="547"/>
  <unicode hex="0076"/>
  <outline>
    <contour>
      <point x="383" y="510" type="line"/>
      <point x="298" y="78" type="line"/>
      <point x="213" y="510" type="line"/>
      <point x="10" y="510" type="line"/>
      <point x="147" y="0" type="line"/>
      <point x="394" y="0" type="line"/>
      <point x="556" y="510" type="line"/>
    </contour>
  </outline>
</glyph>
<glyph name="w" format="1">
  <advance width="810"/>
  <unicode hex="0077"/>
  <outline>
    <contour>
      <point x="656" y="510" type="line"/>
      <point x="585" y="78" type="line"/>
      <point x="514" y="510" type="line"/>
      <point x="355" y="510" type="line"/>
      <point x="284" y="78" type="line"/>
      <point x="213" y="510" type="line"/>
      <point x="10" y="510" type="line"/>
      <point x="133" y="0" type="line"/>
      <point x="350" y="0" type="line"/>
      <point x="400" y="236" type="line"/>
      <point x="454" y="0" type="line"/>
      <point x="671" y="0" type="line"/>
      <point x="819" y="510" type="line"/>
    </contour>
    <contour>
      <point x="434" y="510" type="move" name="top"/>
    </contour>
  </outline>
</glyph>
<glyph name="x" format="1">
  <advance width="485"/>
  <unicode hex="0078"/>
  <outline>
    <contour>
      <point x="279" y="0" type="line"/>
      <point x="489" y="0" type="line"/>
      <point x="345" y="258" type="line"/>
      <point x="483" y="510" type="line"/>
      <point x="317" y="510" type="line"/>
      <point x="283" y="367" type="line"/>
      <point x="217" y="510" type="line"/>
      <point x="7" y="510" type="line"/>
      <point x="140" y="268" type="line"/>
      <point x="-7" y="0" type="line"/>
      <point x="159" y="0" type="line"/>
      <point x="206" y="164" type="line"/>
    </contour>
  </outline>
</glyph>
<glyph name="y" format="1">
  <advance width="530"/>
  <unicode hex="0079"/>
  <outline>
    <contour>
      <point x="376" y="510" type="line"/>
      <point x="291" y="137" type="line"/>
      <point x="213" y="510" type="line"/>
      <point x="10" y="510" type="line"/>
      <point x="136" y="59" type="line"/>
      <point x="210" y="59" type="line"/>
      <point x="93" y="-180" type="line"/>
      <point x="287" y="-193" type="line"/>
      <point x="535" y="510" type="line"/>
    </contour>
    <contour>
      <point x="291" y="510" type="move" name="top"/>
    </contour>
  </outline>
</glyph>
<glyph name="z" format="1">
  <advance width="431"/>
  <unicode hex="007A"/>
  <outline>
    <contour>
      <point x="30" y="510" type="line"/>
      <point x="20" y="412" type="line"/>
      <point x="194" y="425" type="line"/>
      <point x="1" y="59" type="line"/>
      <point x="7" y="0" type="line"/>
      <point x="408" y="0" type="line"/>
      <point x="418" y="98" type="line"/>
      <point x="222" y="84" type="line"/>
      <point x="416" y="451" type="line"/>
      <point x="410" y="510" type="line"/>
    </contour>
    <contour>
      <point x="216" y="510" type="move" name="top"/>
    </contour>
    <contour>
      <point x="201" y="0" type="move" name="bottom"/>
    </contour>
  </outline>
</glyph>
<glyph name="braceleft" format="1">
  <advance width="385"/>
  <unicode hex="007B"/>
  <outline>
    <contour>
      <point x="171" y="800"/>
      <point x="123" y="769"/>
      <point x="123" y="682" type="curve" smooth="yes"/>
      <point x="123" y="445" type="line" smooth="yes"/>
      <point x="123" y="378"/>
      <point x="93" y="347"/>
      <point x="27" y="347" type="curve"/>
      <point x="27" y="275" type="line"/>
      <point x="85" y="274"/>
      <point x="120" y="232"/>
      <point x="120" y="168" type="curve" smooth="yes"/>
      <point x="120" y="-79" type="line" smooth="yes"/>
      <point x="120" y="-172"/>
      <point x="183" y="-200"/>
      <point x="276" y="-200" type="curve" smooth="yes"/>
      <point x="301" y="-200"/>
      <point x="335" y="-198"/>
      <point x="380" y="-192" type="curve"/>
      <point x="380" y="-133" type="line"/>
      <point x="350" y="-133" type="line" smooth="yes"/>
      <point x="283" y="-133"/>
      <point x="272" y="-67"/>
      <point x="272" y="-9" type="curve" smooth="yes"/>
      <point x="272" y="199" type="line" smooth="yes"/>
      <point x="272" y="275"/>
      <point x="251" y="304"/>
      <point x="170" y="316" type="curve"/>
      <point x="243" y="325"/>
      <point x="272" y="354"/>
      <point x="272" y="419" type="curve" smooth="yes"/>
      <point x="271" y="646" type="line" smooth="yes"/>
      <point x="271" y="706"/>
      <point x="295" y="734"/>
      <point x="351" y="734" type="curve" smooth="yes"/>
      <point x="381" y="734" type="line"/>
      <point x="381" y="792" type="line"/>
      <point x="344" y="798"/>
      <point x="306" y="800"/>
      <point x="279" y="800" type="curve" smooth="yes"/>
    </contour>
  </outline>
</glyph>
<glyph name="bar" format="1">
  <advance width="310"/>
  <unicode hex="007C"/>
  <outline>
    <contour>
      <point x="228" y="-200" type="line"/>
      <point x="82" y="-200" type="line"/>
      <point x="82" y="800" type="line"/>
      <point x="228" y="800" type="line"/>
    </contour>
  </outline>
</glyph>
<glyph name="braceright" format="1">
  <advance width="385"/>
  <unicode hex="007D"/>
  <outline>
    <contour>
      <point x="114" y="646" type="line" smooth="yes"/>
      <point x="114" y="706"/>
      <point x="90" y="734"/>
      <point x="34" y="734" type="curve" smooth="yes"/>
      <point x="4" y="734" type="line"/>
      <point x="4" y="792" type="line"/>
      <point x="41" y="798"/>
      <point x="79" y="800"/>
      <point x="106" y="800" type="curve" smooth="yes"/>
      <point x="214" y="800"/>
      <point x="262" y="769"/>
      <point x="262" y="682" type="curve" smooth="yes"/>
      <point x="262" y="445" type="line" smooth="yes"/>
      <point x="262" y="378"/>
      <point x="292" y="347"/>
      <point x="358" y="347" type="curve"/>
      <point x="358" y="275" type="line"/>
      <point x="300" y="274"/>
      <point x="265" y="232"/>
      <point x="265" y="168" type="curve" smooth="yes"/>
      <point x="265" y="-79" type="line" smooth="yes"/>
      <point x="265" y="-172"/>
      <point x="202" y="-200"/>
      <point x="109" y="-200" type="curve" smooth="yes"/>
      <point x="84" y="-200"/>
      <point x="50" y="-198"/>
      <point x="5" y="-192" type="curve"/>
      <point x="5" y="-133" type="line"/>
      <point x="35" y="-133" type="line" smooth="yes"/>
      <point x="102" y="-133"/>
      <point x="113" y="-67"/>
      <point x="113" y="-9" type="curve" smooth="yes"/>
      <point x="113" y="199" type="line" smooth="yes"/>
      <point x="113" y="275"/>
      <point x="134" y="304"/>
      <point x="215" y="316" type="curve"/>
      <point x="142" y="325"/>
      <point x="113" y="354"/>
      <point x="113" y="419" type="curve" smooth="yes"/>
    </contour>
  </outline>
</glyph>
<glyph name="asciitilde" format="1">
  <advance width="620"/>
  <unicode hex="007E"/>
  <outline>
    <contour>
      <point x="445" y="261"/>
      <point x="478" y="266"/>
      <point x="491" y="289" type="curve"/>
      <point x="509" y="274"/>
      <point x="524" y="248"/>
      <point x="524" y="225" type="curve" smooth="yes"/>
      <point x="524" y="176"/>
      <point x="475" y="165"/>
      <point x="426" y="165" type="curve" smooth="yes"/>
      <point x="350" y="165"/>
      <point x="261" y="200"/>
      <point x="201" y="200" type="curve" smooth="yes"/>
      <point x="175" y="200"/>
      <point x="142" y="195"/>
      <point x="129" y="172" type="curve"/>
      <point x="111" y="187"/>
      <point x="96" y="213"/>
      <point x="96" y="236" type="curve" smooth="yes"/>
      <point x="96" y="285"/>
      <point x="145" y="296"/>
      <point x="194" y="296" type="curve" smooth="yes"/>
      <point x="270" y="296"/>
      <point x="359" y="261"/>
      <point x="419" y="261" type="curve" smooth="yes"/>
    </contour>
  </outline>
</glyph>
<glyph name="exclamdown" format="1">
  <advance width="252"/>
  <unicode hex="00A1"/>
  <outline>
    <contour>
      <point x="100" y="329"/>
      <point x="84" y="326"/>
      <point x="72" y="317" type="curve"/>
      <point x="49" y="61" type="line" smooth="yes"/>
      <point x="45" y="19"/>
      <point x="40" y="-33"/>
      <point x="40" y="-69" type="curve" smooth="yes"/>
      <point x="40" y="-133"/>
      <point x="69" y="-172"/>
      <point x="134" y="-172" type="curve" smooth="yes"/>
      <point x="165" y="-172"/>
      <point x="201" y="-161"/>
      <point x="221" y="-140" type="curve"/>
      <point x="191" y="236" type="line"/>
      <point x="186" y="295"/>
      <point x="179" y="329"/>
      <point x="119" y="329" type="curve" smooth="yes"/>
    </contour>
    <component base="period" yOffset="389"/>
  </outline>
</glyph>
<glyph name="cent" format="1">
  <advance width="620"/>
  <unicode hex="00A2"/>
  <outline>
    <contour>
      <point x="184" y="594"/>
      <point x="75" y="499"/>
      <point x="75" y="323" type="curve" smooth="yes"/>
      <point x="75" y="149"/>
      <point x="178" y="42"/>
      <point x="364" y="42" type="curve" smooth="yes"/>
      <point x="461" y="42"/>
      <point x="553" y="88"/>
      <point x="553" y="185" type="curve" smooth="yes"/>
      <point x="553" y="210"/>
      <point x="540" y="234"/>
      <point x="515" y="240" type="curve"/>
      <point x="494" y="191"/>
      <point x="456" y="162"/>
      <point x="403" y="162" type="curve" smooth="yes"/>
      <point x="296" y="162"/>
      <point x="273" y="237"/>
      <point x="273" y="328" type="curve" smooth="yes"/>
      <point x="273" y="408"/>
      <point x="281" y="534"/>
      <point x="358" y="534" type="curve" smooth="yes"/>
      <point x="400" y="534"/>
      <point x="405" y="487"/>
      <point x="405" y="445" type="curve" smooth="yes"/>
      <point x="405" y="429"/>
      <point x="403" y="411"/>
      <point x="401" y="395" type="curve"/>
      <point x="412" y="388"/>
      <point x="441" y="386"/>
      <point x="454" y="386" type="curve" smooth="yes"/>
      <point x="512" y="386"/>
      <point x="566" y="410"/>
      <point x="566" y="468" type="curve" smooth="yes"/>
      <point x="566" y="566"/>
      <point x="470" y="594"/>
      <point x="372" y="594" type="curve" smooth="yes"/>
    </contour>
    <contour>
      <point x="284" y="-38" type="line"/>
      <point x="296" y="-43"/>
      <point x="312" y="-49"/>
      <point x="328" y="-49" type="curve" smooth="yes"/>
      <point x="366" y="-49"/>
      <point x="384" y="-23"/>
      <point x="384" y="13" type="curve" smooth="yes"/>
      <point x="384" y="129" type="line"/>
      <point x="284" y="138" type="line"/>
    </contour>
    <contour>
      <point x="300" y="688"/>
      <point x="282" y="662"/>
      <point x="282" y="626" type="curve" smooth="yes"/>
      <point x="282" y="548" type="line"/>
      <point x="382" y="565" type="line"/>
      <point x="382" y="677" type="line"/>
      <point x="370" y="682"/>
      <point x="354" y="688"/>
      <point x="338" y="688" type="curve" smooth="yes"/>
    </contour>
  </outline>
</glyph>
<glyph name="sterling" format="1">
  <advance width="620"/>
  <unicode hex="00A3"/>
  <outline>
    <contour>
      <point x="81" y="402" type="line" smooth="yes"/>
      <point x="48" y="402"/>
      <point x="27" y="386"/>
      <point x="27" y="352" type="curve" smooth="yes"/>
      <point x="27" y="346"/>
      <point x="28" y="335"/>
      <point x="30" y="328" type="curve"/>
      <point x="406" y="328" type="line" smooth="yes"/>
      <point x="440" y="328"/>
      <point x="461" y="344"/>
      <point x="461" y="378" type="curve" smooth="yes"/>
      <point x="461" y="383"/>
      <point x="460" y="395"/>
      <point x="458" y="402" type="curve"/>
    </contour>
    <contour>
      <point x="405" y="603"/>
      <point x="416" y="552"/>
      <point x="416" y="504" type="curve" smooth="yes"/>
      <point x="416" y="482"/>
      <point x="414" y="461"/>
      <point x="410" y="439" type="curve"/>
      <point x="426" y="434"/>
      <point x="447" y="432"/>
      <point x="462" y="432" type="curve" smooth="yes"/>
      <point x="530" y="432"/>
      <point x="586" y="463"/>
      <point x="586" y="535" type="curve" smooth="yes"/>
      <point x="586" y="632"/>
      <point x="460" y="660"/>
      <point x="363" y="660" type="curve" smooth="yes"/>
      <point x="231" y="660"/>
      <point x="111" y="621"/>
      <point x="111" y="489" type="curve" smooth="yes"/>
      <point x="111" y="277" type="line" smooth="yes"/>
      <point x="111" y="187"/>
      <point x="109" y="128"/>
      <point x="45" y="100" type="curve"/>
      <point x="56" y="0" type="line"/>
      <point x="556" y="0" type="line"/>
      <point x="567" y="145" type="line"/>
      <point x="204" y="133" type="line"/>
      <point x="279" y="161"/>
      <point x="307" y="215"/>
      <point x="307" y="301" type="curve" smooth="yes"/>
      <point x="307" y="498" type="line" smooth="yes"/>
      <point x="307" y="556"/>
      <point x="308" y="603"/>
      <point x="356" y="603" type="curve" smooth="yes"/>
    </contour>
  </outline>
</glyph>
<glyph name="currency" format="1">
  <advance width="620"/>
  <unicode hex="00A4"/>
  <outline>
    <contour>
      <point x="195" y="161"/>
      <point x="305" y="161" type="curve" smooth="yes"/>
      <point x="411" y="161"/>
      <point x="498" y="226"/>
      <point x="498" y="338" type="curve" smooth="yes"/>
      <point x="498" y="444"/>
      <point x="413" y="515"/>
      <point x="305" y="515" type="curve" smooth="yes"/>
      <point x="203" y="515"/>
      <point x="112" y="449"/>
      <point x="112" y="338" type="curve" smooth="yes"/>
      <point x="112" y="230"/>
    </contour>
    <contour>
      <point x="348" y="419"/>
      <point x="374" y="388"/>
      <point x="374" y="338" type="curve" smooth="yes"/>
      <point x="374" y="288"/>
      <point x="348" y="257"/>
      <point x="305" y="257" type="curve" smooth="yes"/>
      <point x="262" y="257"/>
      <point x="236" y="288"/>
      <point x="236" y="338" type="curve" smooth="yes"/>
      <point x="236" y="388"/>
      <point x="262" y="419"/>
      <point x="305" y="419" type="curve" smooth="yes"/>
    </contour>
    <contour>
      <point x="220" y="474" type="line"/>
      <point x="114" y="577" type="line"/>
      <point x="62" y="507" type="line"/>
      <point x="164" y="418" type="line"/>
    </contour>
    <contour>
      <point x="439" y="425" type="line"/>
      <point x="537" y="517" type="line"/>
      <point x="470" y="580" type="line"/>
      <point x="379" y="481" type="line"/>
    </contour>
    <contour>
      <point x="395" y="203" type="line"/>
      <point x="504" y="104" type="line"/>
      <point x="558" y="172" type="line"/>
      <point x="448" y="263" type="line"/>
    </contour>
    <contour>
      <point x="166" y="256" type="line"/>
      <point x="67" y="161" type="line"/>
      <point x="133" y="97" type="line"/>
      <point x="228" y="196" type="line"/>
    </contour>
  </outline>
</glyph>
<glyph name="yen" format="1">
  <advance width="620"/>
  <unicode hex="00A5"/>
  <outline>
    <contour>
      <point x="425" y="660" type="line"/>
      <point x="349" y="399" type="line"/>
      <point x="256" y="660" type="line"/>
      <point x="39" y="660" type="line"/>
      <point x="201" y="290" type="line"/>
      <point x="201" y="0" type="line"/>
      <point x="413" y="0" type="line"/>
      <point x="413" y="299" type="line"/>
      <point x="582" y="660" type="line"/>
    </contour>
    <contour>
      <point x="148" y="208" type="line" smooth="yes"/>
      <point x="115" y="208"/>
      <point x="94" y="192"/>
      <point x="94" y="158" type="curve" smooth="yes"/>
      <point x="94" y="152"/>
      <point x="95" y="141"/>
      <point x="97" y="134" type="curve"/>
      <point x="473" y="134" type="line" smooth="yes"/>
      <point x="507" y="134"/>
      <point x="528" y="150"/>
      <point x="528" y="184" type="curve" smooth="yes"/>
      <point x="528" y="189"/>
      <point x="527" y="201"/>
      <point x="525" y="208" type="curve"/>
    </contour>
    <contour>
      <point x="148" y="342" type="line" smooth="yes"/>
      <point x="115" y="342"/>
      <point x="94" y="326"/>
      <point x="94" y="292" type="curve" smooth="yes"/>
      <point x="94" y="286"/>
      <point x="95" y="275"/>
      <point x="97" y="268" type="curve"/>
      <point x="473" y="268" type="line" smooth="yes"/>
      <point x="507" y="268"/>
      <point x="528" y="284"/>
      <point x="528" y="318" type="curve" smooth="yes"/>
      <point x="528" y="323"/>
      <point x="527" y="335"/>
      <point x="525" y="342" type="curve"/>
    </contour>
  </outline>
</glyph>
<glyph name="brokenbar" format="1">
  <advance width="312"/>
  <unicode hex="00A6"/>
  <outline>
    <contour>
      <point x="85" y="388" type="line"/>
      <point x="85" y="660" type="line"/>
      <point x="230" y="660" type="line"/>
      <point x="230" y="388" type="line"/>
    </contour>
    <contour>
      <point x="82" y="0" type="line"/>
      <point x="82" y="272" type="line"/>
      <point x="227" y="272" type="line"/>
      <point x="227" y="0" type="line"/>
    </contour>
  </outline>
</glyph>
<glyph name="section" format="1">
  <advance width="433"/>
  <unicode hex="00A7"/>
  <outline>
    <contour>
      <point x="104" y="383"/>
      <point x="20" y="306"/>
      <point x="20" y="202" type="curve" smooth="yes"/>
      <point x="20" y="41"/>
      <point x="257" y="43"/>
      <point x="257" y="-70" type="curve" smooth="yes"/>
      <point x="257" y="-104"/>
      <point x="237" y="-128"/>
      <point x="203" y="-128" type="curve" smooth="yes"/>
      <point x="159" y="-128"/>
      <point x="150" y="-90"/>
      <point x="150" y="-46" type="curve" smooth="yes"/>
      <point x="150" y="-35"/>
      <point x="151" y="-19"/>
      <point x="153" y="-8" type="curve"/>
      <point x="142" y="0"/>
      <point x="127" y="3"/>
      <point x="113" y="3" type="curve" smooth="yes"/>
      <point x="63" y="3"/>
      <point x="31" y="-33"/>
      <point x="31" y="-79" type="curve" smooth="yes"/>
      <point x="31" y="-157"/>
      <point x="112" y="-180"/>
      <point x="190" y="-180" type="curve" smooth="yes"/>
      <point x="295" y="-180"/>
      <point x="393" y="-130"/>
      <point x="393" y="-25" type="curve" smooth="yes"/>
      <point x="393" y="136"/>
      <point x="140" y="159"/>
      <point x="140" y="272" type="curve" smooth="yes"/>
      <point x="140" y="308"/>
      <point x="160" y="343"/>
      <point x="212" y="361" type="curve"/>
      <point x="175" y="399" type="line"/>
    </contour>
    <contour>
      <point x="138" y="680"/>
      <point x="40" y="630"/>
      <point x="40" y="525" type="curve" smooth="yes"/>
      <point x="40" y="364"/>
      <point x="293" y="341"/>
      <point x="293" y="228" type="curve" smooth="yes"/>
      <point x="293" y="199"/>
      <point x="278" y="164"/>
      <point x="236" y="138" type="curve"/>
      <point x="281" y="103" type="line"/>
      <point x="361" y="152"/>
      <point x="413" y="232"/>
      <point x="413" y="298" type="curve" smooth="yes"/>
      <point x="413" y="459"/>
      <point x="176" y="457"/>
      <point x="176" y="570" type="curve" smooth="yes"/>
      <point x="176" y="604"/>
      <point x="196" y="628"/>
      <point x="230" y="628" type="curve" smooth="yes"/>
      <point x="274" y="628"/>
      <point x="283" y="590"/>
      <point x="283" y="546" type="curve" smooth="yes"/>
      <point x="283" y="535"/>
      <point x="282" y="519"/>
      <point x="280" y="508" type="curve"/>
      <point x="291" y="500"/>
      <point x="306" y="497"/>
      <point x="320" y="497" type="curve" smooth="yes"/>
      <point x="370" y="497"/>
      <point x="402" y="533"/>
      <point x="402" y="579" type="curve" smooth="yes"/>
      <point x="402" y="657"/>
      <point x="321" y="680"/>
      <point x="243" y="680" type="curve" smooth="yes"/>
    </contour>
  </outline>
</glyph>
<glyph name="dieresis" format="1">
  <advance width="444"/>
  <unicode hex="00A8"/>
  <outline>
    <component base="dotaccent" xOffset="229"/>
    <component base="dotaccent"/>
    <contour>
      <point x="223" y="510" type="move" name="_top"/>
    </contour>
  </outline>
</glyph>
<glyph name="copyright" format="1">
  <advance width="752"/>
  <unicode hex="00A9"/>
  <outline>
    <contour>
      <point x="171" y="615"/>
      <point x="20" y="468"/>
      <point x="20" y="263" type="curve" smooth="yes"/>
      <point x="20" y="55"/>
      <point x="168" y="-79"/>
      <point x="376" y="-79" type="curve" smooth="yes"/>
      <point x="584" y="-79"/>
      <point x="732" y="55"/>
      <point x="732" y="263" type="curve" smooth="yes"/>
      <point x="732" y="468"/>
      <point x="581" y="615"/>
      <point x="376" y="615" type="curve" smooth="yes"/>
    </contour>
    <contour>
      <point x="270" y="468"/>
      <point x="198" y="401"/>
      <point x="198" y="275" type="curve" smooth="yes"/>
      <point x="198" y="152"/>
      <point x="265" y="76"/>
      <point x="389" y="76" type="curve" smooth="yes"/>
      <point x="458" y="76"/>
      <point x="523" y="109"/>
      <point x="523" y="178" type="curve" smooth="yes"/>
      <point x="523" y="195"/>
      <point x="514" y="212"/>
      <point x="496" y="217" type="curve"/>
      <point x="481" y="182"/>
      <point x="454" y="162"/>
      <point x="416" y="162" type="curve" smooth="yes"/>
      <point x="352" y="162"/>
      <point x="338" y="214"/>
      <point x="338" y="279" type="curve" smooth="yes"/>
      <point x="338" y="336"/>
      <point x="342" y="426"/>
      <point x="385" y="426" type="curve" smooth="yes"/>
      <point x="414" y="426"/>
      <point x="418" y="392"/>
      <point x="418" y="362" type="curve" smooth="yes"/>
      <point x="418" y="351"/>
      <point x="416" y="338"/>
      <point x="415" y="326" type="curve"/>
      <point x="422" y="322"/>
      <point x="443" y="320"/>
      <point x="453" y="320" type="curve" smooth="yes"/>
      <point x="494" y="320"/>
      <point x="532" y="338"/>
      <point x="532" y="378" type="curve" smooth="yes"/>
      <point x="532" y="448"/>
      <point x="464" y="468"/>
      <point x="394" y="468" type="curve" smooth="yes"/>
    </contour>
    <contour>
      <point x="537" y="542"/>
      <point x="628" y="424"/>
      <point x="628" y="263" type="curve" smooth="yes"/>
      <point x="628" y="99"/>
      <point x="540" y="-6"/>
      <point x="376" y="-6" type="curve" smooth="yes"/>
      <point x="212" y="-6"/>
      <point x="124" y="99"/>
      <point x="124" y="263" type="curve" smooth="yes"/>
      <point x="124" y="424"/>
      <point x="215" y="542"/>
      <point x="376" y="542" type="curve" smooth="yes"/>
    </contour>
  </outline>
</glyph>
<glyph name="ordfeminine" format="1">
  <advance width="464"/>
  <unicode hex="00AA"/>
  <outline>
    <contour>
      <point x="155" y="674"/>
      <point x="51" y="658"/>
      <point x="51" y="584" type="curve" smooth="yes"/>
      <point x="51" y="541"/>
      <point x="91" y="524"/>
      <point x="135" y="524" type="curve" smooth="yes"/>
      <point x="144" y="524"/>
      <point x="167" y="525"/>
      <point x="175" y="530" type="curve"/>
      <point x="174" y="542"/>
      <point x="172" y="556"/>
      <point x="172" y="568" type="curve" smooth="yes"/>
      <point x="172" y="608"/>
      <point x="183" y="629"/>
      <point x="217" y="629" type="curve" smooth="yes"/>
      <point x="251" y="629"/>
      <point x="256" y="603"/>
      <point x="256" y="568" type="curve" smooth="yes"/>
      <point x="256" y="503" type="line"/>
      <point x="148" y="503"/>
      <point x="28" y="490"/>
      <point x="28" y="387" type="curve" smooth="yes"/>
      <point x="28" y="312"/>
      <point x="99" y="279"/>
      <point x="175" y="279" type="curve" smooth="yes"/>
      <point x="215" y="279"/>
      <point x="256" y="294"/>
      <point x="269" y="332" type="curve"/>
      <point x="283" y="298"/>
      <point x="311" y="284"/>
      <point x="356" y="284" type="curve" smooth="yes"/>
      <point x="381" y="284"/>
      <point x="409" y="291"/>
      <point x="426" y="306" type="curve"/>
      <point x="409" y="329"/>
      <point x="404" y="353"/>
      <point x="404" y="381" type="curve" smooth="yes"/>
      <point x="404" y="539" type="line" smooth="yes"/>
      <point x="404" y="649"/>
      <point x="334" y="674"/>
      <point x="225" y="674" type="curve" smooth="yes"/>
    </contour>
    <contour>
      <point x="112" y="236" type="line" smooth="yes"/>
      <point x="76" y="236"/>
      <point x="58" y="229"/>
      <point x="58" y="193" type="curve" smooth="yes"/>
      <point x="58" y="183"/>
      <point x="62" y="167"/>
      <point x="65" y="158" type="curve"/>
      <point x="352" y="158" type="line" smooth="yes"/>
      <point x="388" y="158"/>
      <point x="406" y="165"/>
      <point x="406" y="201" type="curve" smooth="yes"/>
      <point x="406" y="211"/>
      <point x="402" y="227"/>
      <point x="399" y="236" type="curve"/>
    </contour>
    <contour>
      <point x="256" y="403" type="line" smooth="yes"/>
      <point x="256" y="372"/>
      <point x="246" y="337"/>
      <point x="214" y="337" type="curve" smooth="yes"/>
      <point x="185" y="337"/>
      <point x="174" y="361"/>
      <point x="174" y="391" type="curve" smooth="yes"/>
      <point x="174" y="442"/>
      <point x="205" y="460"/>
      <point x="256" y="460" type="curve"/>
    </contour>
  </outline>
</glyph>
<glyph name="guillemotleft" format="1">
  <advance width="518"/>
  <unicode hex="00AB"/>
  <outline>
    <contour>
      <point x="7" y="317" type="line"/>
      <point x="137" y="126" type="line"/>
      <point x="254" y="126" type="line"/>
      <point x="171" y="317" type="line"/>
      <point x="258" y="510" type="line"/>
      <point x="138" y="510" type="line"/>
    </contour>
    <contour>
      <point x="236" y="317" type="line"/>
      <point x="366" y="126" type="line"/>
      <point x="483" y="126" type="line"/>
      <point x="400" y="317" type="line"/>
      <point x="487" y="510" type="line"/>
      <point x="367" y="510" type="line"/>
    </contour>
  </outline>
</glyph>
<glyph name="logicalnot" format="1">
  <advance width="620"/>
  <unicode hex="00AC"/>
  <outline>
    <contour>
      <point x="133" y="290" type="line" smooth="yes"/>
      <point x="96" y="290"/>
      <point x="71" y="272"/>
      <point x="71" y="235" type="curve" smooth="yes"/>
      <point x="71" y="219"/>
      <point x="76" y="203"/>
      <point x="82" y="191" type="curve"/>
      <point x="418" y="191" type="line"/>
      <point x="418" y="65" type="line" smooth="yes"/>
      <point x="418" y="25"/>
      <point x="438" y="-3"/>
      <point x="479" y="-3" type="curve" smooth="yes"/>
      <point x="496" y="-3"/>
      <point x="514" y="3"/>
      <point x="527" y="9" type="curve"/>
      <point x="527" y="290" type="line"/>
    </contour>
  </outline>
</glyph>
<glyph name="uni00AD" format="1">
  <advance width="373"/>
  <unicode hex="00AD"/>
  <outline>
    <contour>
      <point x="272" y="194" type="line" smooth="yes"/>
      <point x="318" y="197"/>
      <point x="344" y="216"/>
      <point x="344" y="263" type="curve" smooth="yes"/>
      <point x="344" y="270"/>
      <point x="342" y="290"/>
      <point x="337" y="300" type="curve"/>
      <point x="100" y="288" type="line" smooth="yes"/>
      <point x="55" y="285"/>
      <point x="29" y="266"/>
      <point x="29" y="219" type="curve" smooth="yes"/>
      <point x="29" y="211"/>
      <point x="31" y="192"/>
      <point x="35" y="182" type="curve"/>
    </contour>
  </outline>
</glyph>
<glyph name="registered" format="1">
  <advance width="752"/>
  <unicode hex="00AE"/>
  <outline>
    <contour>
      <point x="171" y="680"/>
      <point x="20" y="533"/>
      <point x="20" y="328" type="curve" smooth="yes"/>
      <point x="20" y="120"/>
      <point x="168" y="-14"/>
      <point x="376" y="-14" type="curve" smooth="yes"/>
      <point x="584" y="-14"/>
      <point x="732" y="120"/>
      <point x="732" y="328" type="curve" smooth="yes"/>
      <point x="732" y="533"/>
      <point x="581" y="680"/>
      <point x="376" y="680" type="curve" smooth="yes"/>
    </contour>
    <contour>
      <point x="537" y="607"/>
      <point x="628" y="489"/>
      <point x="628" y="328" type="curve" smooth="yes"/>
      <point x="628" y="164"/>
      <point x="540" y="59"/>
      <point x="376" y="59" type="curve" smooth="yes"/>
      <point x="212" y="59"/>
      <point x="124" y="164"/>
      <point x="124" y="328" type="curve" smooth="yes"/>
      <point x="124" y="489"/>
      <point x="215" y="607"/>
      <point x="376" y="607" type="curve" smooth="yes"/>
    </contour>
    <contour>
      <point x="321" y="531"/>
      <point x="276" y="528"/>
      <point x="224" y="523" type="curve"/>
      <point x="224" y="152" type="line"/>
      <point x="345" y="152" type="line"/>
      <point x="345" y="485" type="line"/>
      <point x="353" y="487"/>
      <point x="361" y="489"/>
      <point x="369" y="489" type="curve" smooth="yes"/>
      <point x="406" y="489"/>
      <point x="414" y="453"/>
      <point x="414" y="415" type="curve" smooth="yes"/>
      <point x="414" y="372"/>
      <point x="404" y="344"/>
      <point x="361" y="344" type="curve"/>
      <point x="361" y="336"/>
      <point x="364" y="329"/>
      <point x="367" y="322" type="curve" smooth="yes"/>
      <point x="434" y="152" type="line"/>
      <point x="557" y="152" type="line"/>
      <point x="466" y="311" type="line"/>
      <point x="508" y="328"/>
      <point x="533" y="366"/>
      <point x="533" y="417" type="curve" smooth="yes"/>
      <point x="533" y="510"/>
      <point x="462" y="531"/>
      <point x="369" y="531" type="curve" smooth="yes"/>
    </contour>
  </outline>
</glyph>
<glyph name="macron" format="1">
  <advance width="327"/>
  <unicode hex="00AF"/>
  <outline>
    <contour>
      <point x="67" y="713" type="line" smooth="yes"/>
      <point x="32" y="713"/>
      <point x="10" y="692"/>
      <point x="10" y="660" type="curve" smooth="yes"/>
      <point x="10" y="644"/>
      <point x="13" y="631"/>
      <point x="19" y="621" type="curve"/>
      <point x="260" y="621" type="line" smooth="yes"/>
      <point x="295" y="621"/>
      <point x="317" y="642"/>
      <point x="317" y="674" type="curve" smooth="yes"/>
      <point x="317" y="690"/>
      <point x="314" y="703"/>
      <point x="308" y="713" type="curve"/>
    </contour>
    <contour>
      <point x="164" y="510" type="move" name="_top"/>
    </contour>
  </outline>
</glyph>
<glyph name="degree" format="1">
  <advance width="363"/>
  <unicode hex="00B0"/>
  <outline>
    <contour>
      <point x="277" y="370"/>
      <point x="349" y="434"/>
      <point x="349" y="529" type="curve" smooth="yes"/>
      <point x="349" y="627"/>
      <point x="279" y="684"/>
      <point x="181" y="684" type="curve" smooth="yes"/>
      <point x="84" y="684"/>
      <point x="14" y="627"/>
      <point x="14" y="529" type="curve" smooth="yes"/>
      <point x="14" y="434"/>
      <point x="86" y="370"/>
      <point x="181" y="370" type="curve" smooth="yes"/>
    </contour>
    <contour>
      <point x="131" y="434"/>
      <point x="113" y="479"/>
      <point x="113" y="529" type="curve" smooth="yes"/>
      <point x="113" y="578"/>
      <point x="133" y="620"/>
      <point x="181" y="620" type="curve" smooth="yes"/>
      <point x="230" y="620"/>
      <point x="250" y="578"/>
      <point x="250" y="529" type="curve" smooth="yes"/>
      <point x="250" y="478"/>
      <point x="232" y="434"/>
      <point x="181" y="434" type="curve" smooth="yes"/>
    </contour>
  </outline>
</glyph>
<glyph name="plusminus" format="1">
  <advance width="620"/>
  <unicode hex="00B1"/>
  <outline>
    <contour>
      <point x="276" y="484"/>
      <point x="256" y="456"/>
      <point x="256" y="416" type="curve" smooth="yes"/>
      <point x="256" y="147" type="line"/>
      <point x="269" y="141"/>
      <point x="287" y="137"/>
      <point x="304" y="137" type="curve" smooth="yes"/>
      <point x="345" y="137"/>
      <point x="366" y="165"/>
      <point x="366" y="205" type="curve" smooth="yes"/>
      <point x="366" y="474" type="line"/>
      <point x="353" y="480"/>
      <point x="334" y="484"/>
      <point x="317" y="484" type="curve" smooth="yes"/>
    </contour>
    <contour>
      <point x="180" y="99" type="line" smooth="yes"/>
      <point x="143" y="99"/>
      <point x="118" y="81"/>
      <point x="118" y="44" type="curve" smooth="yes"/>
      <point x="118" y="28"/>
      <point x="123" y="12"/>
      <point x="129" y="0" type="curve"/>
      <point x="440" y="0" type="line" smooth="yes"/>
      <point x="477" y="0"/>
      <point x="502" y="18"/>
      <point x="502" y="55" type="curve" smooth="yes"/>
      <point x="502" y="71"/>
      <point x="497" y="87"/>
      <point x="491" y="99" type="curve"/>
    </contour>
    <contour>
      <point x="180" y="360" type="line" smooth="yes"/>
      <point x="143" y="360"/>
      <point x="118" y="342"/>
      <point x="118" y="305" type="curve" smooth="yes"/>
      <point x="118" y="289"/>
      <point x="123" y="273"/>
      <point x="129" y="261" type="curve"/>
      <point x="440" y="261" type="line" smooth="yes"/>
      <point x="477" y="261"/>
      <point x="502" y="279"/>
      <point x="502" y="316" type="curve" smooth="yes"/>
      <point x="502" y="332"/>
      <point x="497" y="348"/>
      <point x="491" y="360" type="curve"/>
    </contour>
  </outline>
</glyph>
<glyph name="uni00B2" format="1">
  <advance width="358"/>
  <unicode hex="00B2"/>
  <outline>
    <contour>
      <point x="106" y="674"/>
      <point x="25" y="651"/>
      <point x="25" y="589" type="curve" smooth="yes"/>
      <point x="25" y="572"/>
      <point x="33" y="557"/>
      <point x="48" y="548" type="curve"/>
      <point x="64" y="574"/>
      <point x="89" y="586"/>
      <point x="119" y="586" type="curve" smooth="yes"/>
      <point x="154" y="586"/>
      <point x="177" y="567"/>
      <point x="177" y="532" type="curve" smooth="yes"/>
      <point x="177" y="473"/>
      <point x="131" y="422"/>
      <point x="79" y="376" type="curve" smooth="yes"/>
      <point x="63" y="363"/>
      <point x="47" y="349"/>
      <point x="31" y="336" type="curve"/>
      <point x="35" y="285" type="line"/>
      <point x="318" y="285" type="line"/>
      <point x="318" y="378" type="line"/>
      <point x="169" y="372" type="line"/>
      <point x="183" y="382"/>
      <point x="199" y="393"/>
      <point x="214" y="405" type="curve" smooth="yes"/>
      <point x="268" y="446"/>
      <point x="320" y="497"/>
      <point x="320" y="560" type="curve" smooth="yes"/>
      <point x="320" y="641"/>
      <point x="249" y="674"/>
      <point x="167" y="674" type="curve" smooth="yes"/>
    </contour>
  </outline>
</glyph>
<glyph name="uni00B3" format="1">
  <advance width="349"/>
  <unicode hex="00B3"/>
  <outline>
    <contour>
      <point x="100" y="674"/>
      <point x="30" y="651"/>
      <point x="30" y="590" type="curve" smooth="yes"/>
      <point x="30" y="572"/>
      <point x="37" y="558"/>
      <point x="52" y="549" type="curve"/>
      <point x="69" y="578"/>
      <point x="90" y="596"/>
      <point x="124" y="596" type="curve" smooth="yes"/>
      <point x="153" y="596"/>
      <point x="173" y="580"/>
      <point x="173" y="551" type="curve" smooth="yes"/>
      <point x="173" y="511"/>
      <point x="131" y="502"/>
      <point x="91" y="502" type="curve"/>
      <point x="91" y="449" type="line"/>
      <point x="99" y="450"/>
      <point x="110" y="450"/>
      <point x="119" y="450" type="curve" smooth="yes"/>
      <point x="151" y="450"/>
      <point x="170" y="434"/>
      <point x="170" y="403" type="curve" smooth="yes"/>
      <point x="170" y="373"/>
      <point x="150" y="358"/>
      <point x="119" y="358" type="curve" smooth="yes"/>
      <point x="90" y="358"/>
      <point x="61" y="369"/>
      <point x="40" y="390" type="curve"/>
      <point x="30" y="382"/>
      <point x="25" y="369"/>
      <point x="25" y="355" type="curve" smooth="yes"/>
      <point x="25" y="293"/>
      <point x="95" y="271"/>
      <point x="157" y="271" type="curve" smooth="yes"/>
      <point x="246" y="271"/>
      <point x="311" y="314"/>
      <point x="311" y="395" type="curve" smooth="yes"/>
      <point x="311" y="453"/>
      <point x="274" y="484"/>
      <point x="213" y="491" type="curve"/>
      <point x="266" y="506"/>
      <point x="292" y="537"/>
      <point x="292" y="583" type="curve" smooth="yes"/>
      <point x="292" y="649"/>
      <point x="229" y="674"/>
      <point x="161" y="674" type="curve" smooth="yes"/>
    </contour>
  </outline>
</glyph>
<glyph name="acute" format="1">
  <advance width="293"/>
  <unicode hex="00B4"/>
  <outline>
    <contour>
      <point x="32" y="574" type="line"/>
      <point x="172" y="614" type="line" smooth="yes"/>
      <point x="224" y="629"/>
      <point x="283" y="645"/>
      <point x="283" y="697" type="curve" smooth="yes"/>
      <point x="283" y="727"/>
      <point x="257" y="758"/>
      <point x="229" y="771" type="curve"/>
      <point x="10" y="621" type="line"/>
    </contour>
    <contour>
      <point x="112" y="510" type="move" name="_top"/>
    </contour>
  </outline>
</glyph>
<glyph name="cedilla" format="1">
  <advance width="272"/>
  <unicode hex="00B8"/>
  <outline>
    <contour>
      <point x="79" y="11" type="line"/>
      <point x="34" y="-112" type="line"/>
      <point x="47" y="-111"/>
      <point x="61" y="-110"/>
      <point x="74" y="-110" type="curve" smooth="yes"/>
      <point x="107" y="-110"/>
      <point x="141" y="-116"/>
      <point x="141" y="-151" type="curve" smooth="yes"/>
      <point x="141" y="-174"/>
      <point x="122" y="-190"/>
      <point x="101" y="-190" type="curve" smooth="yes"/>
      <point x="61" y="-190"/>
      <point x="38" y="-178"/>
      <point x="22" y="-158" type="curve"/>
      <point x="14" y="-167"/>
      <point x="10" y="-180"/>
      <point x="10" y="-197" type="curve" smooth="yes"/>
      <point x="10" y="-248"/>
      <point x="77" y="-258"/>
      <point x="117" y="-258" type="curve" smooth="yes"/>
      <point x="188" y="-258"/>
      <point x="262" y="-225"/>
      <point x="262" y="-154" type="curve" smooth="yes"/>
      <point x="262" y="-83"/>
      <point x="209" y="-57"/>
      <point x="138" y="-57" type="curve" smooth="yes"/>
      <point x="125" y="-57"/>
      <point x="106" y="-59"/>
      <point x="97" y="-60" type="curve"/>
      <point x="108" y="-69" type="line"/>
      <point x="139" y="11" type="line"/>
    </contour>
    <contour>
      <point x="130" y="0" type="move" name="_bottom"/>
    </contour>
  </outline>
</glyph>
<glyph name="uni00B9" format="1">
  <advance width="347"/>
  <unicode hex="00B9"/>
  <outline>
    <contour>
      <point x="261" y="665" type="line"/>
      <point x="210" y="680" type="line"/>
      <point x="153" y="645"/>
      <point x="88" y="619"/>
      <point x="24" y="598" type="curve"/>
      <point x="24" y="561"/>
      <point x="30" y="530"/>
      <point x="67" y="530" type="curve" smooth="yes"/>
      <point x="85" y="530"/>
      <point x="104" y="537"/>
      <point x="118" y="549" type="curve"/>
      <point x="118" y="347" type="line"/>
      <point x="48" y="347" type="line"/>
      <point x="48" y="285" type="line"/>
      <point x="329" y="285" type="line"/>
      <point x="329" y="347" type="line"/>
      <point x="261" y="347" type="line"/>
    </contour>
  </outline>
</glyph>
<glyph name="ordmasculine" format="1">
  <advance width="434"/>
  <unicode hex="00BA"/>
  <outline>
    <contour>
      <point x="337" y="158" type="line" smooth="yes"/>
      <point x="373" y="158"/>
      <point x="391" y="165"/>
      <point x="391" y="201" type="curve" smooth="yes"/>
      <point x="391" y="211"/>
      <point x="387" y="227"/>
      <point x="384" y="236" type="curve"/>
      <point x="97" y="236" type="line" smooth="yes"/>
      <point x="61" y="236"/>
      <point x="43" y="229"/>
      <point x="43" y="193" type="curve" smooth="yes"/>
      <point x="43" y="183"/>
      <point x="47" y="167"/>
      <point x="50" y="158" type="curve"/>
    </contour>
    <contour>
      <point x="96" y="674"/>
      <point x="28" y="598"/>
      <point x="28" y="476" type="curve" smooth="yes"/>
      <point x="28" y="359"/>
      <point x="102" y="280"/>
      <point x="219" y="280" type="curve" smooth="yes"/>
      <point x="340" y="280"/>
      <point x="410" y="362"/>
      <point x="410" y="483" type="curve" smooth="yes"/>
      <point x="410" y="606"/>
      <point x="342" y="674"/>
      <point x="219" y="674" type="curve" smooth="yes"/>
    </contour>
    <contour>
      <point x="178" y="328"/>
      <point x="177" y="421"/>
      <point x="177" y="479" type="curve" smooth="yes"/>
      <point x="177" y="537"/>
      <point x="178" y="626"/>
      <point x="219" y="626" type="curve" smooth="yes"/>
      <point x="259" y="626"/>
      <point x="260" y="537"/>
      <point x="260" y="479" type="curve" smooth="yes"/>
      <point x="260" y="421"/>
      <point x="259" y="328"/>
      <point x="219" y="328" type="curve" smooth="yes"/>
    </contour>
  </outline>
</glyph>
<glyph name="guillemotright" format="1">
  <advance width="518"/>
  <unicode hex="00BB"/>
  <outline>
    <contour>
      <point x="31" y="510" type="line"/>
      <point x="118" y="317" type="line"/>
      <point x="34" y="126" type="line"/>
      <point x="151" y="126" type="line"/>
      <point x="282" y="317" type="line"/>
      <point x="151" y="510" type="line"/>
    </contour>
    <contour>
      <point x="260" y="510" type="line"/>
      <point x="347" y="317" type="line"/>
      <point x="263" y="126" type="line"/>
      <point x="380" y="126" type="line"/>
      <point x="511" y="317" type="line"/>
      <point x="380" y="510" type="line"/>
    </contour>
  </outline>
</glyph>
<glyph name="onequarter" format="1">
  <advance width="835"/>
  <unicode hex="00BC"/>
  <outline>
    <contour>
      <point x="485" y="720"/>
      <point x="471" y="718"/>
      <point x="463" y="715" type="curve"/>
      <point x="277" y="-25" type="line" smooth="yes"/>
      <point x="275" y="-34"/>
      <point x="273" y="-44"/>
      <point x="273" y="-53" type="curve" smooth="yes"/>
      <point x="273" y="-79"/>
      <point x="292" y="-91"/>
      <point x="318" y="-91" type="curve" smooth="yes"/>
      <point x="333" y="-91"/>
      <point x="347" y="-89"/>
      <point x="355" y="-86" type="curve"/>
      <point x="541" y="654" type="line" smooth="yes"/>
      <point x="543" y="663"/>
      <point x="545" y="673"/>
      <point x="545" y="682" type="curve" smooth="yes"/>
      <point x="545" y="708"/>
      <point x="526" y="720"/>
      <point x="500" y="720" type="curve" smooth="yes"/>
    </contour>
    <contour>
      <point x="153" y="645"/>
      <point x="88" y="619"/>
      <point x="24" y="598" type="curve"/>
      <point x="24" y="561"/>
      <point x="30" y="530"/>
      <point x="67" y="530" type="curve" smooth="yes"/>
      <point x="85" y="530"/>
      <point x="104" y="537"/>
      <point x="118" y="549" type="curve"/>
      <point x="118" y="347" type="line"/>
      <point x="48" y="347" type="line"/>
      <point x="48" y="285" type="line"/>
      <point x="329" y="285" type="line"/>
      <point x="329" y="347" type="line"/>
      <point x="261" y="347" type="line"/>
      <point x="261" y="665" type="line"/>
      <point x="210" y="680" type="line"/>
    </contour>
    <contour>
      <point x="619" y="138" type="line"/>
      <point x="533" y="138" type="line"/>
      <point x="619" y="276" type="line"/>
    </contour>
    <contour>
      <point x="620" y="375" type="line"/>
      <point x="462" y="137" type="line" smooth="yes"/>
      <point x="453" y="123"/>
      <point x="446" y="108"/>
      <point x="446" y="92" type="curve" smooth="yes"/>
      <point x="446" y="76"/>
      <point x="452" y="66"/>
      <point x="461" y="59" type="curve"/>
      <point x="615" y="59" type="line"/>
      <point x="615" y="0" type="line"/>
      <point x="762" y="0" type="line"/>
      <point x="762" y="59" type="line"/>
      <point x="818" y="59" type="line"/>
      <point x="823" y="138" type="line"/>
      <point x="762" y="138" type="line"/>
      <point x="762" y="375" type="line"/>
    </contour>
  </outline>
</glyph>
<glyph name="onehalf" format="1">
  <advance width="835"/>
  <unicode hex="00BD"/>
  <outline>
    <contour>
      <point x="485" y="720"/>
      <point x="471" y="718"/>
      <point x="463" y="715" type="curve"/>
      <point x="277" y="-25" type="line" smooth="yes"/>
      <point x="275" y="-34"/>
      <point x="273" y="-44"/>
      <point x="273" y="-53" type="curve" smooth="yes"/>
      <point x="273" y="-79"/>
      <point x="292" y="-91"/>
      <point x="318" y="-91" type="curve" smooth="yes"/>
      <point x="333" y="-91"/>
      <point x="347" y="-89"/>
      <point x="355" y="-86" type="curve"/>
      <point x="541" y="654" type="line" smooth="yes"/>
      <point x="543" y="663"/>
      <point x="545" y="673"/>
      <point x="545" y="682" type="curve" smooth="yes"/>
      <point x="545" y="708"/>
      <point x="526" y="720"/>
      <point x="500" y="720" type="curve" smooth="yes"/>
    </contour>
    <contour>
      <point x="153" y="645"/>
      <point x="88" y="619"/>
      <point x="24" y="598" type="curve"/>
      <point x="24" y="561"/>
      <point x="30" y="530"/>
      <point x="67" y="530" type="curve" smooth="yes"/>
      <point x="85" y="530"/>
      <point x="104" y="537"/>
      <point x="118" y="549" type="curve"/>
      <point x="118" y="347" type="line"/>
      <point x="48" y="347" type="line"/>
      <point x="48" y="285" type="line"/>
      <point x="329" y="285" type="line"/>
      <point x="329" y="347" type="line"/>
      <point x="261" y="347" type="line"/>
      <point x="261" y="665" type="line"/>
      <point x="210" y="680" type="line"/>
    </contour>
    <contour>
      <point x="565" y="389"/>
      <point x="484" y="366"/>
      <point x="484" y="304" type="curve" smooth="yes"/>
      <point x="484" y="287"/>
      <point x="492" y="272"/>
      <point x="507" y="263" type="curve"/>
      <point x="523" y="289"/>
      <point x="548" y="301"/>
      <point x="578" y="301" type="curve" smooth="yes"/>
      <point x="613" y="301"/>
      <point x="636" y="282"/>
      <point x="636" y="247" type="curve" smooth="yes"/>
      <point x="636" y="187"/>
      <point x="588" y="136"/>
      <point x="535" y="89" type="curve" smooth="yes"/>
      <point x="520" y="76"/>
      <point x="505" y="63"/>
      <point x="490" y="51" type="curve"/>
      <point x="494" y="0" type="line"/>
      <point x="777" y="0" type="line"/>
      <point x="777" y="93" type="line"/>
      <point x="628" y="87" type="line"/>
      <point x="639" y="95"/>
      <point x="651" y="103"/>
      <point x="663" y="112" type="curve" smooth="yes"/>
      <point x="720" y="155"/>
      <point x="779" y="208"/>
      <point x="779" y="275" type="curve" smooth="yes"/>
      <point x="779" y="356"/>
      <point x="708" y="389"/>
      <point x="626" y="389" type="curve" smooth="yes"/>
    </contour>
  </outline>
</glyph>
<glyph name="threequarters" format="1">
  <advance width="835"/>
  <unicode hex="00BE"/>
  <outline>
    <contour>
      <point x="485" y="720"/>
      <point x="471" y="718"/>
      <point x="463" y="715" type="curve"/>
      <point x="277" y="-25" type="line" smooth="yes"/>
      <point x="275" y="-34"/>
      <point x="273" y="-44"/>
      <point x="273" y="-53" type="curve" smooth="yes"/>
      <point x="273" y="-79"/>
      <point x="292" y="-91"/>
      <point x="318" y="-91" type="curve" smooth="yes"/>
      <point x="333" y="-91"/>
      <point x="347" y="-89"/>
      <point x="355" y="-86" type="curve"/>
      <point x="541" y="654" type="line" smooth="yes"/>
      <point x="543" y="663"/>
      <point x="545" y="673"/>
      <point x="545" y="682" type="curve" smooth="yes"/>
      <point x="545" y="708"/>
      <point x="526" y="720"/>
      <point x="500" y="720" type="curve" smooth="yes"/>
    </contour>
    <contour>
      <point x="110" y="674"/>
      <point x="40" y="651"/>
      <point x="40" y="590" type="curve" smooth="yes"/>
      <point x="40" y="572"/>
      <point x="47" y="558"/>
      <point x="62" y="549" type="curve"/>
      <point x="79" y="578"/>
      <point x="100" y="596"/>
      <point x="134" y="596" type="curve" smooth="yes"/>
      <point x="163" y="596"/>
      <point x="183" y="580"/>
      <point x="183" y="551" type="curve" smooth="yes"/>
      <point x="183" y="511"/>
      <point x="141" y="502"/>
      <point x="101" y="502" type="curve"/>
      <point x="101" y="449" type="line"/>
      <point x="109" y="450"/>
      <point x="120" y="450"/>
      <point x="129" y="450" type="curve" smooth="yes"/>
      <point x="161" y="450"/>
      <point x="180" y="434"/>
      <point x="180" y="403" type="curve" smooth="yes"/>
      <point x="180" y="373"/>
      <point x="160" y="358"/>
      <point x="129" y="358" type="curve" smooth="yes"/>
      <point x="100" y="358"/>
      <point x="71" y="369"/>
      <point x="50" y="390" type="curve"/>
      <point x="40" y="382"/>
      <point x="35" y="369"/>
      <point x="35" y="355" type="curve" smooth="yes"/>
      <point x="35" y="293"/>
      <point x="105" y="271"/>
      <point x="167" y="271" type="curve" smooth="yes"/>
      <point x="256" y="271"/>
      <point x="321" y="314"/>
      <point x="321" y="395" type="curve" smooth="yes"/>
      <point x="321" y="453"/>
      <point x="284" y="484"/>
      <point x="223" y="491" type="curve"/>
      <point x="276" y="506"/>
      <point x="302" y="537"/>
      <point x="302" y="583" type="curve" smooth="yes"/>
      <point x="302" y="649"/>
      <point x="239" y="674"/>
      <point x="171" y="674" type="curve" smooth="yes"/>
    </contour>
    <contour>
      <point x="619" y="138" type="line"/>
      <point x="533" y="138" type="line"/>
      <point x="619" y="276" type="line"/>
    </contour>
    <contour>
      <point x="620" y="375" type="line"/>
      <point x="462" y="137" type="line" smooth="yes"/>
      <point x="453" y="123"/>
      <point x="446" y="108"/>
      <point x="446" y="92" type="curve" smooth="yes"/>
      <point x="446" y="76"/>
      <point x="452" y="66"/>
      <point x="461" y="59" type="curve"/>
      <point x="615" y="59" type="line"/>
      <point x="615" y="0" type="line"/>
      <point x="762" y="0" type="line"/>
      <point x="762" y="59" type="line"/>
      <point x="818" y="59" type="line"/>
      <point x="823" y="138" type="line"/>
      <point x="762" y="138" type="line"/>
      <point x="762" y="375" type="line"/>
    </contour>
  </outline>
</glyph>
<glyph name="questiondown" format="1">
  <advance width="506"/>
  <unicode hex="00BF"/>
  <outline>
    <contour>
      <point x="278" y="310"/>
      <point x="257" y="307"/>
      <point x="249" y="301" type="curve"/>
      <point x="249" y="188"/>
      <point x="20" y="146"/>
      <point x="20" y="-10" type="curve" smooth="yes"/>
      <point x="20" y="-140"/>
      <point x="140" y="-170"/>
      <point x="270" y="-170" type="curve" smooth="yes"/>
      <point x="383" y="-170"/>
      <point x="504" y="-143"/>
      <point x="504" y="-45" type="curve" smooth="yes"/>
      <point x="504" y="27"/>
      <point x="448" y="58"/>
      <point x="380" y="58" type="curve" smooth="yes"/>
      <point x="365" y="58"/>
      <point x="344" y="56"/>
      <point x="328" y="51" type="curve"/>
      <point x="332" y="29"/>
      <point x="334" y="8"/>
      <point x="334" y="-14" type="curve" smooth="yes"/>
      <point x="334" y="-62"/>
      <point x="322" y="-110"/>
      <point x="273" y="-110" type="curve" smooth="yes"/>
      <point x="228" y="-110"/>
      <point x="214" y="-75"/>
      <point x="214" y="-30" type="curve" smooth="yes"/>
      <point x="214" y="83"/>
      <point x="360" y="143"/>
      <point x="360" y="236" type="curve" smooth="yes"/>
      <point x="360" y="279"/>
      <point x="335" y="310"/>
      <point x="292" y="310" type="curve" smooth="yes"/>
    </contour>
    <component base="period" xOffset="158" yOffset="389"/>
  </outline>
</glyph>
<glyph name="AE" format="1">
  <advance width="734"/>
  <unicode hex="00C6"/>
  <outline>
    <contour>
      <point x="276" y="660" type="line"/>
      <point x="-14" y="0" type="line"/>
      <point x="126" y="0" type="line"/>
      <point x="190" y="158" type="line"/>
      <point x="348" y="158" type="line"/>
      <point x="348" y="0" type="line"/>
      <point x="725" y="0" type="line"/>
      <point x="733" y="84" type="line"/>
      <point x="560" y="84" type="line"/>
      <point x="560" y="297" type="line"/>
      <point x="688" y="297" type="line"/>
      <point x="688" y="381" type="line"/>
      <point x="560" y="381" type="line"/>
      <point x="560" y="576" type="line"/>
      <point x="718" y="576" type="line"/>
      <point x="718" y="660" type="line"/>
    </contour>
    <contour>
      <point x="348" y="242" type="line"/>
      <point x="224" y="242" type="line"/>
      <point x="348" y="559" type="line"/>
    </contour>
    <contour>
      <point x="410" y="660" type="move" name="top"/>
    </contour>
  </outline>
</glyph>
<glyph name="Eth" format="1">
  <advance width="662"/>
  <unicode hex="00D0"/>
  <outline>
    <contour>
      <point x="290" y="290" type="line" smooth="yes"/>
      <point x="332" y="290"/>
      <point x="358" y="310"/>
      <point x="358" y="352" type="curve" smooth="yes"/>
      <point x="358" y="359"/>
      <point x="357" y="373"/>
      <point x="354" y="382" type="curve"/>
      <point x="61" y="382" type="line" smooth="yes"/>
      <point x="19" y="382"/>
      <point x="-7" y="362"/>
      <point x="-7" y="320" type="curve" smooth="yes"/>
      <point x="-7" y="313"/>
      <point x="-6" y="299"/>
      <point x="-3" y="290" type="curve"/>
    </contour>
    <component base="D"/>
  </outline>
</glyph>
<glyph name="multiply" format="1">
  <advance width="620"/>
  <unicode hex="00D7"/>
  <outline>
    <contour>
      <point x="429" y="457"/>
      <point x="407" y="436"/>
      <point x="391" y="415" type="curve" smooth="yes"/>
      <point x="106" y="46" type="line"/>
      <point x="114" y="20"/>
      <point x="134" y="7"/>
      <point x="160" y="7" type="curve" smooth="yes"/>
      <point x="190" y="7"/>
      <point x="212" y="25"/>
      <point x="229" y="49" type="curve" smooth="yes"/>
      <point x="332" y="189" type="line"/>
      <point x="513" y="418" type="line"/>
      <point x="505" y="444"/>
      <point x="484" y="457"/>
      <point x="459" y="457" type="curve" smooth="yes"/>
    </contour>
    <contour>
      <point x="168" y="467"/>
      <point x="138" y="442"/>
      <point x="138" y="401" type="curve" smooth="yes"/>
      <point x="138" y="378"/>
      <point x="154" y="362"/>
      <point x="168" y="344" type="curve" smooth="yes"/>
      <point x="281" y="202" type="line"/>
      <point x="428" y="6" type="line"/>
      <point x="469" y="6"/>
      <point x="498" y="30"/>
      <point x="498" y="71" type="curve" smooth="yes"/>
      <point x="498" y="93"/>
      <point x="482" y="110"/>
      <point x="469" y="129" type="curve" smooth="yes"/>
      <point x="354" y="270" type="line"/>
      <point x="209" y="467" type="line"/>
    </contour>
  </outline>
</glyph>
<glyph name="Oslash" format="1">
  <advance width="668"/>
  <unicode hex="00D8"/>
  <outline>
    <contour>
      <point x="58" y="27" type="line" smooth="yes"/>
      <point x="49" y="14"/>
      <point x="42" y="-1"/>
      <point x="42" y="-13" type="curve" smooth="yes"/>
      <point x="42" y="-44"/>
      <point x="79" y="-57"/>
      <point x="110" y="-57" type="curve"/>
      <point x="568" y="636" type="line" smooth="yes"/>
      <point x="577" y="649"/>
      <point x="584" y="664"/>
      <point x="584" y="676" type="curve" smooth="yes"/>
      <point x="584" y="707"/>
      <point x="547" y="720"/>
      <point x="516" y="720" type="curve"/>
    </contour>
    <component base="O"/>
    <contour>
      <point x="334" y="660" type="move" name="top"/>
    </contour>
  </outline>
</glyph>
<glyph name="Thorn" format="1">
  <advance width="615"/>
  <unicode hex="00DE"/>
  <outline>
    <contour>
      <point x="50" y="660" type="line"/>
      <point x="50" y="0" type="line"/>
      <point x="262" y="0" type="line"/>
      <point x="262" y="457" type="line"/>
      <point x="275" y="461"/>
      <point x="291" y="463"/>
      <point x="304" y="463" type="curve" smooth="yes"/>
      <point x="375" y="463"/>
      <point x="393" y="405"/>
      <point x="393" y="334" type="curve" smooth="yes"/>
      <point x="393" y="253"/>
      <point x="371" y="209"/>
      <point x="290" y="209" type="curve"/>
      <point x="290" y="152"/>
      <point x="342" y="135"/>
      <point x="399" y="135" type="curve" smooth="yes"/>
      <point x="520" y="135"/>
      <point x="601" y="216"/>
      <point x="601" y="337" type="curve" smooth="yes"/>
      <point x="601" y="498"/>
      <point x="465" y="537"/>
      <point x="304" y="537" type="curve" smooth="yes"/>
      <point x="290" y="537"/>
      <point x="276" y="537"/>
      <point x="262" y="537" type="curve"/>
      <point x="262" y="660" type="line"/>
    </contour>
  </outline>
</glyph>
<glyph name="germandbls" format="1">
  <advance width="758"/>
  <unicode hex="00DF"/>
  <outline>
    <contour>
      <point x="54" y="21" type="line" smooth="yes"/>
      <point x="54" y="-59"/>
      <point x="52" y="-140"/>
      <point x="-28" y="-150" type="curve"/>
      <point x="-10" y="-189"/>
      <point x="43" y="-200"/>
      <point x="86" y="-200" type="curve" smooth="yes"/>
      <point x="217" y="-200"/>
      <point x="248" y="-85"/>
      <point x="248" y="46" type="curve"/>
      <point x="248" y="558" type="line" smooth="yes"/>
      <point x="248" y="631"/>
      <point x="275" y="663"/>
      <point x="348" y="663" type="curve" smooth="yes"/>
      <point x="402" y="663"/>
      <point x="453" y="636"/>
      <point x="453" y="582" type="curve" smooth="yes"/>
      <point x="453" y="515"/>
      <point x="322" y="455"/>
      <point x="322" y="372" type="curve" smooth="yes"/>
      <point x="322" y="219"/>
      <point x="578" y="219"/>
      <point x="578" y="98" type="curve" smooth="yes"/>
      <point x="578" y="62"/>
      <point x="558" y="35"/>
      <point x="522" y="35" type="curve" smooth="yes"/>
      <point x="480" y="35"/>
      <point x="469" y="69"/>
      <point x="469" y="111" type="curve" smooth="yes"/>
      <point x="469" y="127"/>
      <point x="471" y="145"/>
      <point x="473" y="161" type="curve"/>
      <point x="462" y="168"/>
      <point x="433" y="170"/>
      <point x="420" y="170" type="curve" smooth="yes"/>
      <point x="362" y="170"/>
      <point x="308" y="146"/>
      <point x="308" y="88" type="curve" smooth="yes"/>
      <point x="308" y="0"/>
      <point x="427" y="-22"/>
      <point x="515" y="-22" type="curve" smooth="yes"/>
      <point x="642" y="-22"/>
      <point x="751" y="22"/>
      <point x="751" y="149" type="curve" smooth="yes"/>
      <point x="751" y="302"/>
      <point x="495" y="302"/>
      <point x="495" y="423" type="curve" smooth="yes"/>
      <point x="495" y="490"/>
      <point x="617" y="526"/>
      <point x="617" y="609" type="curve" smooth="yes"/>
      <point x="617" y="697"/>
      <point x="443" y="720"/>
      <point x="355" y="720" type="curve" smooth="yes"/>
      <point x="203" y="720"/>
      <point x="54" y="681"/>
      <point x="54" y="529" type="curve" smooth="yes"/>
    </contour>
  </outline>
</glyph>
<glyph name="ae" format="1">
  <advance width="843"/>
  <unicode hex="00E6"/>
  <outline>
    <contour>
      <point x="698" y="-22"/>
      <point x="806" y="20"/>
      <point x="806" y="115" type="curve" smooth="yes"/>
      <point x="806" y="137"/>
      <point x="798" y="160"/>
      <point x="778" y="170" type="curve"/>
      <point x="752" y="121"/>
      <point x="697" y="98"/>
      <point x="642" y="98" type="curve" smooth="yes"/>
      <point x="562" y="98"/>
      <point x="538" y="159"/>
      <point x="533" y="235" type="curve"/>
      <point x="545" y="233"/>
      <point x="572" y="232"/>
      <point x="584" y="232" type="curve" smooth="yes"/>
      <point x="715" y="232"/>
      <point x="828" y="254"/>
      <point x="828" y="385" type="curve" smooth="yes"/>
      <point x="828" y="490"/>
      <point x="724" y="530"/>
      <point x="619" y="530" type="curve" smooth="yes"/>
      <point x="555" y="530"/>
      <point x="501" y="518"/>
      <point x="457" y="496" type="curve"/>
      <point x="415" y="521"/>
      <point x="357" y="530"/>
      <point x="288" y="530" type="curve" smooth="yes"/>
      <point x="190" y="530"/>
      <point x="49" y="504"/>
      <point x="49" y="406" type="curve" smooth="yes"/>
      <point x="49" y="348"/>
      <point x="103" y="324"/>
      <point x="161" y="324" type="curve" smooth="yes"/>
      <point x="174" y="324"/>
      <point x="203" y="326"/>
      <point x="214" y="333" type="curve"/>
      <point x="212" y="349"/>
      <point x="210" y="367"/>
      <point x="210" y="383" type="curve" smooth="yes"/>
      <point x="210" y="435"/>
      <point x="229" y="473"/>
      <point x="281" y="473" type="curve" smooth="yes"/>
      <point x="331" y="473"/>
      <point x="338" y="428"/>
      <point x="338" y="378" type="curve" smooth="yes"/>
      <point x="338" y="287" type="line"/>
      <point x="194" y="287"/>
      <point x="16" y="273"/>
      <point x="16" y="129" type="curve" smooth="yes"/>
      <point x="16" y="24"/>
      <point x="113" y="-22"/>
      <point x="218" y="-22" type="curve" smooth="yes"/>
      <point x="298" y="-22"/>
      <point x="358" y="0"/>
      <point x="402" y="55" type="curve"/>
      <point x="447" y="5"/>
      <point x="515" y="-22"/>
      <point x="603" y="-22" type="curve" smooth="yes"/>
    </contour>
    <contour>
      <point x="228" y="49"/>
      <point x="210" y="88"/>
      <point x="210" y="133" type="curve" smooth="yes"/>
      <point x="210" y="213"/>
      <point x="258" y="237"/>
      <point x="338" y="237" type="curve"/>
      <point x="338" y="153" type="line" smooth="yes"/>
      <point x="338" y="103"/>
      <point x="323" y="49"/>
      <point x="273" y="49" type="curve" smooth="yes"/>
    </contour>
    <contour>
      <point x="646" y="470"/>
      <point x="658" y="426"/>
      <point x="658" y="385" type="curve" smooth="yes"/>
      <point x="658" y="300"/>
      <point x="615" y="279"/>
      <point x="528" y="280" type="curve" smooth="yes"/>
      <point x="501" y="280"/>
      <point x="470" y="282"/>
      <point x="434" y="285" type="curve"/>
      <point x="532" y="259" type="line"/>
      <point x="531" y="344"/>
      <point x="540" y="470"/>
      <point x="605" y="470" type="curve" smooth="yes"/>
    </contour>
    <contour>
      <point x="417" y="510" type="move" name="top"/>
    </contour>
  </outline>
</glyph>
<glyph name="eth" format="1">
  <advance width="598"/>
  <unicode hex="00F0"/>
  <outline>
    <contour>
      <point x="233" y="720"/>
      <point x="185" y="706"/>
      <point x="185" y="655" type="curve" smooth="yes"/>
      <point x="185" y="639"/>
      <point x="191" y="616"/>
      <point x="198" y="603" type="curve"/>
      <point x="213" y="613"/>
      <point x="232" y="618"/>
      <point x="252" y="618" type="curve" smooth="yes"/>
      <point x="280" y="618"/>
      <point x="300" y="612"/>
      <point x="315" y="600" type="curve"/>
      <point x="290" y="591" type="line" smooth="yes"/>
      <point x="263" y="581"/>
      <point x="248" y="560"/>
      <point x="260" y="531" type="curve" smooth="yes"/>
      <point x="262" y="526"/>
      <point x="266" y="518"/>
      <point x="271" y="511" type="curve"/>
      <point x="348" y="539" type="line"/>
      <point x="351" y="524"/>
      <point x="354" y="507"/>
      <point x="356" y="488" type="curve"/>
      <point x="340" y="492"/>
      <point x="323" y="493"/>
      <point x="306" y="493" type="curve" smooth="yes"/>
      <point x="194" y="493"/>
      <point x="28" y="439"/>
      <point x="28" y="227" type="curve" smooth="yes"/>
      <point x="28" y="73"/>
      <point x="142" y="-22"/>
      <point x="296" y="-22" type="curve" smooth="yes"/>
      <point x="490" y="-22"/>
      <point x="563" y="121"/>
      <point x="563" y="315" type="curve" smooth="yes"/>
      <point x="563" y="418"/>
      <point x="545" y="520"/>
      <point x="501" y="595" type="curve"/>
      <point x="520" y="602" type="line" smooth="yes"/>
      <point x="548" y="613"/>
      <point x="563" y="633"/>
      <point x="551" y="663" type="curve"/>
      <point x="549" y="666"/>
      <point x="545" y="676"/>
      <point x="540" y="682" type="curve"/>
      <point x="458" y="652" type="line"/>
      <point x="415" y="694"/>
      <point x="358" y="720"/>
      <point x="284" y="720" type="curve" smooth="yes"/>
    </contour>
    <contour>
      <point x="228" y="38"/>
      <point x="226" y="166"/>
      <point x="226" y="234" type="curve" smooth="yes"/>
      <point x="226" y="312"/>
      <point x="228" y="433"/>
      <point x="306" y="433" type="curve" smooth="yes"/>
      <point x="327" y="433"/>
      <point x="343" y="425"/>
      <point x="358" y="411" type="curve"/>
      <point x="362" y="382"/>
      <point x="365" y="330"/>
      <point x="365" y="291" type="curve" smooth="yes"/>
      <point x="365" y="163"/>
      <point x="364" y="38"/>
      <point x="296" y="38" type="curve" smooth="yes"/>
    </contour>
  </outline>
</glyph>
<glyph name="divide" format="1">
  <advance width="620"/>
  <unicode hex="00F7"/>
  <outline>
    <contour>
      <point x="386" y="444"/>
      <point x="356" y="467"/>
      <point x="313" y="467" type="curve" smooth="yes"/>
      <point x="269" y="467"/>
      <point x="234" y="444"/>
      <point x="234" y="403" type="curve" smooth="yes"/>
      <point x="234" y="364"/>
      <point x="265" y="342"/>
      <point x="309" y="342" type="curve" smooth="yes"/>
      <point x="352" y="342"/>
      <point x="386" y="364"/>
      <point x="386" y="405" type="curve" smooth="yes"/>
    </contour>
    <contour>
      <point x="386" y="116"/>
      <point x="356" y="139"/>
      <point x="313" y="139" type="curve" smooth="yes"/>
      <point x="269" y="139"/>
      <point x="234" y="116"/>
      <point x="234" y="75" type="curve" smooth="yes"/>
      <point x="234" y="36"/>
      <point x="265" y="14"/>
      <point x="309" y="14" type="curve" smooth="yes"/>
      <point x="352" y="14"/>
      <point x="386" y="36"/>
      <point x="386" y="77" type="curve" smooth="yes"/>
    </contour>
    <contour>
      <point x="460" y="191" type="line" smooth="yes"/>
      <point x="497" y="191"/>
      <point x="522" y="209"/>
      <point x="522" y="246" type="curve" smooth="yes"/>
      <point x="522" y="262"/>
      <point x="517" y="278"/>
      <point x="511" y="290" type="curve"/>
      <point x="160" y="290" type="line" smooth="yes"/>
      <point x="123" y="290"/>
      <point x="98" y="272"/>
      <point x="98" y="235" type="curve" smooth="yes"/>
      <point x="98" y="219"/>
      <point x="103" y="203"/>
      <point x="109" y="191" type="curve"/>
    </contour>
  </outline>
</glyph>
<glyph name="oslash" format="1">
  <advance width="582"/>
  <unicode hex="00F8"/>
  <outline>
    <contour>
      <point x="70" y="27" type="line" smooth="yes"/>
      <point x="61" y="14"/>
      <point x="54" y="-1"/>
      <point x="54" y="-13" type="curve" smooth="yes"/>
      <point x="54" y="-44"/>
      <point x="91" y="-57"/>
      <point x="122" y="-57" type="curve"/>
      <point x="501" y="516" type="line" smooth="yes"/>
      <point x="510" y="529"/>
      <point x="517" y="544"/>
      <point x="517" y="556" type="curve" smooth="yes"/>
      <point x="517" y="587"/>
      <point x="480" y="600"/>
      <point x="449" y="600" type="curve"/>
    </contour>
    <component base="o"/>
    <contour>
      <point x="291" y="510" type="move" name="top"/>
    </contour>
  </outline>
</glyph>
<glyph name="thorn" format="1">
  <advance width="599"/>
  <unicode hex="00FE"/>
  <outline>
    <contour>
      <point x="54" y="700" type="line"/>
      <point x="54" y="-193" type="line"/>
      <point x="248" y="-180" type="line"/>
      <point x="248" y="-19" type="line"/>
      <point x="263" y="-21"/>
      <point x="279" y="-22"/>
      <point x="293" y="-22" type="curve" smooth="yes"/>
      <point x="474" y="-22"/>
      <point x="571" y="81"/>
      <point x="571" y="262" type="curve" smooth="yes"/>
      <point x="571" y="407"/>
      <point x="527" y="530"/>
      <point x="382" y="530" type="curve" smooth="yes"/>
      <point x="320" y="530"/>
      <point x="270" y="513"/>
      <point x="239" y="469" type="curve"/>
      <point x="247" y="502"/>
      <point x="248" y="566"/>
      <point x="248" y="600" type="curve" smooth="yes"/>
      <point x="248" y="720" type="line"/>
    </contour>
    <contour>
      <point x="370" y="454"/>
      <point x="373" y="347"/>
      <point x="373" y="257" type="curve" smooth="yes"/>
      <point x="373" y="162"/>
      <point x="370" y="38"/>
      <point x="300" y="38" type="curve" smooth="yes"/>
      <point x="282" y="38"/>
      <point x="263" y="44"/>
      <point x="248" y="56" type="curve"/>
      <point x="248" y="319" type="line" smooth="yes"/>
      <point x="248" y="378"/>
      <point x="248" y="454"/>
      <point x="307" y="454" type="curve" smooth="yes"/>
    </contour>
  </outline>
</glyph>
<glyph name="dcroat" format="1">
  <advance width="671"/>
  <unicode hex="0111"/>
  <outline>
    <contour>
      <point x="278" y="653" type="line" smooth="yes"/>
      <point x="237" y="653"/>
      <point x="211" y="633"/>
      <point x="211" y="591" type="curve" smooth="yes"/>
      <point x="211" y="583"/>
      <point x="212" y="570"/>
      <point x="215" y="561" type="curve"/>
      <point x="580" y="561" type="line" smooth="yes"/>
      <point x="622" y="561"/>
      <point x="648" y="581"/>
      <point x="648" y="623" type="curve" smooth="yes"/>
      <point x="648" y="629"/>
      <point x="647" y="644"/>
      <point x="644" y="653" type="curve"/>
    </contour>
    <component base="d"/>
  </outline>
</glyph>
<glyph name="Hbar" format="1">
  <advance width="708"/>
  <unicode hex="0126"/>
  <outline>
    <contour>
      <point x="280" y="0" type="line"/>
      <point x="280" y="292" type="line"/>
      <point x="428" y="292" type="line"/>
      <point x="428" y="0" type="line"/>
      <point x="640" y="0" type="line"/>
      <point x="640" y="510" type="line"/>
      <point x="619" y="483" type="line"/>
      <point x="640" y="483" type="line" smooth="yes"/>
      <point x="681" y="483"/>
      <point x="708" y="503"/>
      <point x="708" y="545" type="curve" smooth="yes"/>
      <point x="708" y="551"/>
      <point x="706" y="566"/>
      <point x="704" y="575" type="curve"/>
      <point x="640" y="575" type="line"/>
      <point x="640" y="660" type="line"/>
      <point x="428" y="660" type="line"/>
      <point x="428" y="575" type="line"/>
      <point x="280" y="575" type="line"/>
      <point x="280" y="660" type="line"/>
      <point x="68" y="660" type="line"/>
      <point x="68" y="548" type="line"/>
      <point x="91" y="575" type="line"/>
      <point x="68" y="575" type="line" smooth="yes"/>
      <point x="27" y="575"/>
      <point x="1" y="555"/>
      <point x="1" y="513" type="curve" smooth="yes"/>
      <point x="1" y="505"/>
      <point x="2" y="492"/>
      <point x="5" y="483" type="curve"/>
      <point x="68" y="483" type="line"/>
      <point x="68" y="0" type="line"/>
    </contour>
    <contour>
      <point x="428" y="376" type="line"/>
      <point x="280" y="376" type="line"/>
      <point x="280" y="483" type="line"/>
      <point x="428" y="483" type="line"/>
    </contour>
  </outline>
</glyph>
<glyph name="hbar" format="1">
  <advance width="599"/>
  <unicode hex="0127"/>
  <outline>
    <contour>
      <point x="33" y="653" type="line" smooth="yes"/>
      <point x="-8" y="653"/>
      <point x="-34" y="633"/>
      <point x="-34" y="591" type="curve" smooth="yes"/>
      <point x="-34" y="583"/>
      <point x="-33" y="570"/>
      <point x="-30" y="561" type="curve"/>
      <point x="335" y="561" type="line" smooth="yes"/>
      <point x="377" y="561"/>
      <point x="403" y="581"/>
      <point x="403" y="623" type="curve" smooth="yes"/>
      <point x="403" y="629"/>
      <point x="402" y="644"/>
      <point x="399" y="653" type="curve"/>
    </contour>
    <component base="h"/>
  </outline>
</glyph>
<glyph name="dotlessi" format="1">
  <advance width="295"/>
  <unicode hex="0131"/>
  <outline>
    <contour>
      <point x="47" y="510" type="line"/>
      <point x="47" y="109" type="line" smooth="yes"/>
      <point x="47" y="25"/>
      <point x="96" y="-15"/>
      <point x="180" y="-15" type="curve" smooth="yes"/>
      <point x="208" y="-15"/>
      <point x="251" y="-7"/>
      <point x="272" y="12" type="curve"/>
      <point x="248" y="43"/>
      <point x="241" y="77"/>
      <point x="241" y="116" type="curve" smooth="yes"/>
      <point x="241" y="510" type="line"/>
    </contour>
    <contour>
      <point x="266" y="10" type="move" name="ogonek"/>
    </contour>
    <contour>
      <point x="170" y="0" type="move" name="bottom"/>
    </contour>
    <contour>
      <point x="144" y="510" type="move" name="top"/>
    </contour>
  </outline>
</glyph>
<glyph name="kgreenlandic" format="1">
  <advance width="570"/>
  <unicode hex="0138"/>
  <outline>
    <contour>
      <point x="248" y="0" type="line"/>
      <point x="248" y="530" type="line"/>
      <point x="54" y="510" type="line"/>
      <point x="54" y="0" type="line"/>
    </contour>
    <contour>
      <point x="262" y="281" type="line"/>
      <point x="367" y="0" type="line"/>
      <point x="577" y="0" type="line"/>
      <point x="430" y="310" type="line"/>
      <point x="570" y="510" type="line"/>
      <point x="404" y="510" type="line"/>
    </contour>
  </outline>
</glyph>
<glyph name="lacute" format="1">
  <advance width="295"/>
  <unicode hex="013A"/>
  <outline>
    <contour>
      <point x="47" y="109" type="line" smooth="yes"/>
      <point x="47" y="25"/>
      <point x="96" y="-15"/>
      <point x="180" y="-15" type="curve" smooth="yes"/>
      <point x="208" y="-15"/>
      <point x="251" y="-7"/>
      <point x="272" y="12" type="curve"/>
      <point x="248" y="43"/>
      <point x="241" y="77"/>
      <point x="241" y="116" type="curve" smooth="yes"/>
      <point x="241" y="700" type="line"/>
      <point x="47" y="680" type="line"/>
    </contour>
    <component base="acute.case" xOffset="28"/>
  </outline>
</glyph>
<glyph name="Ldot" format="1">
  <advance width="485"/>
  <unicode hex="013F"/>
  <outline>
    <contour>
      <point x="345" y="395"/>
      <point x="316" y="367"/>
      <point x="316" y="323" type="curve" smooth="yes"/>
      <point x="316" y="283"/>
      <point x="340" y="256"/>
      <point x="382" y="256" type="curve" smooth="yes"/>
      <point x="424" y="256"/>
      <point x="450" y="283"/>
      <point x="450" y="326" type="curve" smooth="yes"/>
      <point x="450" y="368"/>
      <point x="426" y="395"/>
      <point x="386" y="395" type="curve" smooth="yes"/>
    </contour>
    <component base="L"/>
  </outline>
</glyph>
<glyph name="ldot" format="1">
  <advance width="360"/>
  <unicode hex="0140"/>
  <outline>
    <contour>
      <point x="47" y="109" type="line" smooth="yes"/>
      <point x="47" y="25"/>
      <point x="96" y="-15"/>
      <point x="180" y="-15" type="curve" smooth="yes"/>
      <point x="208" y="-15"/>
      <point x="251" y="-7"/>
      <point x="272" y="12" type="curve"/>
      <point x="248" y="43"/>
      <point x="241" y="77"/>
      <point x="241" y="116" type="curve" smooth="yes"/>
      <point x="241" y="720" type="line"/>
      <point x="47" y="700" type="line"/>
    </contour>
    <contour>
      <point x="285" y="403"/>
      <point x="256" y="375"/>
      <point x="256" y="331" type="curve" smooth="yes"/>
      <point x="256" y="291"/>
      <point x="280" y="264"/>
      <point x="322" y="264" type="curve" smooth="yes"/>
      <point x="364" y="264"/>
      <point x="390" y="291"/>
      <point x="390" y="334" type="curve" smooth="yes"/>
      <point x="390" y="376"/>
      <point x="366" y="403"/>
      <point x="326" y="403" type="curve" smooth="yes"/>
    </contour>
  </outline>
</glyph>
<glyph name="Lslash" format="1">
  <advance width="508"/>
  <unicode hex="0141"/>
  <outline>
    <contour>
      <point x="110" y="0" type="line"/>
      <point x="493" y="0" type="line"/>
      <point x="503" y="90" type="line"/>
      <point x="322" y="90" type="line"/>
      <point x="322" y="309" type="line"/>
      <point x="399" y="337" type="line" smooth="yes"/>
      <point x="429" y="348"/>
      <point x="446" y="364"/>
      <point x="446" y="393" type="curve" smooth="yes"/>
      <point x="446" y="406"/>
      <point x="442" y="426"/>
      <point x="427" y="446" type="curve"/>
      <point x="322" y="408" type="line"/>
      <point x="322" y="660" type="line"/>
      <point x="110" y="660" type="line"/>
      <point x="110" y="330" type="line"/>
      <point x="52" y="309" type="line" smooth="yes"/>
      <point x="22" y="298"/>
      <point x="5" y="283"/>
      <point x="5" y="254" type="curve" smooth="yes"/>
      <point x="5" y="240"/>
      <point x="10" y="219"/>
      <point x="24" y="201" type="curve"/>
      <point x="110" y="232" type="line"/>
    </contour>
  </outline>
</glyph>
<glyph name="lslash" format="1">
  <advance width="425"/>
  <unicode hex="0142"/>
  <outline>
    <contour>
      <point x="371" y="343" type="line" smooth="yes"/>
      <point x="401" y="354"/>
      <point x="418" y="370"/>
      <point x="418" y="399" type="curve" smooth="yes"/>
      <point x="418" y="412"/>
      <point x="414" y="432"/>
      <point x="399" y="452" type="curve"/>
      <point x="54" y="325" type="line" smooth="yes"/>
      <point x="24" y="314"/>
      <point x="7" y="299"/>
      <point x="7" y="270" type="curve" smooth="yes"/>
      <point x="7" y="256"/>
      <point x="12" y="235"/>
      <point x="26" y="217" type="curve"/>
    </contour>
    <component base="l" xOffset="57"/>
  </outline>
</glyph>
<glyph name="Eng" format="1">
  <advance width="666"/>
  <unicode hex="014A"/>
  <outline>
    <contour>
      <point x="616" y="660" type="line"/>
      <point x="503" y="660" type="line"/>
      <point x="503" y="172" type="line"/>
      <point x="297" y="660" type="line"/>
      <point x="50" y="660" type="line"/>
      <point x="50" y="0" type="line"/>
      <point x="163" y="0" type="line"/>
      <point x="163" y="488" type="line"/>
      <point x="369" y="0" type="line"/>
      <point x="562" y="0" type="line"/>
      <point x="504" y="68" type="line"/>
      <point x="499" y="-19"/>
      <point x="519" y="-153"/>
      <point x="421" y="-166" type="curve"/>
      <point x="435" y="-188"/>
      <point x="464" y="-200"/>
      <point x="499" y="-200" type="curve" smooth="yes"/>
      <point x="616" y="-200"/>
      <point x="616" y="-62"/>
      <point x="616" y="55" type="curve" smooth="yes"/>
    </contour>
  </outline>
</glyph>
<glyph name="eng" format="1">
  <advance width="586"/>
  <unicode hex="014B"/>
  <outline>
    <contour>
      <point x="351" y="21" type="line" smooth="yes"/>
      <point x="351" y="-59"/>
      <point x="349" y="-140"/>
      <point x="269" y="-150" type="curve"/>
      <point x="287" y="-189"/>
      <point x="340" y="-200"/>
      <point x="383" y="-200" type="curve" smooth="yes"/>
      <point x="514" y="-200"/>
      <point x="545" y="-85"/>
      <point x="545" y="46" type="curve" smooth="yes"/>
      <point x="545" y="342" type="line" smooth="yes"/>
      <point x="545" y="464"/>
      <point x="497" y="530"/>
      <point x="375" y="530" type="curve" smooth="yes"/>
      <point x="298" y="530"/>
      <point x="240" y="504"/>
      <point x="212" y="432" type="curve"/>
      <point x="204" y="522" type="line"/>
      <point x="47" y="510" type="line"/>
      <point x="47" y="0" type="line"/>
      <point x="241" y="0" type="line"/>
      <point x="241" y="319" type="line" smooth="yes"/>
      <point x="241" y="378"/>
      <point x="241" y="454"/>
      <point x="300" y="454" type="curve" smooth="yes"/>
      <point x="351" y="454"/>
      <point x="351" y="391"/>
      <point x="351" y="340" type="curve" smooth="yes"/>
    </contour>
  </outline>
</glyph>
<glyph name="OE" format="1">
  <advance width="807"/>
  <unicode hex="0152"/>
  <outline>
    <contour>
      <point x="119" y="680"/>
      <point x="20" y="541"/>
      <point x="20" y="326" type="curve" smooth="yes"/>
      <point x="20" y="121"/>
      <point x="129" y="-22"/>
      <point x="334" y="-22" type="curve" smooth="yes"/>
      <point x="441" y="-22"/>
      <point x="521" y="17"/>
      <point x="573" y="82" type="curve"/>
      <point x="533" y="625" type="line"/>
      <point x="484" y="661"/>
      <point x="417" y="680"/>
      <point x="334" y="680" type="curve" smooth="yes"/>
    </contour>
    <contour>
      <point x="253" y="52"/>
      <point x="248" y="219"/>
      <point x="248" y="333" type="curve" smooth="yes"/>
      <point x="248" y="447"/>
      <point x="253" y="606"/>
      <point x="334" y="606" type="curve" smooth="yes"/>
      <point x="415" y="606"/>
      <point x="420" y="447"/>
      <point x="420" y="333" type="curve" smooth="yes"/>
      <point x="420" y="219"/>
      <point x="415" y="52"/>
      <point x="334" y="52" type="curve" smooth="yes"/>
    </contour>
    <contour>
      <point x="791" y="660" type="line"/>
      <point x="441" y="660" type="line"/>
      <point x="441" y="0" type="line"/>
      <point x="798" y="0" type="line"/>
      <point x="806" y="84" type="line"/>
      <point x="613" y="84" type="line"/>
      <point x="613" y="297" type="line"/>
      <point x="761" y="297" type="line"/>
      <point x="761" y="381" type="line"/>
      <point x="613" y="381" type="line"/>
      <point x="613" y="576" type="line"/>
      <point x="791" y="576" type="line"/>
    </contour>
    <contour>
      <point x="404" y="660" type="move" name="top"/>
    </contour>
  </outline>
</glyph>
<glyph name="oe" format="1">
  <advance width="865"/>
  <unicode hex="0153"/>
  <outline>
    <contour>
      <point x="578" y="530"/>
      <point x="512" y="514"/>
      <point x="459" y="480" type="curve"/>
      <point x="417" y="510"/>
      <point x="360" y="530"/>
      <point x="291" y="530" type="curve" smooth="yes"/>
      <point x="119" y="530"/>
      <point x="28" y="424"/>
      <point x="28" y="252" type="curve" smooth="yes"/>
      <point x="28" y="88"/>
      <point x="127" y="-22"/>
      <point x="291" y="-22" type="curve" smooth="yes"/>
      <point x="357" y="-22"/>
      <point x="412" y="0"/>
      <point x="454" y="31" type="curve"/>
      <point x="497" y="0"/>
      <point x="555" y="-22"/>
      <point x="625" y="-22" type="curve" smooth="yes"/>
      <point x="720" y="-22"/>
      <point x="828" y="20"/>
      <point x="828" y="115" type="curve" smooth="yes"/>
      <point x="828" y="137"/>
      <point x="820" y="160"/>
      <point x="800" y="170" type="curve"/>
      <point x="774" y="121"/>
      <point x="719" y="98"/>
      <point x="664" y="98" type="curve" smooth="yes"/>
      <point x="584" y="98"/>
      <point x="560" y="155"/>
      <point x="555" y="231" type="curve"/>
      <point x="567" y="229"/>
      <point x="594" y="228"/>
      <point x="606" y="228" type="curve" smooth="yes"/>
      <point x="737" y="228"/>
      <point x="850" y="254"/>
      <point x="850" y="385" type="curve" smooth="yes"/>
      <point x="850" y="490"/>
      <point x="746" y="530"/>
      <point x="641" y="530" type="curve" smooth="yes"/>
    </contour>
    <contour>
      <point x="350" y="470"/>
      <point x="355" y="360"/>
      <point x="356" y="272" type="curve" smooth="yes"/>
      <point x="356" y="259" type="line"/>
      <point x="356" y="257" type="line" smooth="yes"/>
      <point x="356" y="167"/>
      <point x="354" y="38"/>
      <point x="291" y="38" type="curve" smooth="yes"/>
      <point x="228" y="38"/>
      <point x="226" y="167"/>
      <point x="226" y="257" type="curve" smooth="yes"/>
      <point x="226" y="347"/>
      <point x="228" y="470"/>
      <point x="291" y="470" type="curve" smooth="yes"/>
    </contour>
    <contour>
      <point x="668" y="470"/>
      <point x="680" y="426"/>
      <point x="680" y="385" type="curve" smooth="yes"/>
      <point x="680" y="301"/>
      <point x="636" y="275"/>
      <point x="551" y="276" type="curve" smooth="yes"/>
      <point x="537" y="276"/>
      <point x="523" y="277"/>
      <point x="507" y="278" type="curve"/>
      <point x="554" y="247" type="line"/>
      <point x="554" y="292"/>
      <point x="550" y="470"/>
      <point x="627" y="470" type="curve" smooth="yes"/>
    </contour>
    <contour>
      <point x="428" y="510" type="move" name="top"/>
    </contour>
  </outline>
</glyph>
<glyph name="Tbar" format="1">
  <advance width="504"/>
  <unicode hex="0166"/>
  <outline>
    <contour>
      <point x="424" y="287" type="line" smooth="yes"/>
      <point x="466" y="287"/>
      <point x="492" y="307"/>
      <point x="492" y="349" type="curve" smooth="yes"/>
      <point x="492" y="355"/>
      <point x="491" y="370"/>
      <point x="488" y="379" type="curve"/>
      <point x="78" y="379" type="line" smooth="yes"/>
      <point x="37" y="379"/>
      <point x="11" y="359"/>
      <point x="11" y="317" type="curve" smooth="yes"/>
      <point x="11" y="309"/>
      <point x="12" y="296"/>
      <point x="15" y="287" type="curve"/>
    </contour>
    <component base="T"/>
  </outline>
</glyph>
<glyph name="tbar" format="1">
  <advance width="403"/>
  <unicode hex="0167"/>
  <outline>
    <contour>
      <point x="74" y="348" type="line" smooth="yes"/>
      <point x="33" y="348"/>
      <point x="7" y="328"/>
      <point x="7" y="286" type="curve" smooth="yes"/>
      <point x="7" y="278"/>
      <point x="8" y="265"/>
      <point x="11" y="256" type="curve"/>
      <point x="328" y="256" type="line" smooth="yes"/>
      <point x="370" y="256"/>
      <point x="396" y="276"/>
      <point x="396" y="318" type="curve" smooth="yes"/>
      <point x="396" y="324"/>
      <point x="395" y="339"/>
      <point x="392" y="348" type="curve"/>
    </contour>
    <component base="t" xOffset="22"/>
  </outline>
</glyph>
<glyph name="longs" format="1">
  <advance width="316"/>
  <unicode hex="017F"/>
  <outline>
    <contour>
      <point x="241" y="568" type="line"/>
      <point x="241" y="616"/>
      <point x="243" y="673"/>
      <point x="291" y="673" type="curve" smooth="yes"/>
      <point x="323" y="673"/>
      <point x="331" y="643"/>
      <point x="331" y="611" type="curve" smooth="yes"/>
      <point x="331" y="595"/>
      <point x="329" y="579"/>
      <point x="327" y="566" type="curve"/>
      <point x="338" y="559"/>
      <point x="367" y="557"/>
      <point x="380" y="557" type="curve" smooth="yes"/>
      <point x="433" y="557"/>
      <point x="492" y="576"/>
      <point x="492" y="629" type="curve" smooth="yes"/>
      <point x="492" y="707"/>
      <point x="376" y="720"/>
      <point x="298" y="720" type="curve" smooth="yes"/>
      <point x="166" y="720"/>
      <point x="47" y="681"/>
      <point x="47" y="549" type="curve" smooth="yes"/>
      <point x="47" y="-15" type="line"/>
      <point x="241" y="0" type="line"/>
    </contour>
  </outline>
</glyph>
<glyph name="uni018F" format="1">
  <advance width="642"/>
  <unicode hex="018F"/>
  <outline>
    <contour>
      <point x="510" y="-22"/>
      <point x="622" y="99"/>
      <point x="622" y="329" type="curve" smooth="yes"/>
      <point x="622" y="549"/>
      <point x="508" y="683"/>
      <point x="286" y="683" type="curve" smooth="yes"/>
      <point x="168" y="683"/>
      <point x="42" y="628"/>
      <point x="42" y="508" type="curve" smooth="yes"/>
      <point x="42" y="481"/>
      <point x="55" y="449"/>
      <point x="79" y="438" type="curve"/>
      <point x="110" y="500"/>
      <point x="179" y="544"/>
      <point x="246" y="544" type="curve" smooth="yes"/>
      <point x="348" y="544"/>
      <point x="386" y="458"/>
      <point x="392" y="360" type="curve"/>
      <point x="376" y="362"/>
      <point x="332" y="364"/>
      <point x="310" y="364" type="curve" smooth="yes"/>
      <point x="147" y="364"/>
      <point x="20" y="331"/>
      <point x="20" y="163" type="curve" smooth="yes"/>
      <point x="20" y="28"/>
      <point x="154" y="-22"/>
      <point x="282" y="-22" type="curve" smooth="yes"/>
    </contour>
    <contour>
      <point x="252" y="54"/>
      <point x="221" y="110"/>
      <point x="221" y="163" type="curve" smooth="yes"/>
      <point x="221" y="270"/>
      <point x="288" y="304"/>
      <point x="397" y="302" type="curve" smooth="yes"/>
      <point x="414" y="302"/>
      <point x="432" y="301"/>
      <point x="453" y="300" type="curve"/>
      <point x="393" y="339" type="line"/>
      <point x="393" y="283"/>
      <point x="398" y="54"/>
      <point x="300" y="54" type="curve" smooth="yes"/>
    </contour>
  </outline>
</glyph>
<glyph name="florin" format="1">
  <advance width="620"/>
  <unicode hex="0192"/>
  <outline>
    <contour>
      <point x="296" y="720"/>
      <point x="176" y="681"/>
      <point x="176" y="549" type="curve" smooth="yes"/>
      <point x="176" y="417" type="line"/>
      <point x="124" y="417" type="line" smooth="yes"/>
      <point x="91" y="417"/>
      <point x="70" y="401"/>
      <point x="70" y="367" type="curve" smooth="yes"/>
      <point x="70" y="361"/>
      <point x="71" y="350"/>
      <point x="73" y="343" type="curve"/>
      <point x="177" y="343" type="line"/>
      <point x="177" y="-18" type="line" smooth="yes"/>
      <point x="177" y="-66"/>
      <point x="175" y="-123"/>
      <point x="127" y="-123" type="curve" smooth="yes"/>
      <point x="97" y="-123"/>
      <point x="87" y="-96"/>
      <point x="87" y="-66" type="curve" smooth="yes"/>
      <point x="87" y="-55"/>
      <point x="89" y="-37"/>
      <point x="91" y="-26" type="curve"/>
      <point x="80" y="-19"/>
      <point x="51" y="-17"/>
      <point x="38" y="-17" type="curve" smooth="yes"/>
      <point x="-15" y="-17"/>
      <point x="-74" y="-36"/>
      <point x="-74" y="-89" type="curve" smooth="yes"/>
      <point x="-74" y="-167"/>
      <point x="42" y="-180"/>
      <point x="120" y="-180" type="curve" smooth="yes"/>
      <point x="252" y="-180"/>
      <point x="372" y="-141"/>
      <point x="372" y="-9" type="curve" smooth="yes"/>
      <point x="372" y="343" type="line"/>
      <point x="479" y="343" type="line" smooth="yes"/>
      <point x="513" y="343"/>
      <point x="534" y="359"/>
      <point x="534" y="393" type="curve" smooth="yes"/>
      <point x="534" y="398"/>
      <point x="533" y="410"/>
      <point x="531" y="417" type="curve"/>
      <point x="371" y="417" type="line"/>
      <point x="371" y="558" type="line" smooth="yes"/>
      <point x="371" y="606"/>
      <point x="373" y="663"/>
      <point x="421" y="663" type="curve" smooth="yes"/>
      <point x="451" y="663"/>
      <point x="461" y="636"/>
      <point x="461" y="606" type="curve" smooth="yes"/>
      <point x="461" y="595"/>
      <point x="459" y="577"/>
      <point x="457" y="566" type="curve"/>
      <point x="468" y="559"/>
      <point x="497" y="557"/>
      <point x="510" y="557" type="curve" smooth="yes"/>
      <point x="563" y="557"/>
      <point x="622" y="576"/>
      <point x="622" y="629" type="curve" smooth="yes"/>
      <point x="622" y="707"/>
      <point x="506" y="720"/>
      <point x="428" y="720" type="curve" smooth="yes"/>
    </contour>
  </outline>
</glyph>
<glyph name="Aringacute" format="1">
  <advance width="588"/>
  <unicode hex="01FA"/>
  <outline>
    <contour>
      <point x="362" y="626"/>
      <point x="411" y="657"/>
      <point x="411" y="708" type="curve" smooth="yes"/>
      <point x="411" y="759"/>
      <point x="363" y="787"/>
      <point x="296" y="787" type="curve" smooth="yes"/>
      <point x="229" y="787"/>
      <point x="181" y="759"/>
      <point x="181" y="708" type="curve" smooth="yes"/>
      <point x="181" y="657"/>
      <point x="230" y="626"/>
      <point x="296" y="626" type="curve" smooth="yes"/>
    </contour>
    <contour>
      <point x="264" y="660"/>
      <point x="251" y="681"/>
      <point x="251" y="708" type="curve" smooth="yes"/>
      <point x="251" y="733"/>
      <point x="265" y="753"/>
      <point x="296" y="753" type="curve" smooth="yes"/>
      <point x="327" y="753"/>
      <point x="341" y="733"/>
      <point x="341" y="708" type="curve" smooth="yes"/>
      <point x="341" y="681"/>
      <point x="327" y="660"/>
      <point x="296" y="660" type="curve" smooth="yes"/>
    </contour>
    <component base="A"/>
    <component base="acute.case" xOffset="181" yOffset="83"/>
  </outline>
</glyph>
<glyph name="aringacute" format="1">
  <advance width="579"/>
  <unicode hex="01FB"/>
  <outline>
    <contour>
      <point x="187" y="767" type="line"/>
      <point x="332" y="777" type="line" smooth="yes"/>
      <point x="387" y="781"/>
      <point x="459" y="785"/>
      <point x="459" y="846" type="curve" smooth="yes"/>
      <point x="459" y="873"/>
      <point x="442" y="902"/>
      <point x="421" y="919" type="curve"/>
      <point x="175" y="818" type="line"/>
    </contour>
    <component base="a"/>
    <component base="ring" xOffset="156" yOffset="-27"/>
  </outline>
</glyph>
<glyph name="dotlessj" format="1">
  <advance width="302"/>
  <unicode hex="0237"/>
  <outline>
    <contour>
      <point x="248" y="510" type="line"/>
      <point x="54" y="510" type="line"/>
      <point x="54" y="21" type="line" smooth="yes"/>
      <point x="54" y="-59"/>
      <point x="52" y="-140"/>
      <point x="-28" y="-150" type="curve"/>
      <point x="-10" y="-189"/>
      <point x="43" y="-200"/>
      <point x="86" y="-200" type="curve" smooth="yes"/>
      <point x="217" y="-200"/>
      <point x="248" y="-85"/>
      <point x="248" y="46" type="curve" smooth="yes"/>
    </contour>
    <contour>
      <point x="152" y="510" type="move" name="top"/>
    </contour>
  </outline>
</glyph>
